<svg width="681" height="495" viewBox="0 0 681 495" fill="none" xmlns="http://www.w3.org/2000/svg">
<path d="M563.474 480.707C559.779 480.707 556.064 480.578 552.307 480.262C537.955 479.054 523.406 478.45 509.125 476.726C476.35 472.769 443.559 472.535 410.546 472.535C397.44 472.535 384.335 472.425 371.232 472.425C352.148 472.425 333.07 472.659 314.024 473.808C284.315 475.601 254.557 475.887 224.794 475.887C220.304 475.887 215.812 475.881 211.321 475.872C211.032 475.871 210.743 475.871 210.454 475.871C193.975 475.871 177.56 476.787 161.105 477.434C144.578 478.083 128.505 479.151 112.073 479.151C110.591 479.151 109.104 479.141 107.615 479.124C91.1958 478.92 66.1944 474.605 54.4805 463.609C47.5256 457.075 48.4683 441.358 55.4335 435.058C58.4765 432.306 63.3813 430.151 67.388 428.84C78.8028 425.104 90.4182 425.095 102.346 425.017C102.492 425.017 102.638 425.016 102.784 425.016C111.014 425.016 119.571 426.512 127.459 428.591C134.636 430.482 141.968 431.145 149.267 432.322C155.24 433.286 161.63 433.747 167.95 433.747C172.062 433.747 176.146 433.552 180.062 433.173C190.66 432.146 201.333 431.668 211.961 430.859C223.491 429.98 234.806 428.207 246.251 426.994C246.234 427.255 246.225 427.517 246.225 427.781C246.225 434.291 251.524 439.587 258.036 439.587H390.394C392.373 439.587 393.975 437.985 393.975 436.007C393.975 434.03 392.373 432.428 390.394 432.428H258.036C255.474 432.428 253.388 430.343 253.388 427.781C253.388 427.256 253.476 426.741 253.644 426.256C259.392 425.579 265.049 424.392 270.812 423.814C288.235 422.066 305.689 421.688 323.143 421.641C324.561 421.637 325.979 421.635 327.396 421.635C335.703 421.635 344.009 421.692 352.311 421.692C359.069 421.692 365.821 421.674 372.575 421.674C395.674 421.674 418.755 421.887 441.792 423.777C448.932 424.362 456.025 424.008 463.065 425.402C470.133 426.801 477.269 428.077 484.511 428.327C490.708 428.539 496.924 428.61 503.146 428.61C514.211 428.61 525.296 428.388 536.325 428.351C537.43 428.348 538.97 428.342 540.877 428.342C565.565 428.342 651.568 429.365 645.396 450.063C643.025 458.017 629.244 468.369 621.512 471.702C611.746 475.911 601.066 478.401 590.316 479.241C581.255 479.948 572.421 480.707 563.474 480.707ZM372.829 443.838C368.277 446.423 365.208 451.312 365.208 456.918C365.208 465.221 371.942 471.952 380.25 471.952C388.558 471.952 395.292 465.221 395.292 456.918C395.292 451.314 392.224 446.426 387.675 443.841L387.688 443.813V439.587H380.253H372.817V443.813L372.829 443.838ZM259.386 443.838C254.835 446.423 251.765 451.312 251.765 456.918C251.765 465.221 258.5 471.952 266.808 471.952C275.115 471.952 281.85 465.221 281.85 456.918C281.85 451.314 278.782 446.426 274.233 443.841L274.246 443.813V439.587H266.81H259.374V443.813L259.386 443.838Z" fill="#F9EAED"/>
<path d="M216.832 305.117L246.225 403.916L259.393 410.109L395.021 399.075C395.021 399.075 403.614 386.908 403.614 379.749C403.614 372.59 412.106 327.346 412.106 327.346L216.832 305.117Z" fill="white"/>
<path d="M330.684 389.645L331.126 416.578C330.945 424.05 331.619 431.5 332.074 438.947C332.496 445.865 331.101 452.996 334.385 459.407C335.415 461.417 337.606 462.818 339.274 460.495C340.558 458.706 339.967 455.609 340.284 453.531C342.67 437.919 347.109 422.693 349.324 407.051C351.645 390.666 345.303 391.098 330.684 389.645Z" fill="#EACDB0"/>
<path d="M332.214 454.803L330.482 459.296L339.007 466.796L346.817 467.117L349.342 462.999L338.839 453.871L332.214 454.803Z" fill="#BABCBE"/>
<path d="M311.594 389.908L306.678 416.393C304.975 428.241 301.102 439.779 299.398 451.627C299.007 454.351 299.204 457.331 298.065 459.901C296.951 462.415 294.769 462.514 292.844 460.808C290.265 458.523 291.455 454.441 291.502 451.32C291.818 430.527 290.181 410.029 289.788 389.204C289.783 388.931 289.795 388.618 290.006 388.444C290.177 388.303 290.422 388.306 290.644 388.321C292.667 388.456 311.487 390.48 311.594 389.908Z" fill="#EACDB0"/>
<path d="M291.441 455.909L288.74 459.895L295.351 469.124L302.886 471.199L306.277 467.757L298.106 456.495L291.441 455.909Z" fill="#BABCBE"/>
<path d="M358.456 406.782L354.78 368.278L353.007 343.26L347.046 322.827L314.858 317.834L275.063 324.651L273.15 332.379L280.809 403.907L319.193 406.782L318.673 362.263L324.593 389.857L324.342 406.782H358.456Z" fill="#353A85"/>
<path d="M283.511 247.597C283.457 248.897 283.421 250.197 283.399 251.493C282.933 277.905 284.389 304.652 284.556 331.282C298.203 329.148 311.999 327.972 325.81 327.762C329.007 327.714 343.54 329.958 345.564 328.05C348.31 325.461 345.29 325.949 345.491 322.576C345.751 318.213 343.654 314.639 344.446 309.468C345.377 303.39 347.23 297.38 348.297 291.303C350.437 279.119 351.725 266.786 352.143 254.423C352.514 243.458 352.116 232.086 347.398 222.179C335.763 197.749 298.251 198.188 287.958 223.697C284.91 231.252 283.851 239.432 283.511 247.597Z" fill="#F7F7F7"/>
<path d="M360.548 196.449C364.559 191.256 366.302 185.64 368.007 178.582C369.274 173.332 370.336 168.02 371.377 162.721C372.065 159.215 372.69 156.147 372.757 152.621C372.813 149.672 374.476 145.594 371.884 143.233C372.409 142.045 374.162 141.634 375.16 142.466C375.316 142.597 375.464 142.756 375.661 142.807C375.999 142.895 376.329 142.634 376.534 142.351C377.134 141.524 377.213 140.446 377.428 139.447C377.775 137.838 378.37 135.232 379.582 134.079C380.564 133.144 381.855 132.617 383.113 132.11C383.346 132.016 383.601 131.921 383.842 131.991C384.046 132.05 384.197 132.216 384.338 132.375C385.632 133.843 387.082 135.279 388.179 136.873C386.427 138.328 386.12 140.498 385.115 142.439C383.796 144.988 382.186 147.004 381.965 150.001C381.621 154.659 381.642 159.339 381.236 164.002C380.444 173.113 379.092 182.155 377.793 191.204C376.916 197.197 376.02 203.328 373.554 208.913C371.126 214.414 367.677 217.712 363.079 221.586C362.022 222.477 360.924 223.389 359.601 223.788C357.592 224.392 355.384 223.692 353.656 222.504C349.088 219.364 347.459 212.625 350.088 207.747C351.501 205.128 353.864 203.18 356.085 201.198C357.836 199.636 359.302 198.063 360.548 196.449Z" fill="#EACDB0"/>
<path d="M325.839 213.327L315.651 231.883C316.184 250.629 316.716 269.375 317.249 288.12C317.494 296.759 317.739 305.399 317.985 314.038C318.07 317.038 318.145 320.038 318.241 323.037C318.283 324.383 317.912 326.65 318.679 327.749C320.348 330.134 326.445 329.39 329.105 329.599C333.252 329.926 337.461 330.264 341.367 331.695C343.969 332.649 346.433 334.084 349.177 334.468C349.794 334.555 350.483 334.567 350.967 334.176C351.508 333.739 351.6 332.964 351.652 332.27C352.605 319.401 352.625 306.133 353.339 293.126C353.924 282.481 355.414 271.233 354.49 260.574C354.475 260.397 354.457 260.218 354.425 260.043C353.48 254.916 354.425 237.981 354.425 237.979C354.465 237.267 356.903 235.421 357.373 234.936C359.796 232.434 362.22 229.932 364.644 227.431C369.48 222.439 378.816 216.272 375.063 208.198C374.606 207.216 373.912 206.365 373.172 205.574C367.692 199.708 360.689 196.419 356.767 189.196C349.903 192.581 344.308 199.266 337.006 202.05C333.205 203.496 329.187 203.994 325.212 203.021C322.874 202.448 317.841 200.627 319.105 205.25C319.828 207.896 324.053 211.202 325.839 213.327Z" fill="#8CABEF"/>
<path d="M303.675 215.072L313.862 233.629C313.649 233.629 312.57 279.116 312.484 282.186C312.152 293.863 311.82 305.539 311.489 317.215C311.397 320.461 311.833 324.262 311.198 327.452C310.311 331.907 305.62 331.03 301.622 331.39C292.878 332.178 283.672 333.67 274.903 333.227C272.374 333.1 275.702 280.346 275.698 275.423C275.681 257.717 272.026 238.073 281.025 222.016C283.643 217.345 288.259 209.855 293.355 207.548C298.103 205.399 304.9 205.033 310.054 203.828L310.322 207.167L303.675 215.072Z" fill="#8CABEF"/>
<path d="M325.787 170.124C327.391 172.933 328.164 176.169 328.306 179.401C328.344 180.26 328.403 181.252 329.098 181.76C329.842 182.302 329.189 183.494 329.754 182.768C330.32 182.041 332.242 179.517 332.329 178.601C332.531 176.453 332.528 174.286 332.319 172.139C332.138 170.273 331.756 168.321 330.533 166.898C329.808 166.054 328.841 165.461 327.888 164.885C326.507 164.051 325.083 163.21 323.497 162.914C320.762 162.405 319.084 163.385 321.498 165.292C323.227 166.657 324.688 168.199 325.787 170.124Z" fill="#292949"/>
<path d="M308.699 206.779C308.718 208.102 308.447 209.473 309.614 210.499C310.175 210.993 310.934 211.19 311.672 211.307C313.579 211.609 315.556 211.469 317.402 210.9C318.161 210.667 318.918 210.35 319.491 209.8C320.168 209.15 320.202 208.534 320.235 207.683C320.273 206.686 320.475 205.673 320.605 204.661C320.891 202.451 321.019 200.222 321.083 197.994C324.36 197.433 328.214 196.373 329.334 192.942C329.687 191.862 329.699 190.686 329.708 189.537C329.743 184.784 329.778 180.031 329.813 175.278C329.824 173.634 329.828 171.94 329.265 170.414C328.277 167.738 325.766 166.142 323.303 165.138C317.018 162.577 309.693 162.679 303.892 166.322C302.349 167.293 300.892 168.539 300.003 170.233C298.632 172.844 298.804 176.068 299.017 179.08C299.214 181.861 299.41 184.642 299.607 187.423C299.833 190.621 300.314 194.303 302.799 195.992C304.118 196.889 305.823 197.054 306.961 198.215C308.946 200.241 308 203.267 308.586 205.722C308.668 206.065 308.694 206.421 308.699 206.779Z" fill="#EACDB0"/>
<path d="M319 194.335C317.293 195.482 315.411 195.544 313.508 194.971C312.699 194.728 313.042 193.371 313.852 193.615C315.429 194.09 316.918 194.077 318.34 193.122C319.055 192.641 319.711 193.857 319 194.335ZM330.861 187.642C330.808 186.76 330.423 184.178 329.096 185.801C328.75 186.225 328.664 186.825 328.643 187.39C328.621 187.956 328.647 188.537 328.469 189.07C328.06 190.291 326.708 190.847 325.502 190.825C325.023 190.817 324.535 190.738 324.111 190.497C323.7 190.263 323.374 189.891 323.056 189.526C322.283 188.639 321.509 187.752 320.736 186.866C319.407 185.341 316.771 186 314.98 186.234C312.916 186.503 310.85 187.125 309.164 188.483C308.994 188.62 308.828 188.764 308.661 188.907C308.255 189.258 307.846 189.605 307.374 189.835C305.78 190.611 303.806 189.801 302.688 188.35C302.176 187.685 301.698 186.829 300.904 186.718C300.281 186.631 299.676 187.077 299.356 187.659C299.037 188.24 298.952 188.934 298.908 189.609C298.751 192.064 299.09 194.596 300.154 196.773C302.463 201.495 306.927 202.074 311.413 201.969C313.186 201.927 314.96 201.885 316.733 201.843C319.975 201.767 323.402 201.632 326.133 199.749C328.542 198.087 329.974 195.262 330.561 192.303C330.864 190.776 330.955 189.2 330.861 187.642Z" fill="#292949"/>
<path d="M331.538 161.887C331.851 160.735 332.083 159.561 332.23 158.377C331.133 158.761 329.938 158.864 328.791 158.671C328.789 157.988 328.786 157.304 328.783 156.621C328.778 156.053 321.084 155.655 320.459 155.603C314.606 155.123 309.253 154.666 303.961 157.806C299.44 160.488 296.542 164.492 295.848 169.705C295.186 174.685 296.816 181.189 299.698 185.322C299.681 183.996 298.917 180.869 299.231 179.609C299.422 178.346 299.859 177.129 300.461 176.005C301.663 173.76 303.526 171.871 305.677 170.524C309.108 168.376 313.097 167.239 317.08 166.684C320.73 166.176 325.178 165.707 328.783 166.674C330.517 167.139 330.804 167.573 331.854 165.824C332.039 165.516 333.506 161.917 333.362 161.915C332.755 161.905 332.146 161.896 331.538 161.887Z" fill="#292949"/>
<path d="M270.154 200.709C272.855 197.921 273.486 193.741 271.729 190.269C268.521 183.925 265.311 177.58 262.103 171.236C260.3 167.673 257.168 163.54 256.674 159.665C255.802 152.815 257.353 144.756 257.992 137.908C258.317 134.431 258.028 129.599 259.465 126.399C259.735 125.799 263.804 121.203 263.694 121.062L262.841 119.778L261.568 120.635L260.505 120.422L263.4 116.922L259.213 113.856L253.622 116.072C253.323 119.835 253.992 123.756 252.795 127.388C252.29 128.924 251.537 130.365 250.901 131.853C249.81 134.407 249.072 137.089 248.226 139.729C247.408 142.284 246.086 144.686 245.316 147.211C243.598 152.845 241.918 158.491 240.22 164.131L254.983 197.943C257.616 203.973 265.585 205.426 270.154 200.709Z" fill="#EACDB0"/>
<path d="M294.645 205.535C288.537 201.974 283.285 196.993 279.327 191.142C279.224 190.923 279.122 190.705 279.025 190.489C278.654 189.659 274.486 180.577 274.366 180.631C274.262 180.677 274.158 180.724 274.055 180.771L273.152 181.23L273.022 181.231C270.905 181.259 267.371 183.772 265.407 184.654C260.187 186.998 254.968 189.341 249.749 191.685C249.378 191.852 248.988 192.033 248.754 192.365C248.476 192.76 248.479 193.272 248.525 193.762L247.132 194.471C247.816 195.43 248.428 196.425 248.987 197.447C249.581 201.427 250.587 205.354 253.015 208.526C253.159 208.713 253.313 208.891 253.465 209.072C254.727 213.281 255.906 217.545 257.704 221.522C262.538 232.213 271.72 240.515 276.336 251.302C280.084 250.209 282.682 246.847 284.674 243.491C288.589 236.895 291.191 229.619 293.77 222.395C295.081 218.722 296.392 215.048 297.703 211.375C297.933 210.733 298.165 210.071 298.129 209.389C298.035 207.581 296.209 206.447 294.645 205.535Z" fill="#8CABEF"/>
<path d="M241.565 244.42L247.675 238.409L257.31 238.637L258.409 243.521L243.851 249.806L241.565 244.42Z" fill="#F7C9A9"/>
<path d="M176.642 197.502C175.477 184.383 170.43 181.994 170.43 181.994L170.427 181.995C169.089 180.901 167.52 180.093 165.84 179.688C163.259 182.007 161.648 185.374 161.462 188.841L161.084 188.846C162.665 188.883 164.223 189.245 165.672 189.867C166.779 197.686 168.466 210.129 168.526 213.763C168.617 219.188 169.9 219.288 173.549 220.477C177.199 221.666 181.052 218.614 181.052 218.614C181.052 218.614 177.807 210.621 176.642 197.502Z" fill="#292949"/>
<path d="M155.619 220.066L139.781 226.301L113.885 247.745L102.048 209.293L87.6205 211.882L96.8691 258.837L112.036 272.517L155.688 248.484L155.619 220.066Z" fill="#353A85"/>
<path d="M140.694 457.903L140.275 462.04L147.784 467.2L152.168 463.573L148.622 458.924L141.113 453.765L140.694 457.903Z" fill="#1A3151"/>
<path d="M140.882 331.394L139.609 343.961L150.871 387.136L140.414 456.516L148.111 459.171L168.408 391.435L171.629 371.73L171.512 330.015L140.882 331.394Z" fill="#8CABEF"/>
<path d="M200.082 345.4L183.892 461.655H176.533L175.208 387.136L161.814 334.832L200.082 345.4Z" fill="#8CABEF"/>
<path d="M176.575 460.737V464.913L184.533 469.089L188.513 464.913L184.533 460.737H176.575Z" fill="#BABCBE"/>
<path d="M141.288 315.978C147.573 273.687 145.328 242.888 145.654 234.431C145.98 225.974 151.777 221.586 151.777 221.586C154.324 221.004 156.538 219.327 159.107 218.665C176.485 214.188 185.964 227.775 192.469 242.429C200.485 260.484 207.218 279.141 212.663 298.173C217.441 314.877 222.229 331.732 224.233 349.067C225.06 356.219 225.75 363.003 218.101 366.158C205.913 371.186 192.217 371.077 179.344 372.689C164.557 374.541 149.749 375.894 134.864 376.528C127.093 376.859 135.003 358.269 141.288 315.978Z" fill="#353A85"/>
<path d="M90.4374 211.377L83.9214 204.857L86.1409 193.396H92.4296L94.2794 203.378L97.4709 205.295V210.114L90.4374 211.377Z" fill="#F7C9A9"/>
<path d="M167.525 217.798L184.172 220.755L214.218 249.806L241.153 240.357L249.813 251.393L213.766 272.517L175.664 248.115L167.525 217.798Z" fill="#353A85"/>
<path d="M171.629 218.68L174.693 263.654L151.623 220.902L158.352 218.5L163.158 217.06L171.629 218.68Z" fill="#F7F7F7"/>
<path d="M172.44 192.856C166.705 180.373 150.92 186.696 148.867 198.467C147.7 205.161 151.253 216.795 159.249 216.905C159.652 218.036 160.343 220.172 161.421 220.728C162.588 221.329 165.411 219.779 166.527 219.211C166.836 219.053 167.156 218.873 167.335 218.575C167.558 218.203 167.409 217.39 167.194 216.501C168.049 216.227 168.897 215.836 169.729 215.313C173.22 213.119 175.099 208.912 175.283 204.788C175.466 200.665 174.163 196.608 172.44 192.856Z" fill="#F7C9A9"/>
<path d="M165.517 179.733C165.517 179.733 168.863 186.444 160.271 190.672C151.679 194.901 147.547 203.469 150.978 210.578C154.409 217.687 162.495 221.546 159.432 224.401C156.369 227.257 142.847 228.519 142.847 228.519C142.847 228.519 128.377 204.038 136.194 189.946C144.01 175.854 159.313 171.636 165.517 179.733Z" fill="#292949"/>
<path d="M469.268 302.033L472.423 323.73L466.091 446.106L455.47 443.88L437.851 304.758L469.268 302.033Z" fill="#292949"/>
<path d="M417.095 297.957L415.043 379.086L435.66 449.118L447.678 444.652L437.556 382.198L446.85 297.265L417.095 297.957Z" fill="#292949"/>
<path d="M447.719 438.093L433.333 444.684L438.162 454.738L430.617 459.489C430.617 459.489 429.906 463.675 432.44 465.442C434.974 467.209 451.388 453.429 451.388 453.429L447.719 438.093Z" fill="#292949"/>
<path d="M469.268 440.471L453.664 443.105L455.717 454.067L447.197 456.698C447.197 456.698 445.423 460.557 447.412 462.921C449.401 465.285 468.831 456.233 468.831 456.233L469.268 440.471Z" fill="#292949"/>
<path d="M438.935 165.653C440.047 169.263 441.643 172.724 443.666 175.915C443.714 169.286 444.677 162.664 446.522 156.296C446.662 155.811 446.802 155.261 446.546 154.824C446.309 154.415 445.809 154.253 445.349 154.142C437.146 152.162 436.996 159.36 438.935 165.653Z" fill="#292949"/>
<path d="M443.437 176.044C444.293 178.771 445.711 181.856 448.542 183.518C451.874 185.477 455.438 184.477 457.925 182.973C466.141 178.005 480.383 150.61 458.966 143.884C439.52 137.776 439.887 164.725 443.437 176.044Z" fill="#E0C09C"/>
<path d="M460.359 176.161C461.637 178.053 464.548 177.623 466.613 176.647C475.097 172.638 480.276 162.62 478.638 153.385C477.268 145.658 467.709 139.656 465.518 149.137C464.741 152.498 466.686 157.228 466.124 160.965C465.321 166.304 462.7 171.365 460.359 176.161Z" fill="#292949"/>
<path d="M439.446 134.018C429.694 139.41 425.334 151.281 416.415 157.959C424.429 161.632 433.952 161.868 442.138 158.597C450.167 155.388 469.205 153.444 466.716 142.326C464.182 131.008 447.99 129.295 439.446 134.018Z" fill="#292949"/>
<path d="M477.276 204.049C482.859 213.737 482.834 224.708 482.063 235.203C480.317 258.961 482.582 286.507 474.386 309.218C458.915 309.204 429.258 302.113 413.85 300.53C410.847 279.876 412.597 267.8 414.29 244.411C415.125 232.88 416.916 217.408 421 206.422C424.344 197.428 433.257 185.814 446.712 186.184C459.321 186.53 472.198 195.239 477.276 204.049Z" fill="#5D66D3"/>
<path d="M452.077 190.978C450.668 191.574 448.942 191.325 447.27 189.708C445.831 188.316 446.274 187.862 446.58 185.811C447.03 182.789 447.835 179.781 448.458 176.787L456.787 178.518C456.779 178.517 455.113 186.624 454.986 187.177C454.58 188.942 453.486 190.383 452.077 190.978Z" fill="#E0C09C"/>
<path d="M508.559 156.983L508.23 146.469L503.749 146.486L502.387 153.762L500.279 152.782L501.652 161.727L506.303 162.341L508.559 156.983Z" fill="#E0C09C"/>
<path d="M464.648 212.518C460.006 208.663 458.13 201.807 460.161 196.128C460.528 195.101 461.025 194.094 461.809 193.337C463.587 191.623 466.369 191.577 468.82 191.888C474.008 192.545 485.796 200.366 488.711 196.681C491.142 193.61 491.853 186.303 492.99 182.555C495.384 174.661 497.779 166.766 500.174 158.871L509.333 160.564C508.354 169.779 507.375 178.995 506.397 188.211C505.76 194.2 505.124 200.19 504.488 206.18C504.016 210.631 505.846 220.333 501.68 222.634C500.591 223.235 499.293 223.3 498.049 223.286C489.422 223.189 481.162 220.024 473.119 216.903C470.141 215.748 467.105 214.559 464.648 212.518Z" fill="#5D66D3"/>
<path d="M368.799 212.48L362.294 206.08L352.037 206.323L350.867 211.522L366.365 218.214L368.799 212.48Z" fill="#E0C09C"/>
<path d="M445.207 193.139L437.804 186.454L397.913 218.214L369.237 208.154L360.018 219.903L398.395 242.392L438.96 216.413L445.207 193.139Z" fill="#5D66D3"/>
<path d="M415.436 148.219L176.934 110.375L192.712 11.0392L431.215 48.8819L415.436 148.219Z" fill="#353A85"/>
<path d="M224.108 78.2329C226.875 80.2321 231.254 82.4788 236.015 83.2101C241.142 83.9978 244.179 82.2913 244.674 79.0701C245.147 75.9955 243.074 73.8782 237.467 70.8432C229.702 66.7279 225.054 61.3676 226.157 54.1926C227.451 45.7745 235.474 40.4124 247.121 42.2019C252.687 43.057 256.609 44.8582 259.336 46.6266L255.461 55.2488C253.63 53.9928 250.328 52.0617 245.494 51.3185C240.659 50.576 237.977 52.4119 237.584 54.9747C237.099 58.1229 239.669 59.9414 245.669 63.3365C253.891 67.8967 257.295 73.0657 256.225 80.0205C254.952 88.2925 247.499 94.3414 233.948 92.26C228.308 91.3931 222.966 89.074 220.419 87.1089L224.108 78.2329Z" fill="white"/>
<path d="M288.785 78.4284L287.32 67.4871C286.891 64.4237 286.575 60.6276 286.294 57.5871L286.147 57.5648C284.964 60.3801 283.657 64.0023 282.413 66.7335L277.871 76.7523L288.785 78.4284ZM274.977 84.8498L269.513 96.9749L257.94 95.1966L280.618 48.1728L295.268 50.4232L302.987 102.118L290.975 100.272L289.114 87.0217L274.977 84.8498Z" fill="white"/>
<path d="M317.17 53.7886L328.376 55.51L322.228 95.4818L341.859 98.4982L340.418 107.869L309.58 103.131L317.17 53.7886Z" fill="white"/>
<path d="M379.592 92.5298L361.426 89.7386L359.625 101.452L379.914 104.569L378.506 113.721L347.01 108.881L354.599 59.5393L385.07 64.2207L383.662 73.3714L364.399 70.4119L362.822 80.6615L380.987 83.4527L379.592 92.5298Z" fill="white"/>
<path d="M323.761 402.361L258.092 406.471L255.221 360.661L320.89 356.551L323.761 402.361Z" fill="#5D66D3"/>
<path d="M322.746 402.001L318.633 336.369L351.126 334.335L355.239 399.967L322.746 402.001Z" fill="#DDDAE8"/>
<path d="M355.105 399.975L352.534 358.957L380.984 357.202L383.554 398.221L355.105 399.975Z" fill="#D67086"/>
<path d="M390.394 439.587H258.036C251.524 439.587 246.225 434.291 246.225 427.781C246.225 424.783 247.351 421.923 249.398 419.73L261.431 406.834C262.781 405.388 265.048 405.309 266.493 406.657C267.94 408.006 268.019 410.271 266.67 411.716L254.636 424.612C253.831 425.475 253.388 426.6 253.388 427.781C253.388 430.343 255.474 432.428 258.036 432.428H390.394C392.373 432.428 393.975 434.03 393.975 436.007C393.975 437.985 392.373 439.587 390.394 439.587Z" fill="#292949"/>
<path d="M281.85 456.918C281.85 465.221 275.115 471.952 266.808 471.952C258.5 471.952 251.765 465.221 251.765 456.918C251.765 448.615 258.5 441.884 266.808 441.884C275.115 441.884 281.85 448.615 281.85 456.918Z" fill="#292949"/>
<path d="M274.826 456.918C274.826 461.344 271.236 464.932 266.808 464.932C262.379 464.932 258.789 461.344 258.789 456.918C258.789 452.491 262.379 448.904 266.808 448.904C271.236 448.904 274.826 452.491 274.826 456.918Z" fill="#F7F7F7"/>
<path d="M272.477 456.918C272.477 460.047 269.939 462.584 266.808 462.584C263.676 462.584 261.137 460.047 261.137 456.918C261.137 453.788 263.676 451.251 266.808 451.251C269.939 451.251 272.477 453.788 272.477 456.918Z" fill="#292949"/>
<path d="M266.81 439.587H259.374V443.813L265.323 456.394H266.81H268.297L274.246 443.813V439.587H266.81Z" fill="#BABCBE"/>
<path d="M259.374 443.813H274.246V439.587H259.374V443.813Z" fill="#AAACAD"/>
<path d="M395.292 456.918C395.292 465.221 388.558 471.952 380.25 471.952C371.942 471.952 365.208 465.221 365.208 456.918C365.208 448.615 371.942 441.884 380.25 441.884C388.558 441.884 395.292 448.615 395.292 456.918Z" fill="#292949"/>
<path d="M388.268 456.918C388.268 461.344 384.678 464.932 380.25 464.932C375.822 464.932 372.231 461.344 372.231 456.918C372.231 452.491 375.822 448.904 380.25 448.904C384.678 448.904 388.268 452.491 388.268 456.918Z" fill="#F7F7F7"/>
<path d="M385.92 456.918C385.92 460.047 383.381 462.584 380.25 462.584C377.118 462.584 374.58 460.047 374.58 456.918C374.58 453.788 377.118 451.251 380.25 451.251C383.381 451.251 385.92 453.788 385.92 456.918Z" fill="#292949"/>
<path d="M380.253 439.587H372.817V443.813L378.765 456.394H380.253H381.74L387.688 443.813V439.587H380.253Z" fill="#BABCBE"/>
<path d="M372.817 443.813H387.688V439.587H372.817V443.813Z" fill="#AAACAD"/>
<path d="M387.114 397.752C387.038 397.752 386.961 397.754 386.884 397.758L386.8 397.764L388.51 379.749H399.889L398.446 388.197C397.499 393.733 392.734 397.752 387.114 397.752ZM257.322 406.123C252.244 406.074 247.75 402.648 246.37 397.765L241.32 379.749H252.31L258.447 406.05L257.322 406.123ZM236.129 310.389L242.916 339.485H230.101L221.39 308.615L236.129 310.389ZM370.659 372.59L371.771 346.644H388.055L385.593 372.59H370.659ZM370.353 379.749H384.913L383.181 397.997L369.533 398.878L370.353 379.749ZM350.827 379.749H366.767L365.937 399.11L350.827 400.086V379.749ZM331.936 379.749H347.246V400.318L332.741 401.254L331.936 379.749ZM312.353 379.749H328.352L329.165 401.485L314.002 402.464L312.353 379.749ZM305.84 339.485H288.789L286.164 316.411L304.325 318.597L305.84 339.485ZM326.845 339.485H309.431L307.947 319.034L326.162 321.226L326.845 339.485ZM347.246 339.485H330.43L329.763 321.66L347.246 323.764V339.485ZM350.827 346.644H368.185L367.073 372.59H350.827V346.644ZM330.697 346.644H347.246V372.59H331.668L330.697 346.644ZM309.951 346.644H327.113L328.084 372.59H311.834L309.951 346.644ZM288.95 372.59H272.994L268.845 346.644H285.998L288.95 372.59ZM289.603 346.644H306.36L308.243 372.59H292.554L289.603 346.644ZM372.62 326.818L389.742 328.879L388.735 339.485H372.077L372.62 326.818ZM368.492 339.485H350.827V324.195L369.053 326.389L368.492 339.485ZM282.509 315.972L285.184 339.485H267.7L263.575 313.693L282.509 315.972ZM259.876 313.247L264.072 339.485H246.594L239.913 310.845L259.876 313.247ZM248.265 346.644H265.217L269.367 372.59H254.318L248.265 346.644ZM239.443 372.59L232.121 346.644H244.587L250.64 372.59H239.443ZM262.07 405.816L255.988 379.749H270.512L274.552 405.011L262.07 405.816ZM278.142 404.779L274.139 379.749H289.765L292.507 403.851L278.142 404.779ZM296.085 403.621L293.369 379.749H308.762L310.427 402.695L296.085 403.621ZM401.111 372.59H389.19L391.653 346.644H405.544L401.111 372.59ZM406.767 339.485H392.333L393.298 329.307L408.199 331.101L406.767 339.485ZM415.232 325.856C414.647 325.071 413.763 324.56 412.79 324.443L219.284 301.151L212.714 277.87C210.475 269.793 203.647 263.927 195.321 262.926L167.049 259.522C165.1 259.288 163.301 260.686 163.065 262.649C162.828 264.611 164.228 266.394 166.192 266.631L194.466 270.034C199.897 270.686 204.35 274.514 205.816 279.798L213.059 305.468L239.475 399.704C241.733 407.699 249.117 413.282 257.429 413.282C257.506 413.282 257.583 413.28 257.659 413.275L387.237 404.911C396.305 404.852 403.977 398.348 405.506 389.402L415.892 328.599C416.058 327.633 415.819 326.642 415.232 325.856Z" fill="#292949"/>
<path d="M415.91 328.247L415.04 333.499H389.11C386.976 333.499 385.247 331.771 385.247 329.638V321.192L413.319 324.414C415.185 324.642 416.264 326.402 415.91 328.247Z" fill="#BABCBE"/>
<path d="M149.84 253.388C145.551 252.885 141.649 255.932 141.13 260.222C140.613 264.513 143.675 268.411 147.968 268.927L186.593 273.577L188.314 258.019L149.84 253.388Z" fill="#BABCBE"/>
<path d="M186.593 273.577L146.635 268.64L188.314 258.019L187.871 262.029L187.083 269.145L186.593 273.577Z" fill="#AAACAD"/>
<path d="M405.543 346.644H232.121L231.11 343.064H406.155L405.543 346.644Z" fill="#272745"/>
<path d="M399.883 379.749H241.224L240.213 376.17H400.495L399.883 379.749Z" fill="#272745"/>
<path d="M493.383 235.592L489.058 233.254L487.886 229.082L486.875 228.881L486.578 230.114L484.613 226.93L481.736 225.956L478.454 228.316L477.279 232.322L479.97 235.33L484.53 236.828L490.311 240.285L493.383 235.592Z" fill="#F7C9A9"/>
<path d="M490.93 230.773L516.394 248.562L542.445 220.614L545.55 252.318L520.161 269.009L486.289 239.161L490.93 230.773Z" fill="#DDDAE8"/>
<path d="M582.722 462.872L583.156 467.151L575.377 472.488L570.836 468.737L574.509 463.929L582.289 458.592L582.722 462.872Z" fill="#BABCBE"/>
<path d="M582.528 332.019L583.846 345.017L572.18 389.675L583.013 461.437L575.039 464.183L554.011 394.122L550.674 373.74L550.796 330.592L582.528 332.019Z" fill="#292949"/>
<path d="M521.197 346.506L537.97 466.753H545.594L546.966 389.675L560.842 335.574L521.197 346.506Z" fill="#292949"/>
<path d="M545.55 465.803V470.123L537.306 474.441L533.183 470.123L537.306 465.803H545.55Z" fill="#BABCBE"/>
<path d="M539.928 223.065C540.532 222.079 541.339 221.238 542.445 220.614C550.02 216.342 562.575 220.104 570.794 220.104C573.223 245.664 579.938 270.024 584.275 295.12C588.882 321.772 594.068 348.325 599.83 374.753C600.071 375.86 587.437 375.735 579.959 375.61C577.329 375.566 575.337 375.522 574.768 375.531C552.447 375.908 523.23 375.831 501.693 369.086C515.438 332.207 520.456 292.526 531.28 254.687C533.18 248.045 535.436 241.501 537.148 234.804C538.14 230.922 537.987 226.237 539.928 223.065Z" fill="#DDDAE8"/>
<path d="M550.055 185.35C544.406 186.895 539.957 192.12 539.338 197.942C536.25 195.066 534.674 190.653 535.243 186.474C535.811 182.294 538.509 178.462 542.253 176.515C545.756 178.373 548.472 181.66 549.634 185.449L550.055 185.35Z" fill="#292949"/>
<path d="M538.563 192.916C541.482 177.512 560.738 180.174 566.263 192.648C569.404 199.742 566.113 209.783 559.829 214.72C559.694 216.084 559.517 219.846 558.474 220.758C557.344 221.745 553.785 220.804 552.391 220.481C552.004 220.392 551.6 220.281 551.32 220C550.969 219.649 550.91 218.707 550.903 217.664C549.879 217.595 548.831 217.395 547.764 217.045C543.284 215.575 540.041 211.431 538.699 206.914C537.358 202.397 537.685 197.545 538.563 192.916Z" fill="#F7C9A9"/>
<path d="M567.035 254.063C566.851 254.053 566.703 254.039 566.595 254.02C563.198 253.437 557.747 252.341 556.17 248.764C554.554 245.099 557.425 238.45 557.899 234.641C558.619 228.852 558.858 223.012 559.137 217.19C559.389 211.94 557.512 206.766 554.764 202.285C552.016 197.803 548.422 193.913 544.882 190.026C543.409 188.409 541.886 186.681 541.436 184.542C540.938 182.175 541.885 179.678 543.447 177.831C545.849 174.989 548.701 173.575 552.329 173.488C565.065 173.184 574.64 180.715 578.253 193.146C583.43 210.96 576.963 227.958 577.926 245.684C578.09 248.711 579.092 251.688 580.79 254.199C580.339 253.532 569.782 254.22 567.035 254.063Z" fill="#292949"/>
<path d="M452.363 278.416C450.517 251.096 471.18 227.452 498.515 225.607C525.851 223.762 549.507 244.413 551.354 271.733C553.2 299.054 532.538 322.698 505.202 324.544C477.866 326.389 454.21 305.737 452.363 278.416Z" fill="#EFEFEF"/>
<path d="M459.853 277.911C458.285 254.724 475.821 234.658 499.021 233.092C522.22 231.526 542.298 249.052 543.865 272.239C545.432 295.426 527.896 315.492 504.696 317.058C481.497 318.624 461.42 301.097 459.853 277.911Z" fill="#DDDDDD"/>
<path d="M521.414 237.758C526.038 244.003 528.988 251.6 529.551 259.926C531.118 283.113 513.582 303.179 490.382 304.746C482.325 305.289 474.646 303.528 467.986 300.029C476.239 311.174 489.825 318.012 504.693 317.009C527.892 315.442 545.429 295.376 543.861 272.19C542.839 257.056 533.929 244.335 521.414 237.758Z" fill="#CECECC"/>
<path d="M473.646 299.394C468.404 293.465 465.007 285.825 464.432 277.321C463.049 256.854 478.529 239.141 499.008 237.758C499.861 237.7 500.708 237.672 501.55 237.672C511.243 237.672 520.174 241.431 526.846 247.64C527.09 248.274 527.319 248.914 527.532 249.563C521.179 244.562 513.184 241.606 504.587 241.606C503.746 241.606 502.898 241.634 502.046 241.692C481.567 243.075 466.087 260.788 467.471 281.255C467.925 287.982 470.144 294.168 473.646 299.394Z" fill="#EDEDED"/>
<path d="M532.418 254.176C530.93 252.495 529.294 250.95 527.532 249.563C527.319 248.914 527.09 248.274 526.846 247.64C528.942 249.591 530.814 251.782 532.418 254.176Z" fill="#E7E7E6"/>
<path d="M502.372 302.157L502.008 296.776C498.402 296.434 495.597 295.391 493.596 293.643C491.594 291.896 490.015 289.097 488.859 285.246L494.782 283.585C495.788 286.295 496.922 288.201 498.185 289.303C499.344 290.225 500.794 290.686 502.532 290.686C502.764 290.686 502.999 290.678 503.241 290.662C505.243 290.527 506.874 289.768 508.134 288.385C509.377 287.023 509.93 285.331 509.793 283.311C509.671 281.51 509.018 280.101 507.835 279.085C507.235 278.595 506.362 278.056 505.216 277.467C504.069 276.877 502.614 276.248 500.851 275.582C497.212 274.237 494.793 272.939 493.593 271.686C491.694 269.822 490.651 267.507 490.464 264.742C490.375 263.432 490.501 262.2 490.844 261.043C491.187 259.887 491.723 258.823 492.452 257.85C493.183 256.878 494.107 256.016 495.226 255.265C496.346 254.513 497.63 253.896 499.078 253.415L498.717 248.066L503.495 247.744L503.856 253.092C506.027 253.293 507.832 253.884 509.27 254.865C510.708 255.846 512.12 257.405 513.508 259.54L508.385 262.874C506.692 260.236 504.649 258.917 502.26 258.917C502.111 258.917 501.961 258.922 501.81 258.932C500.208 259.04 498.911 259.603 497.919 260.62C496.927 261.638 496.48 262.856 496.576 264.274C496.663 265.567 497.163 266.611 498.076 267.408C498.97 268.189 500.73 269.066 503.356 270.04C505.626 270.891 507.51 271.71 509.007 272.495C510.505 273.281 511.646 274.058 512.429 274.828C514.636 276.909 515.846 279.522 516.059 282.669C516.267 285.762 515.524 288.553 513.827 291.043C512.147 293.515 509.796 295.263 506.776 296.29L507.032 300.075C505.532 300.858 503.976 301.555 502.372 302.157Z" fill="#C0C0C0"/>
<path d="M502.379 302.261L502.372 302.157C503.976 301.555 505.532 300.858 507.032 300.075L507.157 301.938L502.379 302.261Z" fill="#BABAB9"/>
<path d="M558.55 277.863L553.428 279.538L549.224 277.324L548.302 277.976L549.059 279.143L545.044 278.303L542.099 279.857L541.503 284.245L543.806 288.199L548.228 288.329L552.859 285.832L559.969 283.842L558.55 277.863Z" fill="#F7C9A9"/>
<path d="M572.076 272.335C574.235 270.877 575.719 268.804 575.911 265.75C576.089 262.937 575.429 260.148 574.943 257.37C573.401 248.554 573.604 239.436 575.538 230.698C577.464 222.002 587.613 232.936 588.876 236.859C590.275 241.207 589.881 245.941 590.222 250.437C590.68 256.472 590.896 262.526 590.871 268.58C590.856 272.41 591.799 281.456 587.765 283.647C586.674 284.24 585.422 284.447 584.196 284.646C582.271 284.959 559.282 287.856 558.922 286.721L555.746 276.707C560.529 275.728 567.693 275.297 572.076 272.335Z" fill="#DDDAE8"/>
<path d="M592.57 293.434C592.238 293.612 591.807 293.448 591.606 293.068L582.474 275.717C579.423 269.92 572.824 267.411 567.765 270.126C562.704 272.84 561.071 279.765 564.122 285.562L573.254 302.913C573.454 303.293 573.347 303.746 573.015 303.924C572.683 304.102 572.252 303.938 572.052 303.558L562.919 286.208C559.468 279.65 561.316 271.818 567.039 268.748C572.762 265.678 580.226 268.515 583.677 275.072L592.809 292.422C593.009 292.803 592.902 293.256 592.57 293.434Z" fill="#292949"/>
<path d="M630.005 338.337L625.802 336.213L600.414 279.028L602.997 279.408L606.453 278.518L630.005 338.337Z" fill="#89A8EB"/>
<path d="M602.997 279.408L624.143 324.117L606.453 278.518L602.997 279.408Z" fill="#829FDE"/>
<path d="M553.957 303.949L600.448 279.009L626.96 335.752L578.869 360.586L553.957 303.949Z" fill="#829FDE"/>
<path d="M639.88 332.702L591.572 360.703L561.657 302.65L606.486 278.525L639.88 332.702Z" fill="#8CABEF"/>
<path d="M591.572 360.703L578.869 360.586L553.957 303.949L558.136 302.832L561.657 302.65L591.572 360.703Z" fill="#D5C477"/>
<path d="M558.136 302.832L582.974 353.751L591.608 360.684L561.631 302.537L558.136 302.832Z" fill="#C4B56B"/>
<path d="M578.871 360.604L582.974 353.751L591.607 360.684L578.871 360.604Z" fill="#B9AB65"/>
<path d="M578.031 303.08C577.63 302.319 576.767 301.991 576.103 302.348C575.439 302.704 575.226 303.609 575.626 304.371C576.026 305.132 576.889 305.46 577.554 305.103C578.218 304.747 578.431 303.842 578.031 303.08Z" fill="#4E4E4E"/>
<path d="M577.515 303.357C577.287 302.922 576.793 302.735 576.414 302.938C576.034 303.142 575.912 303.66 576.141 304.094C576.37 304.529 576.863 304.716 577.243 304.513C577.622 304.309 577.744 303.792 577.515 303.357Z" fill="#E1DEBA"/>
<path d="M597.597 292.585C597.196 291.824 596.333 291.496 595.669 291.852C595.005 292.208 594.792 293.114 595.192 293.875C595.593 294.635 596.456 294.963 597.119 294.607C597.784 294.251 597.997 293.345 597.597 292.585Z" fill="#1A3151"/>
<path d="M597.082 292.861C596.853 292.426 596.36 292.239 595.98 292.442C595.601 292.646 595.478 293.163 595.707 293.598C595.936 294.033 596.43 294.221 596.809 294.017C597.188 293.813 597.31 293.295 597.082 292.861Z" fill="#E1DEBA"/>
<path d="M596.685 293.796C596.353 293.974 595.922 293.81 595.721 293.43L586.59 276.079C583.538 270.282 576.939 267.773 571.88 270.488C566.82 273.202 565.186 280.127 568.237 285.925L577.369 303.275C577.57 303.655 577.463 304.108 577.131 304.286C576.799 304.464 576.367 304.3 576.167 303.92L567.035 286.57C563.584 280.012 565.432 272.18 571.155 269.11C576.878 266.04 584.341 268.877 587.792 275.435L596.924 292.784C597.124 293.165 597.017 293.618 596.685 293.796Z" fill="#292949"/>
<path d="M595.556 303.122C595.042 303.229 594.539 302.897 594.432 302.381L589.558 278.821C587.93 270.948 580.234 265.871 572.405 267.504C564.576 269.136 559.531 276.868 561.159 284.741L566.034 308.301C566.141 308.818 565.811 309.324 565.297 309.431C564.783 309.538 564.28 309.205 564.173 308.689L559.299 285.129C557.457 276.225 563.163 267.479 572.018 265.632C580.874 263.786 589.576 269.529 591.418 278.433L596.292 301.993C596.399 302.509 596.069 303.015 595.556 303.122Z" fill="#292949"/>
<path d="M626.439 368.464L621.765 364.604L611.935 288.442L615.197 289.713L620.143 289.746L626.439 368.464Z" fill="#E8D0D0"/>
<path d="M615.197 289.713L624.601 349.669L620.143 289.746L615.197 289.713Z" fill="#D9C2C2"/>
<path d="M540.051 303.428L611.989 288.43L623.492 364.421L549.475 378.786L540.051 303.428Z" fill="#D9C2C2"/>
<path d="M641.861 364.875L566.246 382.946L550.785 304.317L620.187 289.764L641.861 364.875Z" fill="#EED5D5"/>
<path d="M566.246 382.946L549.475 378.786L540.051 303.428L546.048 303.42L550.785 304.317L566.246 382.946Z" fill="#EED5D5"/>
<path d="M546.048 303.42L557.754 371.943L566.303 382.934L550.798 304.175L546.048 303.42Z" fill="#E8D0D0"/>
<path d="M549.47 378.809L557.754 371.943L566.303 382.934L549.47 378.809Z" fill="#D9C2C2"/>
<path d="M572.289 310.013C572.076 308.98 571.069 308.316 570.042 308.53C569.014 308.744 568.355 309.756 568.568 310.789C568.782 311.821 569.788 312.485 570.815 312.271C571.844 312.057 572.503 311.046 572.289 310.013Z" fill="#292949"/>
<path d="M571.492 310.179C571.369 309.588 570.795 309.209 570.207 309.332C569.621 309.454 569.243 310.032 569.365 310.622C569.487 311.213 570.063 311.592 570.65 311.47C571.237 311.348 571.614 310.77 571.492 310.179Z" fill="#D9C2C2"/>
<path d="M602.566 303.701C602.351 302.668 601.345 302.004 600.318 302.218C599.29 302.432 598.631 303.444 598.844 304.477C599.058 305.51 600.064 306.174 601.092 305.96C602.119 305.745 602.779 304.734 602.566 303.701Z" fill="#292949"/>
<path d="M601.768 303.868C601.646 303.277 601.071 302.897 600.483 303.02C599.897 303.142 599.52 303.72 599.642 304.311C599.763 304.901 600.339 305.28 600.926 305.158C601.513 305.036 601.89 304.458 601.768 303.868Z" fill="#D9C2C2"/>
<path d="M600.854 304.856C600.34 304.963 599.837 304.631 599.731 304.114L594.856 280.555C593.228 272.682 585.533 267.605 577.704 269.237C569.874 270.87 564.83 278.603 566.458 286.475L571.332 310.035C571.439 310.551 571.109 311.057 570.596 311.164C570.082 311.271 569.578 310.939 569.472 310.423L564.598 286.863C562.756 277.959 568.462 269.213 577.317 267.366C586.173 265.52 594.875 271.262 596.718 280.167L601.591 303.726C601.698 304.243 601.368 304.749 600.854 304.856Z" fill="#292949"/>
<path d="M367.796 239.938C367.334 239.928 366.957 239.548 366.953 239.091L366.776 218.217C366.717 211.242 360.947 205.442 353.914 205.288C346.882 205.133 341.208 210.682 341.267 217.657L341.445 238.531C341.448 238.988 341.078 239.352 340.616 239.341C340.155 239.331 339.777 238.952 339.773 238.494L339.596 217.621C339.529 209.732 345.946 203.455 353.9 203.63C361.854 203.805 368.38 210.365 368.448 218.254L368.625 239.128C368.628 239.585 368.258 239.948 367.796 239.938Z" fill="#292949"/>
<path d="M383.27 301.233L379.896 297.054L384.435 230.737L387.031 232.451L391.293 233.448L383.27 301.233Z" fill="#EED5D5"/>
<path d="M387.031 232.451L384.896 284.983L391.293 233.448L387.031 232.451Z" fill="#D9C2C2"/>
<path d="M319.864 229.319L384.483 230.737L381.417 297.238L315.113 294.877L319.864 229.319Z" fill="#D9C2C2"/>
<path d="M397.186 301.222L328.87 301.68L328.972 232.174L391.326 233.472L397.186 301.222Z" fill="#EED5D5"/>
<path d="M328.87 301.68L315.113 294.877L319.864 229.319L325.039 230.487L328.972 232.174L328.87 301.68Z" fill="#EED5D5"/>
<path d="M325.039 230.487L323.424 290.713L328.92 301.681L329.008 232.057L325.039 230.487Z" fill="#E8D0D0"/>
<path d="M315.105 294.894L323.424 290.714L328.921 301.681L315.105 294.894Z" fill="#D9C2C2"/>
<path d="M346.548 241.204C346.54 240.288 345.786 239.53 344.863 239.509C343.94 239.49 343.198 240.215 343.206 241.131C343.213 242.046 343.968 242.804 344.891 242.825C345.814 242.845 346.556 242.119 346.548 241.204Z" fill="#292949"/>
<path d="M345.832 241.188C345.827 240.665 345.396 240.232 344.869 240.22C344.342 240.209 343.918 240.623 343.922 241.147C343.927 241.67 344.358 242.103 344.885 242.114C345.412 242.126 345.837 241.712 345.832 241.188Z" fill="#D9C2C2"/>
<path d="M373.744 241.801C373.736 240.886 372.981 240.127 372.059 240.107C371.136 240.087 370.393 240.812 370.401 241.728C370.41 242.643 371.164 243.401 372.087 243.422C373.01 243.442 373.751 242.716 373.744 241.801Z" fill="#292949"/>
<path d="M373.028 241.785C373.023 241.262 372.592 240.829 372.064 240.817C371.537 240.806 371.113 241.22 371.118 241.744C371.122 242.267 371.553 242.7 372.08 242.712C372.608 242.723 373.032 242.309 373.028 241.785Z" fill="#D9C2C2"/>
<path d="M372.071 242.442C371.609 242.432 371.232 242.053 371.228 241.595L371.05 220.721C370.991 213.747 365.222 207.946 358.189 207.792C351.156 207.637 345.482 213.187 345.542 220.161L345.72 241.035C345.723 241.493 345.352 241.856 344.891 241.846C344.429 241.835 344.052 241.456 344.048 240.998L343.87 220.125C343.803 212.236 350.22 205.96 358.174 206.134C366.128 206.309 372.654 212.869 372.722 220.758L372.899 241.632C372.903 242.09 372.532 242.452 372.071 242.442Z" fill="#292949"/>
<path d="M551.517 100.539C551.014 100.546 550.6 100.218 550.592 99.8081L550.21 81.0723C550.082 74.8118 543.752 69.8036 536.099 69.9076C528.445 70.0115 522.323 75.1899 522.45 81.4504L522.833 100.186C522.841 100.596 522.44 100.935 521.938 100.942C521.436 100.948 521.022 100.621 521.014 100.21L520.631 81.4751C520.488 74.3942 527.412 68.5377 536.068 68.4201C544.724 68.3019 551.884 73.9672 552.028 81.0476L552.41 99.7834C552.418 100.194 552.019 100.533 551.517 100.539Z" fill="#292949"/>
<path d="M568.907 155.039L565.199 151.403L569.536 91.7037L572.377 93.1534L577.023 93.9015L568.907 155.039Z" fill="#D1CEDB"/>
<path d="M572.377 93.1534L570.529 140.392L577.023 93.9015L572.377 93.1534Z" fill="#D8D5E3"/>
<path d="M499.269 92.6597L569.589 91.7031L566.855 151.516L494.694 151.684L499.269 92.6597Z" fill="#CAC7D4"/>
<path d="M584.048 154.548L509.723 157.318L509.205 94.9088L577.058 93.9213L584.048 154.548Z" fill="#DDDAE8"/>
<path d="M509.723 157.318L494.694 151.684L499.269 92.6597L504.91 93.5297L509.205 94.9088L509.723 157.318Z" fill="#D8D5E3"/>
<path d="M504.91 93.5296L503.698 147.66L509.778 157.317L509.242 94.8018L504.91 93.5296Z" fill="#D1CEDB"/>
<path d="M494.685 151.7L503.698 147.66L509.778 157.317L494.685 151.7Z" fill="#CCC9D6"/>
<path d="M528.41 102.409C528.393 101.588 527.565 100.933 526.561 100.947C525.556 100.96 524.756 101.637 524.772 102.459C524.789 103.281 525.617 103.935 526.621 103.922C527.626 103.908 528.426 103.231 528.41 102.409Z" fill="#292949"/>
<path d="M527.63 102.42C527.621 101.95 527.148 101.576 526.574 101.584C525.999 101.592 525.543 101.979 525.552 102.448C525.561 102.918 526.034 103.292 526.608 103.284C527.182 103.276 527.64 102.889 527.63 102.42Z" fill="#CAC7D4"/>
<path d="M558.005 102.007C557.987 101.185 557.159 100.53 556.155 100.544C555.151 100.557 554.35 101.235 554.367 102.056C554.383 102.878 555.211 103.533 556.216 103.519C557.221 103.506 558.021 102.828 558.005 102.007Z" fill="#292949"/>
<path d="M557.225 102.018C557.215 101.548 556.742 101.174 556.168 101.181C555.594 101.189 555.137 101.576 555.146 102.046C555.156 102.515 555.629 102.889 556.203 102.881C556.777 102.874 557.234 102.487 557.225 102.018Z" fill="#CAC7D4"/>
<path d="M556.189 102.64C555.687 102.647 555.273 102.32 555.265 101.909L554.883 83.1736C554.756 76.9131 548.425 71.9043 540.772 72.0083C533.118 72.1128 526.996 77.2905 527.124 83.551L527.506 102.286C527.514 102.697 527.114 103.035 526.612 103.042C526.11 103.049 525.695 102.722 525.687 102.311L525.305 83.5758C525.161 76.4948 532.085 70.6383 540.741 70.5208C549.397 70.4032 556.557 76.0679 556.702 83.1488L557.084 101.884C557.092 102.295 556.691 102.633 556.189 102.64Z" fill="#292949"/>
<path d="M584.873 280.299C584.188 279.434 583.449 278.598 582.727 277.749C582.416 277.383 582.268 276.985 582.24 276.594C581.817 276.35 581.393 276.104 580.972 275.856C578.434 274.364 576.083 272.522 573.442 271.22C573.026 271.626 572.572 272 572.076 272.335C567.693 275.297 560.529 275.728 555.747 276.707L558.922 286.721C559.282 287.856 582.271 284.959 584.196 284.646C585.023 284.512 585.862 284.371 586.656 284.113C585.991 282.877 585.373 281.623 584.873 280.299Z" fill="#DDDAE8"/>
<path d="M115.555 281.914C115.108 281.8 114.831 281.318 114.939 280.838L119.81 258.943C121.438 251.627 117.217 244.258 110.402 242.517C103.586 240.775 96.7168 245.31 95.0893 252.626L90.2183 274.521C90.1112 275.001 89.6617 275.298 89.2147 275.184C88.7677 275.069 88.4916 274.588 88.5981 274.108L93.4697 252.212C95.3109 243.938 103.08 238.808 110.788 240.778C118.497 242.748 123.27 251.083 121.43 259.357L116.558 281.252C116.452 281.732 116.002 282.029 115.555 281.914Z" fill="#292949"/>
<path d="M115.821 349.567L113.544 344.433L133.992 276.018L136.108 278.397L140.019 280.398L115.821 349.567Z" fill="#D1CEDB"/>
<path d="M136.108 278.397L121.332 332.917L140.019 280.398L136.108 278.397Z" fill="#D8D5E3"/>
<path d="M71.4158 260.028L134.038 276.031L114.981 344.967L50.9444 327.6L71.4158 260.028Z" fill="#CAC7D4"/>
<path d="M129.384 352.681L62.7052 337.813L79.6008 265.064L140.045 280.43L129.384 352.681Z" fill="#DDDAE8"/>
<path d="M62.7052 337.813L50.9444 327.6L71.4158 260.028L76.176 262.414L79.6008 265.064L62.7052 337.813Z" fill="#D8D5E3"/>
<path d="M76.176 262.414L60.0486 325.108L62.7541 337.826L79.664 264.949L76.176 262.414Z" fill="#D1CEDB"/>
<path d="M50.9323 327.617L60.0486 325.108L62.7541 337.826L50.9323 327.617Z" fill="#CCC9D6"/>
<path d="M94.5451 278.467C94.7587 277.506 94.2065 276.543 93.3125 276.314C92.4179 276.086 91.5196 276.678 91.306 277.639C91.0924 278.599 91.644 279.562 92.5386 279.791C93.4332 280.02 94.3315 279.427 94.5451 278.467Z" fill="#292949"/>
<path d="M93.851 278.289C93.973 277.74 93.6579 277.189 93.1465 277.059C92.6352 276.928 92.1219 277.267 92 277.816C91.878 278.365 92.1931 278.916 92.7045 279.046C93.2152 279.177 93.7285 278.838 93.851 278.289Z" fill="#CAC7D4"/>
<path d="M120.9 285.201C121.114 284.241 120.562 283.277 119.668 283.048C118.773 282.82 117.875 283.413 117.661 284.373C117.447 285.333 117.999 286.297 118.894 286.526C119.788 286.754 120.687 286.161 120.9 285.201Z" fill="#292949"/>
<path d="M120.206 285.023C120.328 284.475 120.013 283.924 119.502 283.793C118.991 283.663 118.477 284.002 118.355 284.551C118.233 285.1 118.548 285.65 119.06 285.781C119.571 285.911 120.084 285.572 120.206 285.023Z" fill="#CAC7D4"/>
<path d="M119.115 285.496C118.668 285.382 118.392 284.9 118.498 284.42L123.37 262.526C124.998 255.21 120.777 247.84 113.962 246.099C107.146 244.357 100.277 248.893 98.649 256.209L93.778 278.103C93.6709 278.584 93.2221 278.88 92.7745 278.766C92.3275 278.652 92.0514 278.17 92.1585 277.689L97.0295 255.795C98.8707 247.52 106.64 242.39 114.349 244.36C122.057 246.33 126.831 254.665 124.99 262.94L120.118 284.834C120.011 285.314 119.562 285.611 119.115 285.496Z" fill="#292949"/>
<path d="M107.167 256.947C109.265 253.738 111.488 250.641 113.196 247.197C113.299 246.99 113.425 246.83 113.561 246.691L102.048 209.293L87.6212 211.882L96.8691 258.837L103.002 264.368C104.28 261.834 105.607 259.335 107.167 256.947Z" fill="#353A85"/>
<path d="M129.773 413.344C129.271 413.35 128.857 413.023 128.848 412.612L128.466 393.877C128.339 387.617 122.009 382.608 114.355 382.712C106.702 382.816 100.579 387.994 100.707 394.255L101.089 412.99C101.098 413.4 100.697 413.739 100.196 413.746C99.6928 413.753 99.2793 413.425 99.2706 413.014L98.8886 394.279C98.7444 387.198 105.669 381.342 114.325 381.224C122.981 381.107 130.141 386.771 130.285 393.852L130.667 412.587C130.676 412.998 130.275 413.337 129.773 413.344Z" fill="#292949"/>
<path d="M147.165 467.844L143.456 464.207L147.793 404.508L150.634 405.958L155.28 406.706L147.165 467.844Z" fill="#E8D0D0"/>
<path d="M150.634 405.958L148.786 453.197L155.28 406.706L150.634 405.958Z" fill="#D9C2C2"/>
<path d="M77.5263 405.464L147.846 404.507L145.112 464.32L72.9506 464.489L77.5263 405.464Z" fill="#D9C2C2"/>
<path d="M162.305 467.352L87.9796 470.123L87.4614 407.713L155.315 406.726L162.305 467.352Z" fill="#EED5D5"/>
<path d="M87.9796 470.123L72.9506 464.489L77.5263 405.464L83.1668 406.334L87.4614 407.713L87.9796 470.123Z" fill="#EED5D5"/>
<path d="M83.1668 406.334L81.9559 460.464L88.0347 470.121L87.4992 407.606L83.1668 406.334Z" fill="#E8D0D0"/>
<path d="M72.9425 464.505L81.9559 460.464L88.0347 470.121L72.9425 464.505Z" fill="#D9C2C2"/>
<path d="M106.666 415.214C106.65 414.392 105.822 413.737 104.818 413.751C103.813 413.764 103.012 414.442 103.029 415.264C103.046 416.085 103.874 416.74 104.878 416.726C105.882 416.713 106.684 416.035 106.666 415.214Z" fill="#292949"/>
<path d="M105.887 415.225C105.877 414.755 105.405 414.381 104.831 414.389C104.257 414.396 103.799 414.783 103.808 415.252C103.818 415.722 104.291 416.096 104.865 416.088C105.439 416.081 105.897 415.694 105.887 415.225Z" fill="#D9C2C2"/>
<path d="M136.261 414.811C136.245 413.99 135.417 413.334 134.412 413.348C133.408 413.362 132.607 414.039 132.624 414.861C132.64 415.682 133.469 416.337 134.473 416.323C135.477 416.31 136.278 415.633 136.261 414.811Z" fill="#292949"/>
<path d="M135.482 414.822C135.472 414.352 135 413.978 134.425 413.986C133.851 413.994 133.394 414.381 133.403 414.85C133.413 415.32 133.886 415.694 134.46 415.686C135.034 415.678 135.491 415.291 135.482 414.822Z" fill="#D9C2C2"/>
<path d="M134.446 415.445C133.944 415.452 133.53 415.124 133.522 414.713L133.14 395.978C133.012 389.717 126.682 384.709 119.029 384.813C111.376 384.917 105.253 390.095 105.381 396.356L105.763 415.091C105.771 415.502 105.371 415.84 104.869 415.847C104.367 415.854 103.953 415.527 103.944 415.116L103.562 396.381C103.417 389.3 110.342 383.443 118.999 383.326C127.655 383.207 134.814 388.873 134.959 395.953L135.341 414.688C135.349 415.099 134.949 415.438 134.446 415.445Z" fill="#292949"/>
<path d="M185.65 181.304L74.0445 209.726C71.7315 210.315 69.3536 208.893 68.7599 206.565L50.9599 136.746C50.3664 134.419 51.7736 132.033 54.0867 131.444L165.692 103.021C168.006 102.432 170.383 103.855 170.977 106.182L188.777 176.001C189.371 178.329 187.963 180.715 185.65 181.304Z" fill="#8CABEF"/>
<path d="M87.2596 168.448L67.3923 173.507C67.0822 173.587 66.764 173.398 66.6847 173.088L62.9652 158.498C62.8866 158.188 63.0754 157.87 63.385 157.791L83.2522 152.732C83.5624 152.653 83.8806 152.842 83.9592 153.151L87.6793 167.742C87.758 168.051 87.5691 168.369 87.2596 168.448Z" fill="#BABCBE"/>
<path d="M69.6155 172.941L85.0414 169.013C85.034 169.015 85.0266 169.017 85.0191 169.019L69.6323 172.937C69.6267 172.939 69.6211 172.94 69.6155 172.941ZM85.4705 159.077L85.4661 159.061L85.4705 159.077Z" fill="#819DDC"/>
<path d="M68.9302 173.025C68.3742 173.025 67.8381 172.862 67.3793 172.572C72.8459 170.052 81.6017 165.27 85.4661 159.061L85.4704 159.077L87.1036 165.483C87.4973 167.028 86.5705 168.611 85.0414 169.013L69.6155 172.941C69.3864 172.998 69.1567 173.025 68.9302 173.025Z" fill="#ABADAF"/>
<path d="M94.4317 180.542L70.1615 186.723L68.1835 178.965L92.4537 172.784L94.4317 180.542Z" fill="white"/>
<path d="M121.504 173.648L97.2332 179.829L95.2558 172.071L119.526 165.89L121.504 173.648Z" fill="white"/>
<path d="M148.576 166.753L124.305 172.934L122.327 165.177L146.598 158.996L148.576 166.753Z" fill="white"/>
<path d="M175.648 159.859L151.378 166.04L149.4 158.282L173.67 152.101L175.648 159.859Z" fill="white"/>
<path d="M67.8523 147.336C67.3057 148.18 66.6079 148.7 65.7202 148.926C63.887 149.393 62.0124 148.271 61.5419 146.425C61.0718 144.58 62.1802 142.699 64.014 142.232C64.9079 142.004 65.7932 142.13 66.6445 142.606L66.8221 142.706L67.4697 141.681L67.2896 141.566C66.2693 140.917 64.9302 140.716 63.7063 141.027C61.2111 141.662 59.7014 144.221 60.3415 146.732C60.9814 149.242 63.5323 150.767 66.0279 150.131C67.2512 149.82 68.3334 148.997 68.924 147.93L69.0292 147.739L67.9594 147.172L67.8523 147.336Z" fill="#F3F3F3"/>
<path d="M72.7048 141.588C72.8948 142.332 72.4429 143.092 71.6981 143.281L70.1671 143.671L69.4768 140.961L71.0072 140.571C71.7396 140.385 72.5172 140.85 72.7048 141.588ZM73.9058 141.282C73.5449 139.867 72.1067 139.008 70.6995 139.366L67.9681 140.062L70.2315 148.94L71.4325 148.634L70.4748 144.877L71.7755 144.546L74.5955 147.829L75.9457 147.485L72.9586 144.024C73.7783 143.392 74.1652 142.3 73.9058 141.282Z" fill="#F3F3F3"/>
<path d="M76.4113 147.366L81.1114 146.17L80.8037 144.964L77.3381 145.847L76.4949 142.538L79.5228 141.767L79.2158 140.562L76.1878 141.334L75.6894 139.379L79.1545 138.497L78.8474 137.291L74.1479 138.488L76.4113 147.366Z" fill="#F3F3F3"/>
<path d="M83.9382 144.166L83.0467 144.393L81.3974 137.925L82.2889 137.699C84.4161 137.156 85.9354 138.017 86.4548 140.057C86.9755 142.097 86.0344 143.632 83.9382 144.166ZM81.9812 136.493L79.8893 137.026L82.1534 145.904L84.2453 145.372C87.0083 144.668 88.3467 142.462 87.6558 139.752C86.9717 137.069 84.7442 135.789 81.9812 136.493Z" fill="#F3F3F3"/>
<path d="M89.723 143.976L90.924 143.671L88.6606 134.792L87.4596 135.098L89.723 143.976Z" fill="#F3F3F3"/>
<path d="M89.4493 135.875L91.6583 135.312L93.6146 142.985L94.8156 142.679L92.8593 135.006L95.0571 134.446L94.75 133.241L89.1417 134.669L89.4493 135.875Z" fill="#F3F3F3"/>
<path d="M106.897 137.255L106.789 137.42C106.243 138.263 105.546 138.784 104.658 139.01C102.825 139.477 100.95 138.355 100.48 136.51C100.009 134.664 101.118 132.783 102.951 132.316C103.846 132.088 104.731 132.214 105.582 132.69L105.759 132.79L106.407 131.765L106.227 131.65C105.207 131 103.867 130.799 102.644 131.111C100.149 131.746 98.6391 134.305 99.2786 136.816C99.9188 139.326 102.47 140.85 104.966 140.215C106.188 139.904 107.271 139.081 107.862 138.014L107.967 137.823L106.897 137.255Z" fill="#F3F3F3"/>
<path d="M113.056 133.927L110.45 134.591L111.059 131.518L113.056 133.927ZM110.235 129.298L108.263 139.255L109.598 138.915L110.178 135.943L113.942 134.985L115.886 137.314L117.209 136.976L110.721 129.174L110.235 129.298Z" fill="#F3F3F3"/>
<path d="M120.154 129.504C120.344 130.248 119.893 131.008 119.148 131.198L117.617 131.588L116.926 128.878L118.456 128.488C119.189 128.301 119.966 128.767 120.154 129.504ZM121.355 129.198C120.994 127.784 119.556 126.924 118.149 127.282L115.418 127.978L117.681 136.856L118.882 136.551L117.924 132.793L119.225 132.461L122.045 135.745L123.395 135.402L120.408 131.94C121.227 131.308 121.614 130.216 121.355 129.198Z" fill="#F3F3F3"/>
<path d="M128.163 129.436C128.682 131.475 127.742 133.011 125.646 133.545L124.754 133.772L123.106 127.304L123.996 127.076C126.124 126.535 127.642 127.395 128.163 129.436ZM123.689 125.871L121.597 126.404L123.86 135.283L125.953 134.75C128.716 134.047 130.054 131.84 129.363 129.13C128.679 126.447 126.452 125.168 123.689 125.871Z" fill="#F3F3F3"/>
<path d="M177.656 167.734L126.313 180.809L125.714 178.459L177.057 165.383L177.656 167.734Z" fill="white"/>
</svg>
