<svg width="259" height="191" viewBox="0 0 259 191" fill="none" xmlns="http://www.w3.org/2000/svg">
<path d="M180.808 163.536C193.72 144.308 215.628 131.385 238.728 129.371C238.375 145.122 229.677 160.015 216.485 168.661C203.293 177.306 185.798 179.008 171.182 173.068C174.455 170.236 178.396 167.128 180.808 163.536Z" fill="#85D3A6"/>
<path d="M235.083 123.644C220.623 119.678 204.855 121.962 192.355 130.319C191.116 131.147 192.371 133.096 193.616 132.263C205.234 124.496 219.687 122.241 233.19 125.546C223.952 145.316 210.682 167.595 186.897 170.608C185.426 170.794 185.518 173.109 187.002 172.921C212.24 169.724 226.189 146.266 235.853 125.312C236.175 124.613 235.831 123.849 235.083 123.644Z" fill="#5C9B77"/>
<path d="M224.212 138.795C222.54 143.182 218.8 146.498 214.71 148.809C210.62 151.119 206.118 152.582 201.794 154.417C191.265 158.887 181.742 165.679 174.037 174.119C173.134 175.104 172.258 176.11 171.416 177.138H166.548C166.662 175.027 166.77 172.919 166.425 170.904C158.798 162.2 153.3 151.646 150.547 140.415C150 138.19 149.56 135.88 149.95 133.622C150.341 131.367 151.724 129.158 153.875 128.367C155.461 127.782 157.155 128.032 158.861 128.282C160.279 128.489 161.705 128.697 163.085 128.425C166.275 127.799 168.475 124.697 169.204 121.535C169.932 118.368 169.523 115.07 169.415 111.824C168.899 96.0243 176.084 80.1508 188.306 70.097C192.47 66.6733 197.335 63.8449 202.685 63.1513C208.035 62.4611 213.917 64.2374 217.147 68.5511C221.486 74.3463 219.919 82.7493 216.265 88.9958C212.608 95.2391 207.187 100.307 203.512 106.541C201.462 110.017 200.008 114.478 202.018 117.979C203.708 120.927 207.264 122.154 210.644 122.774C210.816 122.805 210.991 122.835 211.164 122.863C213.364 123.231 215.666 123.495 217.77 124.176C219.043 124.587 220.241 125.149 221.305 125.98C223.186 127.443 224.335 129.594 224.793 131.932C225.238 134.196 225.032 136.635 224.212 138.795Z" fill="#6FB28E"/>
<path d="M173.251 169.288C174.043 136.93 184.036 104.994 201.843 77.9435C202.654 76.7113 200.889 75.206 200.069 76.4511C181.89 104.067 171.748 136.448 170.94 169.485C170.903 170.972 173.215 170.764 173.251 169.288Z" fill="#85D3A6"/>
<path d="M225.023 178.507C225.023 179.37 179.188 180.069 122.648 180.069C66.1072 180.069 20.2722 179.37 20.2722 178.507C20.2722 177.645 66.1072 176.946 122.648 176.946C179.188 176.946 225.023 177.645 225.023 178.507Z" fill="#69AFD1"/>
<path d="M219.734 173.35C218.867 174.895 217.775 175.906 216.514 176.413C216.395 176.458 216.272 176.504 216.152 176.545L216.137 176.551C199.712 182.399 181.619 174.716 174.349 159.108C173.85 158.039 172.923 157.244 171.79 156.91L171.772 156.905C171.189 156.735 170.568 156.511 170.229 156.007C169.926 155.557 169.912 154.96 170.067 154.439C170.222 153.918 170.528 153.459 170.823 153.004C170.872 152.929 170.921 152.854 170.97 152.78C171.512 151.957 171.726 150.964 171.576 149.99C169.234 134.851 177.564 119.625 192.309 113.723L192.324 113.718C192.442 113.669 192.564 113.622 192.683 113.577C197.913 111.736 205.872 118.219 212.563 130.629C220.984 146.267 224.196 165.392 219.734 173.35Z" fill="#F9CB08"/>
<path d="M219.734 173.35C218.867 174.895 217.775 175.906 216.514 176.413C216.394 176.466 216.274 176.508 216.152 176.545L216.137 176.551C210.905 178.219 203.032 171.746 196.408 159.447C187.984 143.814 184.772 124.688 189.233 116.727C190.067 115.241 191.11 114.248 192.309 113.723L192.324 113.718C192.442 113.669 192.564 113.622 192.683 113.577C197.913 111.736 205.872 118.219 212.563 130.629C220.984 146.267 224.196 165.392 219.734 173.35Z" fill="#FFE317"/>
<path d="M218.086 170.289C222.065 163.191 219.2 146.133 211.688 132.188C204.176 118.242 194.861 112.691 190.882 119.789C186.903 126.887 189.768 143.945 197.28 157.891C204.792 171.836 214.107 177.387 218.086 170.289Z" fill="#FFF5CC"/>
<path d="M207.891 127.809L207.845 127.755C207.244 127.045 206.707 127.109 206.608 127.899L205.471 142.618C205.382 143.323 206.019 144.505 206.408 144.359L213.944 141.517C214.379 141.353 214.425 140.376 214.047 139.269C214.037 139.241 214.028 139.213 214.018 139.185C212.5 134.768 210.287 130.661 207.891 127.809Z" fill="#FFE317"/>
<path d="M204.047 145.158L195.025 148.561C194.589 148.726 194.543 149.703 194.921 150.81C194.93 150.837 194.94 150.865 194.95 150.894C196.469 155.31 198.681 159.418 201.077 162.269L201.123 162.323C201.724 163.034 202.261 162.97 202.36 162.18L204.984 146.898C205.073 146.194 204.436 145.012 204.047 145.158Z" fill="#FFE317"/>
<path d="M203.635 142.706C204.165 143.4 204.502 142.798 204.131 141.82L196.236 120.994C195.82 119.897 195.139 119.107 194.67 119.18L194.634 119.186C192.77 119.498 190.854 121.87 190.645 125.257C190.644 125.278 190.643 125.3 190.641 125.321C190.592 126.173 191.013 127.428 191.607 128.207L203.635 142.706Z" fill="#FFE317"/>
<path d="M206.82 146.81C206.29 146.116 205.953 146.718 206.323 147.696L214.219 168.522C214.635 169.619 215.316 170.409 215.785 170.336L215.82 170.331C217.685 170.018 218.345 167.697 218.554 164.31C218.555 164.289 218.556 164.267 218.558 164.245C218.607 163.393 218.186 162.139 217.592 161.36L206.82 146.81Z" fill="#FFE317"/>
<path d="M205.287 142.398L205.187 125.604C205.201 124.712 204.752 123.463 204.153 122.732L204.107 122.676C201.714 119.775 198.949 118.489 197.107 118.867L197.072 118.875C196.613 118.975 197.273 119.627 197.623 120.736L204.274 141.794C204.586 142.783 205.275 143.193 205.287 142.398Z" fill="#FFE317"/>
<path d="M205.167 147.118L204.153 164.334C204.139 165.226 204.588 166.475 205.187 167.206L205.233 167.261C207.625 170.163 210.762 171.309 212.604 170.93L212.639 170.923C213.099 170.822 213.181 169.89 212.831 168.781L206.181 147.722C205.869 146.734 205.18 146.323 205.167 147.118Z" fill="#FFE317"/>
<path d="M193.877 145.257L203.93 144.82C204.367 144.813 204.155 143.551 203.618 142.964L191.437 130.726C190.835 130.067 190.321 130.199 190.257 131.033L190.252 131.097C190.007 134.44 190.743 138.823 192.29 143.234C192.3 143.262 192.309 143.291 192.319 143.318C192.709 144.423 193.387 145.265 193.877 145.257Z" fill="#FFE317"/>
<path d="M215.091 144.822L206.525 144.696C206.088 144.703 206.3 145.965 206.837 146.553L217.531 159.352C218.133 160.012 218.647 159.879 218.711 159.045C218.713 159.024 218.715 159.003 218.716 158.982C218.961 155.638 218.225 151.255 216.678 146.844C216.668 146.816 216.658 146.788 216.649 146.76C216.259 145.655 215.581 144.814 215.091 144.822Z" fill="#FFE317"/>
<path d="M203.572 134.318C203.74 134.295 203.927 134.557 204.066 135.004C204.207 135.451 204.301 136.083 204.347 136.789C204.393 137.495 204.393 138.14 204.384 138.608C204.372 139.076 204.35 139.368 204.288 139.377C204.226 139.385 204.124 139.111 203.983 138.664C203.843 138.217 203.665 137.597 203.513 136.906C203.362 136.215 203.276 135.583 203.288 135.114C203.298 134.646 203.404 134.342 203.572 134.318Z" fill="#FFF3AC"/>
<path d="M204.343 128.542C204.513 128.531 204.676 128.762 204.775 129.147C204.877 129.531 204.915 130.069 204.899 130.666C204.883 131.264 204.827 131.807 204.777 132.201C204.724 132.595 204.677 132.84 204.614 132.844C204.552 132.848 204.474 132.611 204.372 132.226C204.273 131.842 204.15 131.31 204.059 130.719C203.968 130.129 203.939 129.59 203.991 129.196C204.041 128.802 204.174 128.552 204.343 128.542Z" fill="#FFF3AC"/>
<path d="M197.435 130.945C197.585 130.865 197.829 131.007 198.08 131.316C198.333 131.623 198.592 132.095 198.827 132.645C199.062 133.195 199.238 133.712 199.357 134.091C199.473 134.471 199.532 134.713 199.477 134.743C199.422 134.772 199.253 134.589 199 134.282C198.749 133.974 198.415 133.541 198.085 133.042C197.756 132.543 197.505 132.066 197.388 131.686C197.27 131.307 197.286 131.025 197.435 130.945Z" fill="#FFF3AC"/>
<path d="M197.387 139.195C197.488 139.058 197.771 139.084 198.129 139.256C198.489 139.426 198.925 139.744 199.371 140.142C199.818 140.539 200.198 140.933 200.467 141.225C200.735 141.52 200.891 141.713 200.854 141.764C200.817 141.814 200.585 141.721 200.225 141.55C199.867 141.377 199.38 141.128 198.87 140.816C198.359 140.505 197.929 140.18 197.661 139.885C197.392 139.593 197.286 139.331 197.387 139.195Z" fill="#FFF3AC"/>
<path d="M206.042 153.891C205.872 153.902 205.71 153.67 205.612 153.285C205.511 152.9 205.474 152.363 205.492 151.765C205.509 151.168 205.566 150.625 205.617 150.231C205.671 149.837 205.719 149.593 205.782 149.589C205.844 149.585 205.921 149.822 206.022 150.207C206.12 150.592 206.242 151.124 206.332 151.715C206.421 152.306 206.449 152.844 206.395 153.238C206.344 153.631 206.212 153.881 206.042 153.891Z" fill="#FFF3AC"/>
<path d="M212.568 146.169C212.567 146.338 212.324 146.484 211.933 146.556C211.542 146.63 211.002 146.631 210.407 146.574C209.811 146.516 209.272 146.423 208.882 146.345C208.491 146.265 208.25 146.201 208.251 146.139C208.251 146.076 208.493 146.015 208.884 145.941C209.276 145.869 209.816 145.783 210.412 145.733C211.009 145.684 211.548 145.692 211.939 145.772C212.329 145.85 212.569 145.999 212.568 146.169Z" fill="#FFF3AC"/>
<path d="M215.435 153.477C215.323 153.604 215.044 153.556 214.701 153.354C214.357 153.155 213.948 152.803 213.536 152.369C213.124 151.936 212.778 151.513 212.534 151.199C212.291 150.884 212.151 150.678 212.192 150.631C212.234 150.584 212.457 150.696 212.801 150.896C213.144 151.097 213.609 151.386 214.092 151.738C214.575 152.091 214.977 152.45 215.22 152.766C215.464 153.079 215.548 153.35 215.435 153.477Z" fill="#FFF3AC"/>
<path d="M197.822 148.867C197.753 148.712 197.912 148.479 198.238 148.251C198.563 148.02 199.053 147.796 199.619 147.601C200.185 147.405 200.714 147.266 201.101 147.175C201.489 147.085 201.735 147.043 201.761 147.101C201.786 147.158 201.591 147.314 201.267 147.544C200.941 147.772 200.486 148.074 199.964 148.367C199.442 148.66 198.948 148.876 198.56 148.966C198.173 149.057 197.892 149.022 197.822 148.867Z" fill="#FFF3AC"/>
<path d="M200.777 158.855C200.616 158.8 200.57 158.475 200.651 158.002C200.73 157.529 200.936 156.907 201.219 156.239C201.502 155.571 201.798 154.98 202.02 154.555C202.246 154.13 202.399 153.872 202.459 153.892C202.518 153.913 202.483 154.21 202.404 154.684C202.323 155.157 202.198 155.806 202.016 156.508C201.835 157.211 201.62 157.829 201.395 158.254C201.172 158.678 200.938 158.909 200.777 158.855Z" fill="#FFF3AC"/>
<path d="M215.659 163.169C215.511 163.253 215.237 163.072 214.936 162.698C214.632 162.325 214.302 161.76 213.988 161.106C213.674 160.452 213.426 159.839 213.254 159.391C213.085 158.941 212.993 158.656 213.048 158.625C213.102 158.593 213.302 158.817 213.606 159.189C213.907 159.563 214.311 160.087 214.718 160.688C215.125 161.289 215.448 161.858 215.617 162.308C215.788 162.757 215.806 163.084 215.659 163.169Z" fill="#FFF3AC"/>
<path d="M205.441 164.514C205.271 164.509 205.132 164.212 205.071 163.736C205.008 163.26 205.024 162.605 205.099 161.884C205.174 161.162 205.283 160.511 205.372 160.039C205.464 159.568 205.535 159.276 205.597 159.278C205.66 159.28 205.714 159.575 205.777 160.051C205.838 160.527 205.908 161.184 205.94 161.909C205.972 162.634 205.948 163.288 205.856 163.759C205.767 164.231 205.611 164.519 205.441 164.514Z" fill="#FFF3AC"/>
<path d="M209.234 161.402C209.068 161.437 208.863 161.18 208.694 160.731C208.521 160.282 208.384 159.642 208.289 158.923C208.194 158.204 208.148 157.545 208.126 157.066C208.105 156.586 208.106 156.286 208.167 156.273C208.229 156.26 208.35 156.535 208.522 156.983C208.692 157.432 208.913 158.055 209.112 158.753C209.312 159.45 209.441 160.092 209.462 160.572C209.485 161.051 209.4 161.368 209.234 161.402Z" fill="#FFF3AC"/>
<path d="M194.155 143.79C194.15 143.62 194.387 143.465 194.775 143.379C195.163 143.29 195.702 143.27 196.3 143.305C196.897 143.341 197.44 143.414 197.832 143.478C198.225 143.543 198.469 143.599 198.47 143.661C198.472 143.723 198.232 143.793 197.844 143.882C197.456 143.968 196.919 144.074 196.325 144.145C195.731 144.216 195.191 144.228 194.798 144.163C194.405 144.099 194.16 143.959 194.155 143.79Z" fill="#FFF3AC"/>
<path d="M195.059 121.587C195.222 121.538 195.433 121.726 195.619 122.078C195.806 122.429 195.967 122.943 196.089 123.528C196.21 124.113 196.281 124.654 196.323 125.05C196.362 125.445 196.372 125.694 196.312 125.712C196.252 125.73 196.123 125.518 195.935 125.167C195.75 124.815 195.507 124.326 195.283 123.772C195.059 123.218 194.906 122.701 194.867 122.305C194.825 121.91 194.897 121.637 195.059 121.587Z" fill="#FFF3AC"/>
<path d="M200.933 126.196C201.1 126.164 201.29 126.373 201.438 126.741C201.588 127.11 201.694 127.638 201.754 128.233C201.815 128.827 201.828 129.373 201.829 129.77C201.827 130.168 201.811 130.416 201.75 130.428C201.688 130.44 201.581 130.215 201.431 129.847C201.283 129.478 201.093 128.966 200.928 128.392C200.762 127.817 200.665 127.287 200.667 126.89C200.666 126.493 200.766 126.228 200.933 126.196Z" fill="#FFF3AC"/>
<path d="M207.14 138.226C207.308 138.25 207.42 138.51 207.439 138.906C207.461 139.303 207.389 139.837 207.252 140.419C207.115 141 206.95 141.521 206.82 141.897C206.689 142.272 206.593 142.502 206.531 142.493C206.469 142.485 206.441 142.237 206.419 141.84C206.4 141.443 206.388 140.897 206.419 140.3C206.45 139.704 206.53 139.171 206.662 138.796C206.791 138.42 206.972 138.202 207.14 138.226Z" fill="#FFF3AC"/>
<path d="M212.882 140C212.951 140.155 212.789 140.387 212.462 140.613C212.136 140.841 211.644 141.063 211.077 141.254C210.51 141.445 209.98 141.58 209.592 141.669C209.204 141.756 208.957 141.796 208.932 141.739C208.907 141.682 209.102 141.527 209.429 141.299C209.756 141.074 210.214 140.774 210.737 140.485C211.261 140.196 211.757 139.982 212.145 139.896C212.533 139.807 212.814 139.844 212.882 140Z" fill="#FFF3AC"/>
<path d="M210.096 132.635C210.261 132.676 210.346 132.946 210.324 133.343C210.304 133.74 210.177 134.263 209.98 134.828C209.783 135.392 209.565 135.893 209.398 136.253C209.228 136.613 209.108 136.832 209.047 136.816C208.986 136.801 208.985 136.552 209.004 136.155C209.027 135.759 209.071 135.214 209.164 134.624C209.256 134.033 209.392 133.512 209.562 133.152C209.73 132.792 209.932 132.594 210.096 132.635Z" fill="#FFF3AC"/>
<path d="M89.2936 66.9102C88.3838 66.9102 87.8857 66.8641 87.8761 66.7669C87.8543 66.5403 90.4948 66.0779 94.8186 65.507C94.6656 65.9045 94.5233 66.3052 94.392 66.7089C92.1638 66.84 90.4161 66.9102 89.2936 66.9102ZM106.436 65.8012L106.188 64.176C108.455 63.9351 110.853 63.6918 113.335 63.4523C124.523 62.3729 134.054 61.6949 137.541 61.6949C138.451 61.6949 138.949 61.741 138.958 61.8382C139.004 62.3078 127.605 63.7916 113.5 65.153C111.05 65.3893 108.681 65.6063 106.436 65.8012Z" fill="#DDEDF4"/>
<path d="M141.075 144.074C143.493 146.625 146.418 148.694 149.63 150.125C149.979 150.281 150.337 150.433 150.63 150.679C150.923 150.925 151.145 151.286 151.125 151.667C151.092 152.274 150.498 152.681 149.945 152.934C147.298 154.15 144.036 154.057 141.568 152.511C139.1 150.965 137.578 147.949 138 145.07C139.113 144.675 139.962 144.47 141.075 144.074Z" fill="#17172B"/>
<path d="M68.1751 148.24C66.0531 151.04 64.4905 154.261 63.6045 157.66C63.5083 158.029 63.4175 158.407 63.2226 158.736C63.0279 159.064 62.7077 159.343 62.3277 159.386C61.7231 159.454 61.223 158.935 60.8813 158.433C59.2441 156.026 58.7997 152.799 59.9211 150.114C61.0422 147.429 63.7716 145.434 66.685 145.376C67.2592 146.407 67.6009 147.209 68.1751 148.24Z" fill="#17172B"/>
<path d="M106.163 64.0096L108.018 76.1813C108.018 76.1813 133.787 99.1452 141.413 143.958C141.413 143.958 139.746 145.584 137.361 145.666C137.361 145.666 118.947 118.074 107.269 101.076L102.97 116.359C102.97 116.359 85.145 137.726 68.0151 148.805C68.0151 148.805 65.7501 148.321 65.3338 145.585L93.682 111.598C93.682 111.598 87.9988 77.7604 95.9895 63.3664C95.9895 63.3664 102.063 64.8185 106.163 64.0096Z" fill="#374D88"/>
<path d="M81.7596 75.3163C80.7552 74.914 79.8026 74.3802 78.9362 73.7286C78.4641 73.3808 77.9965 72.9685 77.8356 72.4019C77.7129 71.9815 77.7787 71.5386 77.8464 71.1021C77.9525 70.4277 78.4722 68.2214 78.5808 67.5424L79.9451 67.2798C81.1309 67.9239 83.5991 70.0359 84.5139 71.0071C84.5995 71.0967 84.5644 71.2452 84.4491 71.2874C83.8285 71.5102 83.4741 71.3368 82.2326 70.4824C82.4383 71.8981 82.6464 73.3094 82.8508 74.7218C82.8757 74.8722 82.8958 75.0317 82.8353 75.1702C82.6741 75.5381 82.1315 75.4651 81.7596 75.3163Z" fill="#FFA59D"/>
<path d="M96.9803 78.8322C96.871 78.8322 96.7569 78.7667 96.7091 78.6767C96.6718 78.6063 96.6799 78.5313 96.7328 78.4537C96.9935 78.0691 97.2637 77.6826 97.5361 77.2922C99.5282 74.4396 101.588 71.4896 101.279 67.9139C101.273 67.8449 101.287 67.7907 101.322 67.753C101.361 67.7107 101.426 67.6863 101.5 67.6863C101.638 67.6863 101.793 67.7697 101.809 67.9523C102.125 71.6052 100.005 74.6581 97.9546 77.6105C97.6975 77.9805 97.4426 78.3475 97.1948 78.7128C97.141 78.792 97.069 78.8322 96.9803 78.8322Z" fill="#1E325E"/>
<path d="M100.246 22.8875C99.1315 20.1433 96.4181 18.994 93.4705 19.3242C90.5228 19.6544 87.9337 21.954 87.1278 24.804C86.4395 27.2373 86.9193 29.992 85.6991 32.2078C84.4345 34.5049 81.6917 34.6359 79.2301 35.547C76.7685 36.4581 74.0939 37.6349 73.0296 40.0305C72.1295 42.057 72.659 44.4593 73.6959 46.4192C75.0866 49.0471 77.3721 51.1928 80.0848 52.4171C82.7977 53.6414 85.921 53.937 88.816 53.2432C90.8121 52.7647 92.7375 51.7925 94.0677 50.2316C96.0335 47.9243 96.475 44.663 98.2076 42.1761C100.3 39.1734 104.161 37.4508 105.408 34.0114C106.136 32.0016 105.794 29.706 104.805 27.8101C103.817 25.9144 101.985 24.1352 100.246 22.8875Z" fill="#2F335B"/>
<path d="M96.563 44.4648C96.563 44.4648 102.394 51.767 109.618 57.1121C111.061 58.1791 113.021 58.2125 114.502 57.1995C118.151 54.7017 124.97 49.3088 129.049 41.5671L127.299 40.2237C127.299 40.2237 119.555 47.8317 112.53 51.3205L100.743 40.3784L96.563 44.4648Z" fill="#FFA59D"/>
<path d="M105.012 52.5405L107.365 46.5107L102.355 41.4847L105.012 52.5405Z" fill="#688AE0"/>
<path d="M100.079 39.9059C99.9659 39.9892 100.25 40.6899 100.131 40.7644C99.2124 41.3436 98.3017 41.611 97.2169 41.5833L97.1523 41.5805C95.9781 40.7398 94.7835 39.6764 94.1067 39.0514C94.1299 38.7293 94.1488 38.4068 94.1596 38.0859C94.1656 37.945 94.1701 37.8053 94.173 37.6657C94.1775 37.4639 94.1821 37.2624 94.1821 37.0628L94.1816 37.044C94.1799 36.8121 94.1756 36.5798 94.1684 36.3487C94.1383 35.3121 94.0553 34.7746 93.9015 33.7487C93.892 33.6871 93.8853 33.6246 93.8731 33.5639C93.8293 33.2719 93.7772 32.9809 93.7188 32.6889L93.7191 32.6861C93.5299 31.7103 93.2838 30.7379 92.9789 29.7855C94.6749 30.3568 96.3595 31.0115 97.7203 32.1716C97.759 32.4707 97.8057 32.7734 97.8583 33.0704C97.9068 33.3679 97.9621 33.6649 98.0257 33.9617C98.0463 34.0582 98.0649 34.1572 98.0888 34.2475C98.1641 34.5965 98.2471 34.937 98.3394 35.2784C98.3459 35.3049 98.3538 35.3326 98.3603 35.3601C98.4318 35.6186 98.5023 35.877 98.581 36.1319C98.6396 36.3244 98.6987 36.5128 98.7632 36.7002L98.7711 36.7267C99.2623 38.2002 99.3032 38.5428 100.079 39.9059Z" fill="#FFA59D"/>
<path d="M98.7716 36.7269C95.4409 36.5546 94.2054 33.3097 94.2054 33.3097L97.8578 33.0707C97.9073 33.368 97.9623 33.665 98.0256 33.9617C98.0467 34.0579 98.0651 34.157 98.0888 34.2475C98.1641 34.5966 98.2476 34.9373 98.3394 35.278C98.3456 35.3052 98.3542 35.3329 98.3602 35.3603C98.4312 35.6184 98.502 35.8765 98.5814 36.1315C98.64 36.3239 98.6989 36.513 98.7629 36.6995L98.7716 36.7269Z" fill="#F17785"/>
<path d="M90.9561 39.3596C90.9561 39.3596 81.8156 41.2419 73.7782 45.2457C72.1622 46.0506 71.2269 47.7791 71.4634 49.5664C72.0429 53.9456 73.7744 62.457 78.8441 69.592L80.8362 68.6418C80.8362 68.6418 77.5443 58.3051 77.607 50.4725L92.7151 44.9304L90.9561 39.3596Z" fill="#FFA59D"/>
<path d="M106.126 51.6997C106.09 52.7342 106.025 53.7737 106.003 54.8079L106.003 54.8172C105.744 57.8854 105.755 60.9672 106.038 64.0289C104.681 64.2479 103.235 64.3398 101.739 64.2889C99.6811 64.2257 97.7375 63.8969 95.9914 63.3676C95.5253 59.8024 94.298 56.2717 92.3446 53.115C91.7843 52.2123 91.1718 51.3301 90.5881 50.4374C90.034 49.597 89.5229 49.2245 89.1068 48.3333C87.5975 49.0629 85.9359 49.1541 84.3293 49.5843C83.1431 47.134 82.2164 44.4875 81.6345 41.8195C85.6472 39.9718 92.8588 38.9058 92.8588 38.9058C92.8686 38.9151 93.8778 38.8036 94.3664 38.7936C96.0051 38.7601 97.3955 39.2343 99.0373 39.3491C99.2965 39.3677 99.5512 39.3959 99.8061 39.4389C101.87 40.9757 103.99 42.6553 105.12 44.9676C106.126 47.029 106.208 49.4103 106.126 51.6997Z" fill="#688AE0"/>
<path d="M99.8061 39.4386C99.8061 39.4386 106.09 47.182 94.0197 38.8107C94.0197 38.8107 96.5214 36.2675 99.8061 39.4386Z" fill="#FFA59D"/>
<path d="M131.341 36.2525C131.622 37.1961 131.78 38.1773 131.805 39.1638C131.823 39.6972 131.794 40.264 131.48 40.6995C131.249 41.0251 130.895 41.2293 130.544 41.4281C130.002 41.7345 128.13 42.6138 127.583 42.9211L126.623 42.0976C126.412 40.8879 126.523 37.9328 126.7 36.7307C126.715 36.619 126.841 36.56 126.937 36.6183C127.448 36.9344 127.524 37.2849 127.617 38.6536C128.513 37.7051 129.404 36.7575 130.298 35.8118C130.391 35.7089 130.494 35.6041 130.627 35.5687C130.981 35.4754 131.237 35.9032 131.341 36.2525Z" fill="#FFA59D"/>
<path d="M84.6495 49.6932C84.5418 49.6961 84.5153 49.5731 84.5112 49.5483C84.4981 49.47 84.515 49.3248 84.6643 49.277C85.4044 49.0412 87.6723 48.4729 89.4946 48.0162C90.5096 47.7617 91.3863 47.5421 91.8048 47.4287L91.8587 47.4201C91.9852 47.4167 92.0117 47.5535 92.0158 47.581C92.0294 47.6729 91.9974 47.7932 91.8625 47.8297C91.4459 47.9429 90.5672 48.163 89.5492 48.418C87.7261 48.875 85.4571 49.4437 84.709 49.6822L84.6499 49.6932H84.6495Z" fill="#374D88"/>
<path d="M77.0679 49.8916C77.0579 50.6608 77.0476 51.4301 77.0376 52.1996C77.0316 52.6594 77.7495 52.7005 77.7558 52.2368C77.7658 51.4676 77.7761 50.6983 77.7861 49.9288C77.7923 49.4687 77.0742 49.4279 77.0679 49.8916Z" fill="#F17785"/>
<path d="M113.33 51.7579C112.831 51.1474 112.287 50.5813 111.698 50.058C111.353 49.7519 110.849 50.264 111.196 50.572C111.786 51.0956 112.329 51.6617 112.828 52.2719C113.12 52.6291 113.62 52.1127 113.33 51.7579Z" fill="#F17785"/>
<path d="M101.285 34.4853C100.314 35.643 98.0324 35.7065 96.6151 35.1782C95.1977 34.6496 94.3492 33.7956 93.5528 32.509C93.5086 32.4328 93.4612 32.3562 93.4175 32.2769C93.4132 32.0981 93.4022 31.9188 93.3814 31.738C93.3278 31.2574 93.2204 30.7771 93.1257 30.3015C92.9672 29.5086 92.8397 28.6827 93.0396 27.9016C93.2857 26.9415 93.9986 26.1747 94.839 25.6258C96.5353 24.7768 98.6109 24.1028 99.2743 23.896C99.3905 23.86 99.5127 23.9297 99.5414 24.0479L99.9891 25.886L99.9886 25.8896C100.039 26.158 100.102 26.4247 100.181 26.6832C100.58 28.0205 101.257 29.2684 101.607 30.6197C101.954 31.9706 102.179 33.4121 101.285 34.4853Z" fill="#FFA59D"/>
<path d="M93.1522 29.8867C93.0896 29.5979 92.9592 29.2741 92.6749 29.192C92.3944 29.1108 92.1081 29.3126 91.9316 29.5449C91.4777 30.1415 91.444 31.0239 91.8513 31.6533C92.2585 32.2824 93.0781 32.6147 93.8094 32.4469C93.637 31.6045 93.334 30.7271 93.1522 29.8867Z" fill="#FFA59D"/>
<path d="M98.5075 30.2652C98.4984 30.3069 98.6139 30.344 98.772 30.3146C98.9368 30.2905 99.1523 30.1978 99.3378 29.9873L99.3489 29.9737C99.4579 29.838 99.5163 29.6996 99.5442 29.5702C99.5887 29.3847 99.5636 29.2237 99.5244 29.1476C99.5021 29.1029 99.4818 29.0867 99.4567 29.0929L99.4249 29.1101C99.3914 29.1545 99.3579 29.2708 99.3008 29.4059C99.2549 29.5074 99.1987 29.6186 99.1159 29.7242L99.0877 29.7616C98.9605 29.9252 98.8019 30.0302 98.6814 30.1076C98.5747 30.1761 98.5013 30.22 98.5075 30.2652Z" fill="#DD6478"/>
<path d="M97.076 31.1323C98.3193 31.225 99.7494 30.9205 100.285 30.6481C100.468 30.5548 100.693 30.6832 100.703 30.8759C100.891 34.4994 97.6059 33.0048 96.8782 31.5458C96.7729 31.3348 96.8327 31.1144 97.076 31.1323Z" fill="white"/>
<path d="M95.3907 27.0198C95.9656 26.5483 96.4676 26.1795 97.2551 26.3206C97.4753 26.3599 97.4885 26.6436 97.2053 26.7183C96.4252 26.9248 96.176 26.9723 95.5425 27.3629C95.2601 27.5372 95.0561 27.2942 95.3907 27.0198Z" fill="#202442"/>
<path d="M100.232 25.9056C99.9181 25.6928 99.5328 25.7158 99.1996 25.7513C98.9772 25.775 98.8514 26.0051 99.1336 26.0832C99.9114 26.2981 99.9011 26.2038 100.263 26.363C100.52 26.4757 100.59 26.1481 100.232 25.9056Z" fill="#202442"/>
<path d="M96.9064 27.7962C96.8081 27.7478 96.6708 27.8235 96.6398 27.9213C96.5733 28.1307 96.6256 28.3716 96.761 28.5428C96.8308 28.6309 96.9724 28.6354 97.0549 28.5645C97.0932 28.5314 97.1147 28.4881 97.1219 28.4428C97.1989 28.2238 97.115 27.8991 96.9064 27.7962Z" fill="#343256"/>
<path d="M99.9231 27.1888C99.8248 27.1404 99.6873 27.2161 99.6564 27.3142C99.5902 27.5233 99.6421 27.7645 99.7777 27.9354C99.8475 28.0235 99.9891 28.0283 100.072 27.9571C100.11 27.924 100.131 27.881 100.139 27.8356C100.216 27.6165 100.132 27.292 99.9231 27.1888Z" fill="#343256"/>
<path d="M105.866 53.1288C106.356 52.0809 106.856 50.9882 106.841 49.8319C106.831 49.0354 106.574 48.2576 106.208 47.5499C105.843 46.8418 105.37 46.1952 104.9 45.552C104.504 46.891 104.102 48.2282 104.142 49.6237C104.183 51.0189 104.742 52.2987 105.866 53.1288Z" fill="#688AE0"/>
<path d="M105.746 53.332C105.674 53.332 105.594 53.2885 105.548 53.2241C105.506 53.1656 105.497 53.0997 105.522 53.0283C105.642 52.6809 105.804 52.339 105.974 51.9768C106.239 51.4148 106.513 50.8337 106.618 50.232C106.859 48.8537 106.253 47.6817 105.563 46.6207C104.956 45.6891 104.254 44.7921 103.575 43.925C103.273 43.5394 102.972 43.1548 102.68 42.7678C102.634 42.7064 102.625 42.6451 102.655 42.5849C102.693 42.5092 102.781 42.4543 102.863 42.4543C102.921 42.4543 102.97 42.4813 103.01 42.5343C103.332 42.96 103.677 43.3816 104.042 43.8281C105.164 45.199 106.324 46.6166 106.83 48.1993C107.302 49.6719 106.846 50.7919 106.317 52.0888C106.169 52.4522 106.016 52.8277 105.879 53.2243C105.854 53.2978 105.811 53.332 105.746 53.332Z" fill="#374D88"/>
<path d="M80.8633 67.0763C80.7707 66.5313 80.6827 65.98 80.5925 65.4316C80.5167 64.9705 80.0023 64.7179 79.5972 64.9514C78.7573 65.4354 77.8677 65.8327 76.9467 66.1349C76.5143 66.277 76.3333 66.7886 76.5923 67.162C76.9381 67.6608 77.2825 68.1421 77.6292 68.6504C77.8088 68.914 78.1467 69.0186 78.4442 68.9021C79.2102 68.6019 79.9188 68.2085 80.5952 67.7343C80.8054 67.587 80.9061 67.3292 80.8633 67.0763Z" fill="#2F335B"/>
<path d="M125.714 41.0891C125.181 41.4093 124.64 41.7276 124.103 42.0468C123.651 42.3151 123.598 42.9557 124.009 43.283C124.86 43.9608 125.642 44.7267 126.336 45.564C126.662 45.957 127.273 45.936 127.557 45.5122C127.938 44.9466 128.3 44.3896 128.69 43.819C128.893 43.5232 128.864 43.1276 128.619 42.865C127.991 42.1884 127.288 41.6103 126.514 41.0989C126.273 40.9399 125.962 40.9406 125.714 41.0891Z" fill="#2F335B"/>
<path d="M92.2758 30.8935C92.3422 31.2619 92.4515 31.6227 92.6008 31.9662C92.64 32.0562 92.6849 32.1491 92.7646 32.2069C92.8442 32.2647 92.9683 32.273 93.0334 32.1993C93.0922 32.1324 93.0802 32.0269 93.0384 31.9483C92.9961 31.8698 92.9296 31.8075 92.8796 31.7337C92.7729 31.5761 92.7495 31.3658 92.8189 31.1886C92.882 31.0272 93.0152 30.8954 93.0518 30.7262C93.1111 30.4523 92.8588 30.1577 92.5718 30.1773C92.2169 30.2014 92.227 30.6235 92.2758 30.8935Z" fill="white"/>
<path d="M107.254 101.267C107.207 101.267 107.163 101.25 107.122 101.215C101.475 96.4292 97.131 90.2637 94.8916 83.8547C92.3561 76.5979 92.6754 69.4772 95.8154 63.2623C95.8494 63.1957 95.8962 63.1635 95.9596 63.1635C96.0354 63.1635 96.1179 63.211 96.1598 63.2793C96.1964 63.3382 96.1976 63.4027 96.1631 63.4705C89.3746 76.9064 97.2379 92.3105 107.417 100.936C107.478 100.988 107.496 101.046 107.472 101.112C107.44 101.199 107.344 101.267 107.254 101.267Z" fill="#1E325E"/>
<path d="M160.709 91.6163H169.672L196.996 168.975H188.033L160.709 91.6163Z" fill="#826EA0"/>
<path d="M156.363 91.6163H165.325L192.649 168.975H183.686L156.363 91.6163Z" fill="#493E60"/>
<path d="M112.027 91.6163H120.99L148.313 168.975H139.35L112.027 91.6163Z" fill="#826EA0"/>
<path d="M167.393 68.2453L160.835 91.6158H116.644L143.966 168.976H135.003L108.16 92.9712C107.848 92.089 107.817 91.1325 108.069 90.232L114.54 67.1754C114.779 66.3221 115.561 65.7298 116.453 65.7298H165.481C166.797 65.7298 167.748 66.9818 167.393 68.2453Z" fill="#493E60"/>
<path d="M135.038 154.645L35.3914 161.664C33.1819 161.74 31.2256 163.112 30.4056 165.162L28.0215 170.878C26.5596 174.532 29.256 178.506 33.1979 178.506H139.987C143.874 178.506 146.568 174.633 145.209 170.997L140.451 158.262C139.614 156.02 137.434 154.564 135.038 154.645Z" fill="#493E60"/>
<path d="M33.1979 176.026C32.1564 176.026 31.224 175.533 30.64 174.672C30.0584 173.815 29.9433 172.774 30.3226 171.812L32.7127 166.081C33.1671 164.945 34.2519 164.185 35.4765 164.143L35.5215 164.141L135.162 157.123C135.184 157.122 135.207 157.122 135.23 157.122C136.513 157.122 137.676 157.928 138.124 159.129L142.882 171.864C143.241 172.824 143.111 173.858 142.525 174.701C141.939 175.543 141.014 176.026 139.987 176.026H33.1979Z" fill="#6F5F87"/>
<path d="M192.522 178.507H139.955C143.842 178.507 146.535 174.634 145.176 170.996L143.033 165.255L140.419 158.262C140.191 157.652 139.866 157.102 139.461 156.623C138.42 155.388 136.87 154.642 135.198 154.642H187.765C190.085 154.642 192.172 156.08 192.986 158.262L195.6 165.255L197.743 170.996C199.102 174.634 196.409 178.507 192.522 178.507Z" fill="#826EA0"/>
<path d="M140.399 166.586C140.399 161.373 136.621 157.146 131.962 157.146C127.302 157.146 123.525 161.373 123.525 166.586C123.525 171.8 127.302 176.026 131.962 176.026C136.621 176.026 140.399 171.8 140.399 166.586Z" fill="white"/>
<path d="M136.536 166.586C136.536 163.759 134.488 161.468 131.962 161.468C129.435 161.468 127.387 163.759 127.387 166.586C127.387 169.413 129.435 171.705 131.962 171.705C134.488 171.705 136.536 169.413 136.536 166.586Z" fill="#5A4C72"/>
<path d="M42.2407 170.026C42.2407 166.712 39.8396 164.025 36.8777 164.025C33.9158 164.025 31.5145 166.712 31.5145 170.026C31.5145 173.34 33.9158 176.026 36.8777 176.026C39.8396 176.026 42.2407 173.34 42.2407 170.026Z" fill="white"/>
<path d="M39.7858 170.026C39.7858 168.229 38.4836 166.772 36.8777 166.772C35.2716 166.772 33.9694 168.229 33.9694 170.026C33.9694 171.823 35.2716 173.28 36.8777 173.28C38.4836 173.28 39.7858 171.823 39.7858 170.026Z" fill="#5A4C72"/>
<path d="M140.451 158.345L138.904 154.642C138.904 154.642 137.476 149.67 135.199 154.642L140.451 158.345Z" fill="#493E60"/>
<path d="M174.258 65.7293H125.228C124.338 65.7293 123.557 66.321 123.316 67.1769L116.643 91.6163H169.672L176.17 68.2465C176.525 66.9825 175.573 65.7293 174.258 65.7293Z" fill="#826EA0"/>
<path d="M192.522 178.507H139.955C143.842 178.507 146.535 174.634 145.176 170.996L143.033 165.255H195.6L197.743 170.996C199.102 174.634 196.409 178.507 192.522 178.507Z" fill="#6F5F87"/>
<path d="M166.21 88.3537C165.47 88.3537 164.696 87.7437 164.935 86.8124C166.383 81.1502 167.832 75.488 169.282 69.8258C169.439 69.2098 169.913 68.9436 170.402 68.9436C171.142 68.9436 171.915 69.5536 171.677 70.485C170.228 76.1472 168.779 81.8094 167.33 87.4715C167.172 88.0873 166.698 88.3537 166.21 88.3537Z" fill="#A28EBE"/>
<path d="M132.229 88.8998C133.678 83.2376 133.406 84.3349 134.855 78.6729C135.251 77.1258 132.856 76.4659 132.46 78.0135C131.011 83.6757 131.283 82.5784 129.834 88.2406C129.438 89.7877 131.833 90.4473 132.229 88.8998Z" fill="#60507F"/>
<path d="M137.338 88.8998C138.787 83.2376 138.515 84.3349 139.964 78.6729C140.36 77.1258 137.965 76.4659 137.569 78.0135C136.12 83.6757 136.392 82.5784 134.943 88.2406C134.547 89.7877 136.942 90.4473 137.338 88.8998Z" fill="#60507F"/>
<path d="M142.448 88.8998C143.896 83.2376 143.624 84.3349 145.073 78.6729C145.469 77.1258 143.074 76.4659 142.678 78.0135C141.229 83.6757 141.501 82.5784 140.052 88.2406C139.656 89.7877 142.051 90.4473 142.448 88.8998Z" fill="#60507F"/>
<path d="M147.557 88.8998C149.006 83.2376 148.734 84.3349 150.182 78.6729C150.578 77.1258 148.183 76.4659 147.787 78.0135C146.338 83.6757 146.61 82.5784 145.161 88.2406C144.765 89.7877 147.161 90.4473 147.557 88.8998Z" fill="#60507F"/>
<path d="M152.666 88.8998C154.115 83.2376 153.843 84.3349 155.292 78.6729C155.688 77.1258 153.293 76.4659 152.897 78.0135C151.448 83.6757 151.719 82.5784 150.271 88.2406C149.875 89.7877 152.27 90.4473 152.666 88.8998Z" fill="#60507F"/>
<path d="M157.775 88.8998C159.224 83.2376 158.952 84.3349 160.401 78.6729C160.797 77.1258 158.402 76.4659 158.006 78.0135C156.557 83.6757 156.829 82.5784 155.38 88.2406C154.984 89.7877 157.379 90.4473 157.775 88.8998Z" fill="#60507F"/>
<path d="M192.603 165.255H189.979C189.218 163.062 188.457 160.869 187.697 158.675C187.379 157.761 188.128 157.164 188.887 157.164C189.384 157.164 189.886 157.422 190.092 158.016C190.929 160.429 191.766 162.842 192.603 165.255Z" fill="#A28EBE"/>
<path d="M193.836 173.752C193.338 173.752 192.837 173.494 192.631 172.9C191.747 170.352 190.863 167.803 189.979 165.255H192.603C193.411 167.584 194.218 169.912 195.026 172.241C195.343 173.155 194.594 173.752 193.836 173.752Z" fill="#9482AD"/>
<path d="M186.132 143.539C185.982 143.539 185.831 143.462 185.769 143.284C185.175 141.593 184.582 139.902 183.988 138.212C181.402 130.845 178.816 123.477 176.23 116.11C174.607 111.488 172.985 106.866 171.362 102.243C171.266 101.97 171.49 101.791 171.718 101.791C171.867 101.791 172.018 101.868 172.081 102.046C172.674 103.737 173.268 105.427 173.861 107.118C176.447 114.485 179.033 121.853 181.62 129.22C183.242 133.842 184.865 138.464 186.487 143.086C186.584 143.36 186.359 143.539 186.132 143.539Z" fill="#A28EBE"/>
<path d="M157.188 62.6998H139.046C138.157 62.6998 137.376 63.29 137.134 64.1443L135.341 70.4926C134.983 71.758 135.936 73.0138 137.252 73.0138H155.395C156.284 73.0138 157.065 72.4239 157.306 71.5694L159.1 65.221C159.457 63.9559 158.505 62.6998 157.188 62.6998Z" fill="#493E60"/>
<path d="M160.108 62.6998H141.965C141.076 62.6998 140.295 63.29 140.054 64.1443L138.26 70.4926C137.903 71.758 138.855 73.0138 140.172 73.0138H158.314C159.203 73.0138 159.984 72.4239 160.226 71.5694L162.019 65.221C162.377 63.9559 161.424 62.6998 160.108 62.6998Z" fill="#A692CC"/>
<path d="M52.2135 57.7899C51.3035 57.7899 50.8056 57.7439 50.7963 57.6467C50.7549 57.2205 60.1349 55.9595 72.4105 54.7125C72.537 55.2497 72.6759 55.8028 72.8295 56.3703C63.2283 57.2516 55.3212 57.7899 52.2135 57.7899ZM77.9834 55.8799C77.909 55.3153 77.8435 54.749 77.7887 54.1853C80.1714 53.9602 82.467 53.7544 84.6315 53.5708C84.9802 53.5975 85.3301 53.6109 85.6795 53.6109C86.7349 53.6109 87.7898 53.4891 88.816 53.2432C88.8416 53.237 88.8671 53.2308 88.8927 53.2246C90.076 53.1329 91.2017 53.05 92.2581 52.9765C92.287 53.0226 92.3159 53.0689 92.3446 53.115C92.5709 53.481 92.7878 53.852 92.9944 54.2273C88.9121 54.739 83.7051 55.3163 77.9834 55.8799Z" fill="#DDEDF4"/>
<path d="M85.6795 53.6108C85.3301 53.6108 84.9802 53.5975 84.6315 53.5707C86.1188 53.4447 87.5437 53.3289 88.8927 53.2245C88.8671 53.2307 88.8415 53.237 88.8159 53.2432C87.7898 53.4891 86.7349 53.6108 85.6795 53.6108Z" fill="#41547A"/>
<path d="M72.8295 56.3704C72.6759 55.8029 72.537 55.2497 72.4105 54.7125C73.6639 54.5852 74.9481 54.458 76.2551 54.3319C76.77 54.2823 77.2815 54.2333 77.7887 54.1853C77.8435 54.749 77.909 55.3153 77.9834 55.88C77.4661 55.9308 76.9448 55.9817 76.4196 56.0323C75.2014 56.15 74.0028 56.2627 72.8295 56.3704Z" fill="#DDA9AB"/>
<path d="M92.9944 54.2273C92.7878 53.852 92.5709 53.481 92.3446 53.115C92.3159 53.0689 92.287 53.0226 92.2581 52.9765C95.9835 52.7174 98.8593 52.5744 100.461 52.5744C101.371 52.5744 101.869 52.6205 101.878 52.7177C101.903 52.9765 98.4552 53.543 92.9944 54.2273Z" fill="#6C95DD"/>
<path d="M53.2878 89.7819C52.3785 89.7819 51.8801 89.7358 51.8708 89.6387C51.8251 89.169 63.2235 87.685 77.3296 86.3239C82.6717 85.8084 87.636 85.3846 91.7451 85.0824C91.7355 85.557 91.7293 86.0321 91.7257 86.5056C87.6647 86.9895 82.7693 87.5155 77.4943 88.0245C66.3059 89.1041 56.7748 89.7819 53.2878 89.7819Z" fill="#DDEDF4"/>
<path d="M91.7257 86.5056C91.7293 86.0321 91.7355 85.557 91.7451 85.0824C92.9987 84.9903 94.1727 84.9093 95.2534 84.8405C95.4034 85.2304 95.5612 85.6198 95.7262 86.0073C94.5128 86.1661 93.1718 86.3332 91.7257 86.5056ZM96.1952 85.9455C96.0328 85.569 95.8778 85.1917 95.7291 84.8107C98.2964 84.6522 100.297 84.5665 101.536 84.5665C102.445 84.5665 102.944 84.6128 102.953 84.7097C102.974 84.9329 100.409 85.3856 96.1952 85.9455Z" fill="#47679B"/>
<path d="M95.7262 86.0073C95.5612 85.6198 95.4034 85.2304 95.2534 84.8405C95.4139 84.8302 95.5729 84.8205 95.7291 84.8107C95.8778 85.1917 96.0328 85.5689 96.1952 85.9455C96.0409 85.9658 95.8848 85.9865 95.7262 86.0073Z" fill="#34537C"/>
</svg>
