<svg width="667" height="497" viewBox="0 0 667 497" fill="none" xmlns="http://www.w3.org/2000/svg">
<g clip-path="url(#clip0)">
<path d="M478.877 317.669H553.996C561.857 317.669 568.231 324.042 568.231 331.904V436.596H478.877V317.669Z" fill="#DADBD8"/>
<path d="M495.183 317.669H306.44C298.579 317.669 292.205 324.042 292.205 331.904V436.596H509.417V331.904C509.417 324.042 503.045 317.669 495.183 317.669Z" fill="#E7E8E5"/>
<path d="M441.495 377.132C441.495 398.345 424.299 415.541 403.085 415.541C381.872 415.541 364.676 398.345 364.676 377.132C364.676 355.918 381.872 338.722 403.085 338.722C424.299 338.722 441.495 355.918 441.495 377.132Z" fill="#DADBD8"/>
<path d="M439.221 377.132C439.221 398.345 422.025 415.541 400.812 415.541C379.599 415.541 362.401 398.345 362.401 377.132C362.401 355.918 379.599 338.722 400.812 338.722C422.025 338.722 439.221 355.918 439.221 377.132Z" fill="#FAFAF9"/>
<path d="M426.656 377.132C426.656 391.405 415.084 402.976 400.812 402.976C386.539 402.976 374.968 391.405 374.968 377.132C374.968 362.859 386.539 351.288 400.812 351.288C415.084 351.288 426.656 362.859 426.656 377.132Z" fill="#E2E2E0"/>
<path d="M526.395 317.669H417.909C417.909 313.544 419.341 310.395 421.565 307.729H477.353C479.981 307.729 482.169 305.712 482.383 303.093L487.261 243.284H491.919C495.947 243.284 498.875 239.988 498.424 235.959L495.575 210.511C495.243 207.541 493.164 204.971 490.481 203.823L496.483 130.251C496.493 130.113 496.499 129.976 496.5 129.84C496.503 127.081 494.264 124.795 491.453 124.795H488.492L488.684 122.453C488.924 119.513 486.603 116.996 483.655 116.996H359.776C377.372 98.0385 402.471 86.1332 430.217 86.1332C483.115 86.1332 526.395 129.413 526.395 182.311V317.669ZM415.243 317.669H339.673V307.729H418.219C416.392 310.439 415.243 313.647 415.243 317.669ZM339.34 317.669H334.04V307.729H339.34V317.669Z" fill="#ECECEA"/>
<path d="M339.34 317.669H339.673V307.73H339.34V317.669Z" fill="#E0E1DE"/>
<path d="M395.157 196.819H369.692C364.94 196.819 361.488 192.931 362.02 188.179L365.379 158.167C365.911 153.415 370.235 149.527 374.987 149.527H400.451C405.203 149.527 408.656 153.415 408.124 158.167L404.764 188.179C404.232 192.931 399.909 196.819 395.157 196.819Z" fill="#DADBD8"/>
<path d="M470.325 243.284H491.919C495.947 243.284 498.875 239.988 498.424 235.959L495.575 210.511C495.124 206.483 491.459 203.185 487.429 203.185H465.837C461.808 203.185 458.88 206.483 459.331 210.511L462.18 235.959C462.631 239.988 466.297 243.284 470.325 243.284Z" fill="#DADBD8"/>
<path d="M445.291 154.408H463.324C466.688 154.408 469.133 151.655 468.756 148.289L466.377 127.037C466.001 123.672 462.94 120.919 459.575 120.919H441.543C438.177 120.919 435.732 123.672 436.109 127.037L438.488 148.289C438.864 151.655 441.927 154.408 445.291 154.408Z" fill="#DADBD8"/>
<path d="M400.361 278.259H385.071C382.219 278.259 380.144 275.924 380.464 273.071L382.481 255.051C382.801 252.197 385.396 249.864 388.249 249.864H403.539C406.392 249.864 408.465 252.197 408.145 255.051L406.129 273.071C405.809 275.924 403.213 278.259 400.361 278.259Z" fill="#DADBD8"/>
<path d="M417.909 317.669H415.243C415.243 307.585 422.471 302.613 429.463 297.807C436.18 293.185 442.527 288.821 442.527 280.14C442.527 271.46 436.18 267.096 429.463 262.475C422.471 257.668 415.243 252.696 415.243 242.613C415.243 232.529 422.471 227.557 429.463 222.749C436.18 218.129 442.527 213.764 442.527 205.083C442.527 196.4 436.18 192.036 429.463 187.415C422.471 182.605 415.243 177.633 415.243 167.548C415.243 157.464 422.471 152.491 429.463 147.683C436.18 143.061 442.527 138.696 442.527 130.013H445.192C445.192 140.099 437.964 145.071 430.973 149.88C424.255 154.501 417.909 158.867 417.909 167.548C417.909 176.231 424.255 180.596 430.973 185.217C437.964 190.025 445.192 194.999 445.192 205.083C445.192 215.167 437.964 220.139 430.973 224.947C424.255 229.568 417.909 233.932 417.909 242.613C417.909 251.293 424.255 255.657 430.973 260.279C437.964 265.085 445.192 270.057 445.192 280.14C445.192 290.224 437.964 295.196 430.973 300.004C424.255 304.624 417.909 308.988 417.909 317.669Z" fill="white"/>
<path d="M170.52 436.596H210.563L200.615 146.732H180.467L170.52 436.596Z" fill="#F3F2F1"/>
<path d="M122.94 436.596H162.983L153.036 146.732H132.887L122.94 436.596Z" fill="#E7E8E5"/>
<path d="M75.3604 436.596H115.404L105.456 146.732H85.3079L75.3604 436.596Z" fill="#DADBD8"/>
<path d="M591.852 481.715C591.852 490.053 476.111 496.813 333.333 496.813C190.557 496.813 74.8145 490.053 74.8145 481.715C74.8145 473.377 190.557 466.617 333.333 466.617C476.111 466.617 591.852 473.377 591.852 481.715Z" fill="#F3F2F1"/>
<path d="M491.453 124.795H214.473C211.847 124.795 209.659 126.812 209.445 129.431L195.345 302.272C195.105 305.212 197.425 307.729 200.375 307.729H477.353C479.981 307.729 482.169 305.712 482.383 303.093L496.483 130.251C496.723 127.312 494.401 124.795 491.453 124.795Z" fill="#406FBF"/>
<path d="M477.353 307.729H252.331C252.512 305.172 252.667 302.565 252.797 299.931H469.556C472.183 299.931 474.371 297.913 474.585 295.295L488.492 124.795H491.453C494.264 124.795 496.503 127.081 496.5 129.84C496.499 129.976 496.493 130.113 496.483 130.251L490.481 203.823L487.261 243.284L482.383 303.093C482.169 305.712 479.981 307.729 477.353 307.729ZM216.112 307.729H206.14H200.375C197.564 307.729 195.324 305.441 195.328 302.683C195.328 302.547 195.333 302.411 195.345 302.272L195.536 299.931H216.283C216.253 302.537 216.199 305.137 216.112 307.729Z" fill="#3161B6"/>
<path d="M393.361 113.437H387.613V112.013H393.361V113.437Z" fill="#406FBF"/>
<path d="M380.495 113.437H356.609V112.013H380.495V113.437Z" fill="#406FBF"/>
<path d="M483.655 116.996H206.676C204.048 116.996 201.86 119.013 201.647 121.632L187.547 294.475C187.307 297.413 189.628 299.931 192.576 299.931H469.556C472.183 299.931 474.371 297.913 474.585 295.295L488.684 122.453C488.924 119.513 486.603 116.996 483.655 116.996Z" fill="#406FBF"/>
<path d="M473.456 203.608H275.496C275.544 203.131 275.592 202.655 275.639 202.184H472.143L478.313 126.545H255.791C255.893 126.259 256.024 126.016 256.191 125.839C255.895 125.589 255.589 125.349 255.275 125.121H479.857L473.456 203.608ZM215.048 203.608H203.567L204.123 196.797C204.617 196.751 205.097 196.692 205.564 196.623L205.111 202.184H215.109C215.089 202.664 215.069 203.14 215.048 203.608ZM205.913 181.169C206.283 179.977 206.687 178.78 207.117 177.581L206.831 181.105C206.52 181.132 206.213 181.153 205.913 181.169ZM209.552 130.236L209.969 125.121H225.551C225.328 125.563 225.156 126.037 225.036 126.545H211.281L211.024 129.701C210.891 129.737 210.757 129.776 210.624 129.816C210.265 129.925 209.908 130.067 209.552 130.236Z" fill="#4D79C6"/>
<path d="M462.012 195.736C460.927 195.736 460.119 194.857 460.208 193.772L465.005 134.959C465.093 133.873 466.045 132.993 467.131 132.993C468.216 132.993 469.024 133.873 468.935 134.959L464.137 193.772C464.049 194.857 463.097 195.736 462.012 195.736Z" fill="#7DA6DD"/>
<path d="M462.175 165.839H466.727C467.243 165.839 467.695 165.421 467.737 164.905L468.119 160.217C468.161 159.701 467.777 159.284 467.263 159.284H462.709C462.195 159.284 461.743 159.701 461.7 160.217L461.317 164.905C461.276 165.421 461.66 165.839 462.175 165.839Z" fill="white"/>
<path d="M445.303 195.736C444.217 195.736 443.409 194.857 443.497 193.772L448.295 134.959C448.384 133.873 449.335 132.993 450.42 132.993C451.505 132.993 452.313 133.873 452.225 134.959L447.428 193.772C447.339 194.857 446.388 195.736 445.303 195.736Z" fill="#7DA6DD"/>
<path d="M446.32 155.361H450.872C451.388 155.361 451.839 154.944 451.881 154.428L452.264 149.74C452.305 149.224 451.921 148.807 451.407 148.807H446.855C446.339 148.807 445.888 149.224 445.845 149.74L445.463 154.428C445.42 154.944 445.804 155.361 446.32 155.361Z" fill="white"/>
<path d="M428.592 195.736C427.507 195.736 426.699 194.857 426.788 193.772L431.585 134.959C431.673 133.873 432.625 132.993 433.711 132.993C434.796 132.993 435.604 133.873 435.515 134.959L430.717 193.772C430.629 194.857 429.677 195.736 428.592 195.736Z" fill="#7DA6DD"/>
<path d="M427.733 178.367H432.285C432.801 178.367 433.252 177.949 433.295 177.433L433.677 172.745C433.72 172.229 433.335 171.812 432.82 171.812H428.268C427.752 171.812 427.3 172.229 427.259 172.745L426.876 177.433C426.833 177.949 427.217 178.367 427.733 178.367Z" fill="white"/>
<path d="M411.883 195.736C410.797 195.736 409.989 194.857 410.077 193.772L414.875 134.959C414.964 133.873 415.915 132.993 417 132.993C418.085 132.993 418.893 133.873 418.805 134.959L414.008 193.772C413.919 194.857 412.968 195.736 411.883 195.736Z" fill="#7DA6DD"/>
<path d="M411.689 170.197H416.241C416.757 170.197 417.209 169.78 417.251 169.264L417.633 164.575C417.676 164.06 417.292 163.643 416.777 163.643H412.224C411.709 163.643 411.256 164.06 411.215 164.575L410.832 169.264C410.791 169.78 411.173 170.197 411.689 170.197Z" fill="white"/>
<path d="M395.172 195.736C394.087 195.736 393.279 194.857 393.368 193.772L398.165 134.959C398.253 133.873 399.205 132.993 400.291 132.993C401.376 132.993 402.184 133.873 402.095 134.959L397.297 193.772C397.209 194.857 396.257 195.736 395.172 195.736Z" fill="#7DA6DD"/>
<path d="M395.515 163.643H400.067C400.583 163.643 401.033 163.224 401.076 162.708L401.459 158.02C401.5 157.504 401.116 157.087 400.601 157.087H396.049C395.533 157.087 395.081 157.504 395.04 158.02L394.657 162.708C394.615 163.224 394.999 163.643 395.515 163.643Z" fill="white"/>
<path d="M359.7 150.169H293.203C290.788 146.659 287.873 142.785 284.669 139.272H360.589C363.599 139.272 365.839 141.712 365.593 144.721C365.348 147.731 362.709 150.169 359.7 150.169Z" fill="#7DA6DD"/>
<path d="M221.285 169.813H358.097C361.108 169.813 363.745 167.375 363.991 164.365C364.236 161.356 361.996 158.916 358.987 158.916H222.175C219.165 158.916 216.527 161.356 216.28 164.365C216.035 167.375 218.276 169.813 221.285 169.813Z" fill="#FAFAF9"/>
<path d="M356.496 189.457H315.995C317.128 188.693 318.079 187.9 318.936 187.108C320.789 185.4 322.181 183.629 323.468 181.888C324.28 180.785 325.021 179.676 325.711 178.56H357.384C360.393 178.56 362.635 181 362.389 184.009C362.143 187.019 359.504 189.457 356.496 189.457ZM298.661 189.457H278.111C277.633 189.457 277.175 189.396 276.743 189.281C277.008 185.568 277.209 182.08 277.355 178.807C277.88 178.647 278.433 178.56 279 178.56H285.068C287.753 181.187 290.619 183.715 293.745 186.108C295.301 187.268 296.925 188.393 298.661 189.457Z" fill="#3161B6"/>
<path d="M462.048 235.747H446.152L447.449 219.851H463.344L462.048 235.747Z" fill="#3665B9"/>
<path d="M438.653 235.747H422.757L424.053 219.851H439.949L438.653 235.747Z" fill="#3665B9"/>
<path d="M399.363 235.747H415.257L416.555 219.851H400.659L399.363 235.747Z" fill="white"/>
<path d="M391.863 235.747H375.968L377.264 219.851H393.16L391.863 235.747Z" fill="#3665B9"/>
<path d="M444.244 259.141H460.139L461.436 243.247H445.541L444.244 259.141Z" fill="white"/>
<path d="M436.744 259.141H420.849L422.145 243.247H438.041L436.744 259.141Z" fill="#3665B9"/>
<path d="M413.349 259.141H397.453L398.751 243.247H414.645L413.349 259.141Z" fill="#3665B9"/>
<path d="M389.955 259.141H374.059L375.356 243.247H391.251L389.955 259.141Z" fill="#3665B9"/>
<path d="M458.231 282.536H442.336L443.632 266.641H459.527L458.231 282.536Z" fill="#3665B9"/>
<path d="M434.836 282.536H418.941L420.237 266.641H436.132L434.836 282.536Z" fill="#3665B9"/>
<path d="M395.545 282.536H411.441L412.737 266.641H396.843L395.545 282.536Z" fill="white"/>
<path d="M388.045 282.536H372.151L373.448 266.641H389.343L388.045 282.536Z" fill="#3665B9"/>
<path d="M327.911 262.416H322.609L323.489 251.623H328.791L327.911 262.416Z" fill="#3665B9"/>
<path d="M335.715 262.416H330.412L331.293 251.623H336.595L335.715 262.416Z" fill="#3665B9"/>
<path d="M344.399 251.623H339.096L338.216 262.416H343.517L344.399 251.623Z" fill="white"/>
<path d="M351.321 262.416H346.02L346.9 251.623H352.201L351.321 262.416Z" fill="#3665B9"/>
<path d="M330.087 235.737H324.785L323.905 246.529H329.207L330.087 235.737Z" fill="white"/>
<path d="M337.011 246.529H331.708L332.588 235.737H337.891L337.011 246.529Z" fill="#3665B9"/>
<path d="M344.813 246.529H339.512L340.392 235.737H345.695L344.813 246.529Z" fill="#3665B9"/>
<path d="M352.617 246.529H347.315L348.196 235.737H353.497L352.617 246.529Z" fill="#3665B9"/>
<path d="M330.503 230.644H325.2L326.081 219.851H331.383L330.503 230.644Z" fill="#3665B9"/>
<path d="M338.307 230.644H333.004L333.885 219.851H339.187L338.307 230.644Z" fill="#3665B9"/>
<path d="M346.109 230.644H340.807L341.688 219.851H346.991L346.109 230.644Z" fill="#3665B9"/>
<path d="M353.913 230.644H348.611L349.492 219.851H354.793L353.913 230.644Z" fill="#3665B9"/>
<path d="M289.803 262.416H284.5L285.38 251.623H290.683L289.803 262.416Z" fill="#3665B9"/>
<path d="M298.485 251.623H293.184L292.304 262.416H297.605L298.485 251.623Z" fill="white"/>
<path d="M305.409 262.416H300.107L300.988 251.623H306.289L305.409 262.416Z" fill="#3665B9"/>
<path d="M313.212 262.416H307.911L308.791 251.623H314.093L313.212 262.416Z" fill="#3665B9"/>
<path d="M291.979 235.737H286.676L285.796 246.529H291.097L291.979 235.737Z" fill="white"/>
<path d="M298.901 246.529H293.6L294.48 235.737H299.781L298.901 246.529Z" fill="#3665B9"/>
<path d="M307.585 235.737H302.283L301.403 246.529H306.705L307.585 235.737Z" fill="white"/>
<path d="M315.389 235.737H310.087L309.207 246.529H314.508L315.389 235.737Z" fill="white"/>
<path d="M292.393 230.644H287.092L287.972 219.851H293.275L292.393 230.644Z" fill="#3665B9"/>
<path d="M301.077 219.851H295.776L294.895 230.644H300.197L301.077 219.851Z" fill="white"/>
<path d="M308.881 219.851H303.58L302.699 230.644H308L308.881 219.851Z" fill="white"/>
<path d="M315.804 230.644H310.503L311.383 219.851H316.685L315.804 230.644Z" fill="#3665B9"/>
<path d="M252.573 251.623H247.272L246.392 262.416H251.693L252.573 251.623Z" fill="white"/>
<path d="M259.497 262.416H254.195L255.076 251.623H260.377L259.497 262.416Z" fill="#3665B9"/>
<path d="M268.18 251.623H262.879L261.999 262.416H267.3L268.18 251.623Z" fill="white"/>
<path d="M275.104 262.416H269.803L270.683 251.623H275.984L275.104 262.416Z" fill="#3665B9"/>
<path d="M253.869 235.737H248.568L247.687 246.529H252.989L253.869 235.737Z" fill="white"/>
<path d="M261.673 235.737H256.371L255.491 246.529H260.792L261.673 235.737Z" fill="white"/>
<path d="M268.596 246.529H263.295L264.175 235.737H269.476L268.596 246.529Z" fill="#3665B9"/>
<path d="M276.4 246.529H271.097L271.977 235.737H277.28L276.4 246.529Z" fill="#3665B9"/>
<path d="M255.165 219.851H249.863L248.983 230.644H254.285L255.165 219.851Z" fill="white"/>
<path d="M262.088 230.644H256.787L257.208 225.469H262.511L262.088 230.644Z" fill="#3665B9"/>
<path d="M269.892 230.644H264.589L265.012 225.469H270.313L269.892 230.644Z" fill="#3665B9"/>
<path d="M277.695 230.644H272.393L272.816 225.469H272.899C273.156 223.559 273.401 221.688 273.635 219.851H278.576L277.695 230.644Z" fill="#3665B9"/>
<path d="M214.465 251.623H209.163L208.283 262.416H213.584L214.465 251.623Z" fill="white"/>
<path d="M230.072 251.623H224.771L223.889 262.416H229.192L230.072 251.623Z" fill="white"/>
<path d="M214.656 246.529H209.579L210.459 235.737H214.243C214.347 239.2 214.491 242.807 214.656 246.529Z" fill="#3665B9"/>
<path d="M231.368 235.737H226.065L225.185 246.529H230.487L231.368 235.737Z" fill="white"/>
<path d="M217.056 219.851H211.755L210.875 230.644H216.176L217.056 219.851Z" fill="white"/>
<path d="M232.664 219.851H227.361L226.481 230.644H231.783L232.664 219.851Z" fill="white"/>
<path d="M240.467 219.851H235.165L234.284 230.644H239.587L240.467 219.851Z" fill="white"/>
<path d="M343.332 276.423C343.177 278.313 344.585 279.847 346.476 279.847C348.367 279.847 350.024 278.313 350.179 276.423C350.333 274.532 348.925 272.999 347.035 272.999C345.144 272.999 343.485 274.532 343.332 276.423Z" fill="white"/>
<path d="M328.199 276.423C328.045 278.313 329.452 279.847 331.343 279.847C333.235 279.847 334.892 278.313 335.047 276.423C335.2 274.532 333.793 272.999 331.901 272.999C330.011 272.999 328.353 274.532 328.199 276.423Z" fill="white"/>
<path d="M313.067 276.423C312.913 278.313 314.32 279.847 316.211 279.847C318.101 279.847 319.76 278.313 319.915 276.423C320.068 274.532 318.66 272.999 316.769 272.999C314.879 272.999 313.221 274.532 313.067 276.423Z" fill="white"/>
<path d="M297.935 276.423C297.78 278.313 299.188 279.847 301.079 279.847C302.969 279.847 304.627 278.313 304.781 276.423C304.936 274.532 303.528 272.999 301.637 272.999C299.747 272.999 298.088 274.532 297.935 276.423Z" fill="white"/>
<path d="M282.803 276.423C282.648 278.313 284.056 279.847 285.945 279.847C287.837 279.847 289.495 278.313 289.649 276.423C289.804 274.532 288.395 272.999 286.504 272.999C284.613 272.999 282.956 274.532 282.803 276.423Z" fill="white"/>
<path d="M267.669 276.423C267.515 278.313 268.923 279.847 270.813 279.847C272.704 279.847 274.363 278.313 274.517 276.423C274.671 274.532 273.263 272.999 271.372 272.999C269.481 272.999 267.824 274.532 267.669 276.423Z" fill="white"/>
<path d="M252.537 276.423C252.383 278.313 253.791 279.847 255.681 279.847C257.572 279.847 259.229 278.313 259.384 276.423C259.539 274.532 258.131 272.999 256.24 272.999C254.349 272.999 252.692 274.532 252.537 276.423Z" fill="white"/>
<path d="M237.405 276.423C237.251 278.313 238.659 279.847 240.549 279.847C242.44 279.847 244.097 278.313 244.252 276.423C244.407 274.532 242.999 272.999 241.108 272.999C239.217 272.999 237.559 274.532 237.405 276.423Z" fill="white"/>
<path d="M207.14 276.423C206.985 278.313 208.393 279.847 210.284 279.847C212.175 279.847 213.833 278.313 213.987 276.423C214.141 274.532 212.733 272.999 210.843 272.999C208.952 272.999 207.295 274.532 207.14 276.423Z" fill="white"/>
<path d="M223.116 146.451C222.337 147.669 221.4 149.22 220.544 150.636C219.679 152.088 218.801 153.548 217.965 155.025C216.283 157.976 214.631 160.945 213.127 163.952C210.053 169.936 207.423 176.065 205.639 182.073L205.037 184.315L204.961 184.596L204.909 184.773L204.879 184.725C204.877 184.661 204.851 184.643 204.847 184.503L204.767 184.073C204.717 183.935 204.669 183.641 204.565 183.443C204.479 183.161 204.339 182.932 204.181 182.643C203.855 182.104 203.368 181.605 202.969 181.321C202.081 180.733 201.781 180.829 201.861 180.891C202.079 181.092 203.395 181.236 204.727 181.211C206.108 181.196 207.656 181.056 209.245 180.828C215.655 179.952 222.617 178.135 229.356 176.479L233.189 184.988C229.943 187.073 226.719 188.836 223.307 190.504C219.905 192.163 216.393 193.653 212.585 194.901C210.675 195.508 208.683 196.055 206.491 196.465C205.389 196.673 204.227 196.813 202.951 196.884C201.664 196.941 200.289 196.948 198.601 196.664C196.935 196.348 194.875 195.849 192.589 194.108C191.487 193.265 190.395 192.077 189.645 190.743C189.244 190.072 188.972 189.408 188.708 188.715C188.503 188.079 188.291 187.359 188.201 186.769L188.06 185.84L188 184.999C187.96 184.409 187.983 183.941 188.001 183.428C188.021 182.908 188.081 182.507 188.133 182.041L188.204 181.555L188.268 181.175L188.784 178.135C189.572 174.147 190.627 170.28 191.921 166.599C193.159 162.876 194.659 159.315 196.241 155.824C197.833 152.332 199.569 148.945 201.437 145.633C202.367 143.975 203.324 142.336 204.337 140.719C205.357 139.061 206.34 137.567 207.573 135.801L223.116 146.451Z" fill="#F46B74"/>
<path d="M227.787 177.145L233.567 171.381L239.32 184.2C239.32 184.2 233.88 187.219 229.028 185.019L227.787 177.145Z" fill="#F46B74"/>
<path d="M242.119 166.791L246.377 177.608L239.32 184.2L233.567 171.381L242.119 166.791Z" fill="#F46B74"/>
<path d="M264.712 96.7199C264.579 97.5972 264.935 98.3798 265.508 98.4665C266.083 98.5532 266.655 97.9132 266.788 97.0358C266.921 96.1585 266.564 95.3772 265.992 95.2905C265.417 95.2025 264.845 95.8439 264.712 96.7199Z" fill="#17282F"/>
<path d="M264.855 98.3679C264.855 98.3679 266.08 103.731 267.904 106.507C266.133 107.719 263.595 106.656 263.595 106.656L264.855 98.3679Z" fill="#F14358"/>
<path d="M262.263 91.3693C262.389 91.4079 262.531 91.4013 262.657 91.3359C264.704 90.2866 266.355 91.1813 266.423 91.2213C266.671 91.3613 266.991 91.2733 267.132 91.0226C267.272 90.7733 267.187 90.4586 266.937 90.316C266.849 90.2653 264.748 89.0946 262.183 90.408C261.927 90.54 261.825 90.8533 261.956 91.1093C262.023 91.2386 262.135 91.3279 262.263 91.3693Z" fill="#17282F"/>
<path d="M235.984 98.7998C236.547 106.982 236.271 121.808 230.015 126.434C230.015 126.434 231.18 134.808 246.016 136.672C262.331 138.721 254.831 129.553 254.831 129.553C246.193 126.308 247.253 119.73 249.584 113.721L235.984 98.7998Z" fill="#F46B74"/>
<path d="M224.791 130.12C224.877 129.855 224.899 129.54 224.869 129.188C224.435 123.999 228.033 121.201 234.315 120.737C241.055 120.239 250.405 120.96 256.191 125.839C254.893 127.231 255.715 132.536 255.715 132.536L224.791 130.12Z" fill="#17282F"/>
<path d="M193.48 450.64C194.716 450.542 196.765 450.528 197.512 451.163C197.687 451.312 197.775 451.485 197.78 451.696C197.795 452.184 197.589 452.283 197.521 452.314C196.816 452.654 194.816 451.635 193.48 450.64ZM197.641 452.827L197.747 452.784C198.011 452.657 198.321 452.364 198.301 451.68C198.291 451.32 198.139 451.012 197.849 450.766C196.593 449.699 192.939 450.168 192.784 450.188L192.568 450.372L192.648 450.644C193.503 451.377 196.328 453.281 197.641 452.827Z" fill="#406FBF"/>
<path d="M195.891 447.701L196.071 447.651C196.349 447.59 196.591 447.633 196.808 447.78C197.091 447.971 197.047 448.123 197.028 448.188C196.82 448.896 194.743 449.877 193.344 450.128C193.849 449.404 194.905 448.043 195.891 447.701ZM194.663 450.303C195.944 449.86 197.301 449.109 197.528 448.335C197.592 448.117 197.62 447.7 197.1 447.348C196.764 447.12 196.38 447.051 195.96 447.141C194.353 447.481 192.667 450.195 192.596 450.309L192.592 450.576L192.825 450.707C193.283 450.696 193.961 450.545 194.663 450.303Z" fill="#406FBF"/>
<path d="M280.355 468.915C280.537 468.915 280.707 468.933 280.859 468.975C281.099 469.039 281.265 469.158 281.368 469.339C281.553 469.663 281.487 469.822 281.419 469.915C280.907 470.625 278.125 470.641 276.081 470.353C277.101 469.829 279.069 468.915 280.355 468.915ZM278.611 471.048C280.023 471.048 281.385 470.853 281.843 470.218C282.001 469.997 282.128 469.618 281.821 469.08C281.648 468.778 281.371 468.573 280.995 468.47C279.163 467.972 275.32 470.164 275.157 470.257L275.029 470.525L275.236 470.739C275.937 470.878 277.296 471.048 278.611 471.048Z" fill="#406FBF"/>
<path d="M277.971 466.284L278.127 466.293C278.596 466.34 278.625 466.525 278.636 466.585C278.756 467.332 276.969 469.201 275.613 470.016C275.755 469.151 276.148 467.377 277.065 466.624C277.343 466.396 277.64 466.284 277.971 466.284ZM275.287 470.744L275.393 470.721C276.721 470.125 279.351 467.745 279.151 466.502C279.103 466.211 278.896 465.847 278.18 465.773C277.649 465.725 277.161 465.871 276.735 466.221C275.336 467.371 275.039 470.333 275.028 470.459L275.135 470.696L275.287 470.744Z" fill="#406FBF"/>
<path d="M263.191 470.484H274.191L275.287 445.009H264.287L263.191 470.484Z" fill="#F46B74"/>
<path d="M180.94 447.253L191.14 450.057L204.199 426.172L193.999 423.369L180.94 447.253Z" fill="#F46B74"/>
<path d="M192.668 448.939L181.665 443.311C181.265 443.105 180.777 443.206 180.489 443.553L174.103 451.268C173.44 452.068 173.712 453.285 174.645 453.742C178.52 455.641 180.501 456.372 185.339 458.847C188.316 460.369 197.169 466.953 201.637 468.117C206.007 469.256 207.84 465.016 206.115 464.139C198.381 460.208 195.255 453.761 193.949 450.354C193.715 449.74 193.253 449.239 192.668 448.939Z" fill="#17282F"/>
<path d="M274.119 469.209H262.105C261.656 469.209 261.267 469.521 261.168 469.961L258.996 479.739C258.771 480.752 259.54 481.713 260.579 481.696C264.912 481.621 271.173 481.368 276.62 481.368C282.989 481.368 288.489 481.715 295.957 481.715C300.473 481.715 301.727 477.149 299.836 476.736C291.231 474.853 284.205 474.652 276.768 470.066C275.96 469.568 275.068 469.209 274.119 469.209Z" fill="#17282F"/>
<path d="M226.853 148.5C225.707 151.456 224.444 154.337 223.172 157.039C220.979 161.712 218.795 165.795 217.205 168.616C215.789 171.156 214.864 172.66 214.864 172.66L190.836 160.743C190.836 160.743 200.517 132.913 210.624 129.816C220.98 126.671 232.041 135.232 226.853 148.5Z" fill="#406FBF"/>
<path d="M213.032 171.75L210.076 170.285L193.563 162.096L190.836 160.742C190.836 160.742 200.517 132.913 210.624 129.816C211.779 129.465 212.945 129.26 214.095 129.19C211.948 129.55 210.624 129.816 210.624 129.816C212.432 138.648 213.62 147.541 214.372 156.176C212.863 161.193 212.249 166.472 212.111 171.293L213.032 171.75Z" fill="#254583"/>
<path d="M214.867 172.663L213.032 171.751L214.864 172.66C214.864 172.66 215.024 172.4 215.313 171.913C215.313 171.915 215.313 171.915 215.313 171.917C215.025 172.403 214.867 172.663 214.867 172.663Z" fill="#3563B7"/>
<path d="M214.864 172.66L213.032 171.751L212.111 171.293C212.249 166.472 212.863 161.193 214.372 156.176C214.84 161.547 215.14 166.823 215.313 171.913C215.024 172.4 214.864 172.66 214.864 172.66Z" fill="#213664"/>
<path d="M277.661 166.248C277.661 169.991 277.571 174.109 277.361 178.645C276.823 190.984 275.475 206.363 272.899 225.469H214.068C213.664 216.44 219.337 172.372 210.624 129.816C210.624 129.816 220.716 127.795 230.329 127.331C237.845 126.971 248.732 126.732 255.335 127.331C264.049 128.14 272.255 130.385 272.255 130.385C272.255 130.385 277.676 136.509 277.661 166.248Z" fill="#406FBF"/>
<path d="M272.899 225.469H214.068C214.053 225.152 214.047 224.791 214.047 224.388C214.045 218.396 215.513 203.156 215.513 183.909C215.513 180.056 215.455 176.045 215.313 171.913C215.14 166.823 214.84 161.547 214.372 156.176C213.62 147.541 212.432 138.648 210.624 129.816C210.624 129.816 220.716 127.795 230.329 127.331C234.536 127.129 239.8 126.965 244.777 126.965C248.691 126.965 252.428 127.067 255.335 127.331C259.807 127.745 264.145 128.54 267.309 129.213C267.084 129.203 266.863 129.197 266.643 129.197C259.96 129.197 255.241 133.997 255.249 141.063C255.249 141.232 255.252 141.403 255.257 141.576C255.605 152.087 277.255 176.305 277.255 176.305L277.465 176.168C277.435 176.98 277.4 177.805 277.361 178.645C277.359 178.7 277.357 178.753 277.355 178.807C277.209 182.08 277.008 185.568 276.743 189.281C276.453 193.311 276.089 197.605 275.639 202.184C275.592 202.655 275.544 203.131 275.496 203.608C274.821 210.289 273.965 217.559 272.899 225.469Z" fill="#254583"/>
<path d="M279.549 140.703C280.025 141.621 280.973 143.149 281.853 144.528C282.768 145.94 283.737 147.383 284.729 148.817C286.733 151.676 288.808 154.537 290.987 157.292C295.3 162.812 299.928 168.133 304.791 172.44C305.999 173.507 307.219 174.501 308.427 175.375L308.879 175.693L309.105 175.855L309.219 175.935L309.14 175.895C308.94 175.825 308.649 175.701 308.352 175.672C307.74 175.557 307.179 175.687 307.088 175.785C306.876 176.031 307.892 175.735 308.869 175.045C309.884 174.353 311.071 173.401 312.207 172.301C316.832 167.843 321.311 161.841 325.585 156.155L333.989 160.215C332.783 164.091 331.365 167.656 329.651 171.267C328.808 173.068 327.881 174.844 326.863 176.612C325.857 178.389 324.749 180.147 323.468 181.888C322.181 183.629 320.789 185.4 318.936 187.108C318.009 187.965 316.973 188.823 315.715 189.644C314.452 190.456 312.972 191.261 311.025 191.809C309.127 192.375 306.645 192.553 304.216 191.992C303.024 191.703 301.843 191.269 300.839 190.719L300.452 190.512L300.269 190.407L299.901 190.193L299.168 189.765C297.24 188.611 295.452 187.38 293.745 186.108C287.017 180.956 281.499 175.188 276.377 169.135C273.859 166.077 271.419 162.977 269.144 159.709C267.996 158.081 266.88 156.421 265.797 154.676C264.691 152.892 263.689 151.223 262.528 148.781L279.549 140.703Z" fill="#F46B74"/>
<path d="M325.755 156.047L332.084 146.772L339.745 158.055C339.745 158.055 333.628 163.215 328.469 162.664L325.755 156.047Z" fill="#F46B74"/>
<path d="M344.291 142.312L346.153 153.237L339.745 158.055L332.084 146.772L344.291 142.312Z" fill="#F46B74"/>
<path d="M255.257 141.576C255.605 152.087 277.255 176.305 277.255 176.305L300.131 161.365C300.131 161.365 292.877 147.797 283.46 137.977C269.252 123.165 254.841 128.96 255.257 141.576Z" fill="#406FBF"/>
<path d="M277.255 176.305C277.255 176.305 255.605 152.087 255.257 141.576C255.252 141.403 255.249 141.232 255.249 141.063C255.241 133.997 259.96 129.197 266.643 129.197C271.553 129.197 277.524 131.789 283.46 137.977C292.877 147.797 300.131 161.365 300.131 161.365L296.36 163.828L280.705 174.052L277.255 176.305Z" fill="#254583"/>
<path d="M263.721 458.146H263.717L264.279 445.016H264.287L263.721 458.146Z" fill="#C3C5C2"/>
<path d="M274.721 458.146H263.721L264.287 445.016H275.284L274.721 458.146Z" fill="#EA5B5B"/>
<path d="M187.264 435.687L187.257 435.685L188.691 433.064L188.697 433.066L187.264 435.687Z" fill="#BABCBA"/>
<path d="M197.461 438.489L187.264 435.687L188.697 433.066L198.771 436.096L197.461 438.489Z" fill="#EA5B5B"/>
<path d="M235.737 90.4132C234.761 101.288 233.637 107.603 238.237 113.959C245.159 123.52 259.205 120.608 263.411 110.245C267.195 100.917 268.156 84.7025 258.263 78.8119C248.515 73.0092 236.713 79.5398 235.737 90.4132Z" fill="#F46B74"/>
<path d="M255.999 97.9413C257.848 95.404 264.276 87.376 262.659 80.4173C260.965 73.128 251.54 70.068 247.864 69.6934C250.321 72.2347 243.204 70.0147 239.589 71.292C242.8 74.1987 233.797 71.1827 231.293 74.5493C237.839 76.4773 227.731 78.4867 225.913 81.02C229.077 81.4747 229.337 82.6213 229.788 84.3173C228.633 85.7467 229.291 110.924 237.477 114.248C245.239 117.4 259.199 109.007 255.999 97.9413Z" fill="#17282F"/>
<path d="M260.913 72.9666C262.375 74.216 259.452 74.6213 255.875 73.028L257.089 83.7813C260.6 87.1 268.071 91.4666 269.712 83.532C271.353 75.596 264.424 73.352 260.913 72.9666Z" fill="#17282F"/>
<path d="M252.271 95.7038C251.787 97.9451 252.231 100.306 253.084 102.006C254.365 104.565 256.655 103.834 257.676 101.44C258.597 99.2851 259.039 95.3571 257.088 93.5985C255.167 91.8665 252.824 93.1398 252.271 95.7038Z" fill="#F46B74"/>
<path d="M252.035 225.469C252.035 225.469 257.225 308.708 247.387 339.4C231.803 388.016 204.025 437.675 204.025 437.675L184.157 431.701C184.157 431.701 206.005 379.28 213.191 338.328C219.647 301.539 214.069 255.519 214.069 225.469C227.775 225.469 252.035 225.469 252.035 225.469Z" fill="#17282F"/>
<path d="M252.123 310.415C247.737 294.853 238.94 260.844 241.872 247.945C242.641 244.568 244.908 243.213 248.04 243.213C249.488 243.213 251.121 243.503 252.876 244.016C253.489 261.456 253.901 288.12 252.123 310.415Z" fill="#111D23"/>
<path d="M209.633 431.98L204.449 438.13L182.743 431.602L185.501 424.257L209.633 431.98Z" fill="#406FBF"/>
<path d="M272.907 225.469C272.907 225.469 289.475 295.697 290.641 329.244C291.951 366.865 278.82 455.604 278.82 455.604H260.185C260.185 455.604 257.892 366.175 257.063 331.907C256.159 294.549 234.231 225.469 234.231 225.469H272.907Z" fill="#17282F"/>
<path d="M282.407 448.182L281.355 455.918H258.687L258.075 449.013L282.407 448.182Z" fill="#406FBF"/>
</g>
<defs>
<clipPath id="clip0">
<rect width="666.667" height="496.813" fill="white"/>
</clipPath>
</defs>
</svg>
