<svg width="23" height="23" viewBox="0 0 23 23" fill="none" xmlns="http://www.w3.org/2000/svg">
<g clip-path="url(#clip0)">
<path d="M22.1316 9.50057L12.7501 9.50012C12.3358 9.50012 12 9.83587 12 10.2501V13.2471C12 13.6613 12.3358 13.9971 12.75 13.9971H18.0331C17.4546 15.4985 16.3749 16.7558 14.9973 17.5547L17.25 21.4543C20.8636 19.3644 23 15.6975 23 11.5926C23 11.0081 22.9569 10.5903 22.8708 10.1198C22.8053 9.76238 22.495 9.50057 22.1316 9.50057Z" fill="#167EE6"/>
<path d="M11.5 18.5C8.91456 18.5 6.65751 17.0874 5.44529 14.9971L1.54581 17.2447C3.53023 20.684 7.24769 23 11.5 23C13.586 23 15.5544 22.4384 17.25 21.4596V21.4542L14.9973 17.5546C13.9669 18.1522 12.7745 18.5 11.5 18.5Z" fill="#12B347"/>
<path d="M17.25 21.4595V21.4541L14.9973 17.5544C13.9669 18.152 12.7746 18.4999 11.5 18.4999V22.9999C13.586 22.9999 15.5545 22.4383 17.25 21.4595Z" fill="#0F993E"/>
<path d="M4.5 11.5001C4.5 10.2257 4.84779 9.03343 5.44529 8.00305L1.54581 5.75543C0.561613 7.44571 0 9.4087 0 11.5001C0 13.5915 0.561613 15.5545 1.54581 17.2447L5.44529 14.9971C4.84779 13.9667 4.5 12.7745 4.5 11.5001Z" fill="#FFD500"/>
<path d="M11.5 4.5C13.186 4.5 14.7346 5.09908 15.9442 6.09558C16.2426 6.3414 16.6763 6.32365 16.9497 6.0503L19.0732 3.92685C19.3833 3.61671 19.3612 3.10904 19.0299 2.82163C17.0032 1.06344 14.3663 0 11.5 0C7.24769 0 3.53023 2.31604 1.54581 5.75535L5.44529 8.00297C6.65751 5.91262 8.91457 4.5 11.5 4.5Z" fill="#FF4B26"/>
<path d="M15.9442 6.09558C16.2426 6.3414 16.6764 6.32365 16.9497 6.0503L19.0732 3.92685C19.3832 3.61671 19.3611 3.10904 19.0299 2.82163C17.0032 1.06339 14.3663 0 11.5 0V4.5C13.1859 4.5 14.7346 5.09908 15.9442 6.09558Z" fill="#D93F21"/>
</g>
<defs>
<clipPath id="clip0">
<rect width="23" height="23" rx="6" fill="white"/>
</clipPath>
</defs>
</svg>
