<svg width="623" height="623" viewBox="0 0 623 623" fill="none" xmlns="http://www.w3.org/2000/svg">
<path d="M260.426 194.407C261.42 198.491 263.213 204.945 263.213 204.945C263.071 206.718 262.547 214.103 261.923 223.152L275.226 217.829C275.226 217.829 275.067 203.083 275.66 202.182C276.162 201.419 277.006 202.369 281.083 196.535C282.26 194.85 282.481 191.841 282.481 191.841C282.481 191.841 282.723 188.137 281.891 187.791C281.06 187.448 280.106 188 279.805 188.641C279.503 189.28 279.581 190.772 279.279 191.411C278.978 192.052 277.054 192.822 276.244 192.784C275.434 192.744 276.345 181.826 276.345 181.826C276.345 181.826 276.797 178.73 277.027 177.717C277.223 176.854 278.008 174.322 278.008 174.322C278.008 174.322 278.931 170.649 277.791 170.369C277.118 170.201 275.405 173.188 274.23 176.356C272.965 179.767 272.248 183.383 271.886 183.337C271.037 183.221 271.487 177.237 271.487 177.237C271.487 177.237 272.333 174.493 272.312 173.2C273.111 171.615 273.642 168.674 272.234 168.431C271.974 168.388 270.119 172.123 270.119 172.123C270.119 172.123 269.39 174.752 268.966 175.982C268.216 178.15 268.103 181.573 267.712 183.084C267.386 184.34 267.092 183.823 266.958 183.875C266.855 183.916 267.036 182.184 267.244 179.804C267.348 178.605 267.21 177.222 267.546 175.854C267.856 174.59 268.035 172.78 268.115 171.686C268.343 168.59 266.394 168.908 265.72 171.736C265.463 172.817 265.193 173.992 264.924 175.185C263.878 179.826 263.907 184.296 263.406 184.333C262.757 184.383 263.185 176.244 263.185 176.244C263.185 176.244 262.188 171.736 261.198 175.92C260.049 180.77 260.168 184.726 260.184 184.903C260.289 186.087 259.433 190.324 260.426 194.407Z" fill="#F8A492"/>
<path d="M401.62 183.648C400.626 187.732 398.832 194.186 398.832 194.186C398.975 195.962 399.499 203.344 400.122 212.396L386.821 207.073C386.821 207.073 386.98 192.323 386.385 191.423C385.883 190.66 385.042 191.613 380.964 185.776C379.787 184.093 379.566 181.084 379.566 181.084C379.566 181.084 379.323 177.381 380.155 177.035C380.986 176.689 381.939 177.244 382.242 177.882C382.544 178.524 382.466 180.013 382.768 180.655C383.067 181.293 384.992 182.066 385.802 182.025C386.612 181.985 385.702 171.067 385.702 171.067C385.702 171.067 385.248 167.973 385.02 166.958C384.824 166.095 384.039 163.563 384.039 163.563C384.039 163.563 383.114 159.89 384.257 159.61C384.927 159.445 386.643 162.429 387.818 165.597C389.082 169.008 389.799 172.627 390.16 172.577C391.01 172.462 390.559 166.478 390.559 166.478C390.559 166.478 389.715 163.737 389.736 162.441C388.936 160.859 388.406 157.918 389.811 157.672C390.073 157.629 391.926 161.363 391.926 161.363C391.926 161.363 392.655 163.996 393.082 165.223C393.829 167.391 393.945 170.814 394.334 172.325C394.661 173.58 394.954 173.066 395.088 173.119C395.191 173.16 395.01 171.428 394.801 169.045C394.699 167.846 394.836 166.463 394.502 165.095C394.191 163.83 394.013 162.021 393.932 160.927C393.705 157.831 395.652 158.149 396.328 160.98C396.583 162.058 396.854 163.235 397.122 164.429C398.169 169.07 398.141 173.54 398.639 173.577C399.29 173.624 398.863 165.485 398.863 165.485C398.863 165.485 399.86 160.977 400.848 165.161C401.997 170.014 401.879 173.97 401.863 174.144C401.757 175.328 402.614 179.564 401.62 183.648Z" fill="#F8A492"/>
<path d="M365.234 530.631C365.234 530.631 372.61 539.773 374.448 540.901C376.286 542.025 373.625 555.311 368.623 556.183C365.801 556.675 364.234 553.57 364.234 553.57L365.041 549.741L354.506 538.886L365.234 530.631Z" fill="#F7A491"/>
<path d="M327.237 532.889C327.237 532.889 333.383 542.901 335.062 544.253C336.741 545.602 332.408 558.442 327.334 558.666C324.471 558.794 323.312 555.513 323.312 555.513L324.605 551.819L315.54 539.705L327.237 532.889Z" fill="#F7A491"/>
<path d="M334.691 543.857C334.691 543.857 331.162 548.361 329.234 550.153C326.748 552.467 323.561 554.729 323.561 554.729C323.561 554.729 319.954 561.276 318.97 563.56C316.774 568.646 314.307 574.316 314.665 577.163C314.777 578.076 316.833 579.044 318.543 578.518C325.667 576.328 343.884 559.663 346.186 555.19C348.836 550.031 334.691 543.857 334.691 543.857Z" fill="#13375B"/>
<path d="M282.693 391.362C283.355 389.509 283.99 387.796 284.603 386.185C292.18 387.839 300.74 389.659 309.544 391.534L310.617 423.808C310.612 421.316 303.997 475.281 303.997 475.281C303.997 475.281 321.107 513.159 332.81 535.238C328.006 541.231 325.751 543.163 318.798 547.246C300.632 525.473 276.861 485.626 275.873 479C275.306 475.187 274.795 413.582 282.693 391.362Z" fill="#3C8F7C"/>
<path d="M350.328 400.695C348.014 425.842 342.865 473.916 343.295 477.782C344.588 482.604 367.489 527.089 371.61 533.565C368.336 538.493 363.268 543.823 357.82 545.293C356.745 545.586 318.957 491.809 316.895 487.541C314.565 482.716 310.686 456.394 310.617 423.808L309.544 391.534C324.212 394.661 337.703 397.729 350.328 400.695Z" fill="#50BFA5"/>
<path d="M302.154 286.066L319.421 288.437C319.421 288.437 333.236 288.686 334.947 288.686C336.66 288.686 347.537 351.765 350.677 375.47C353.814 399.178 351.384 403.374 351.384 403.374C351.384 403.374 329.489 408.299 313.291 406.863C296.448 405.371 277.497 396.278 277.497 396.278C277.497 396.278 291.895 350.721 294.749 336.498C297.603 322.275 302.154 286.066 302.154 286.066Z" fill="#355389"/>
<path d="M260.283 209.758C260.283 209.758 259.175 256.723 260.946 260.314C263.521 265.541 292.517 302.594 292.517 302.594C292.517 302.594 278.666 360.561 272.842 380.578C272.256 382.594 269.66 395.614 269.66 396.885C269.66 399.698 281.914 403.271 283.368 403.059C284.67 402.872 295.361 347.731 302.187 320.752C304.5 311.609 308.467 302.968 313.895 295.255L318.643 288.511L282.214 252C282.214 252 277.725 211.359 277.725 207.992C277.725 207.107 262.05 206.447 260.283 209.758Z" fill="#86B1F2"/>
<path d="M334.352 288.689L379.778 242.403C379.778 242.403 386.107 198.634 386.556 196.987C386.998 195.367 398.278 194.491 402.826 194.049C404.283 193.906 402.062 240.668 399.888 248.505C397.318 257.766 362.985 299.953 362.985 299.953C362.985 299.953 356.83 322.804 358.312 339.566C360.773 367.405 367.408 405.701 366.221 406.903C358.839 411.551 330.505 412.049 328.71 409.161C308.907 377.267 334.352 288.689 334.352 288.689Z" fill="#86B1F2"/>
<path d="M374.031 540.559C374.031 540.559 371.102 545.474 369.42 547.499C367.249 550.109 364.38 552.76 364.38 552.76C364.38 552.76 361.639 559.713 360.954 562.108C359.424 567.432 357.702 573.858 358.418 576.636C358.645 577.527 360.608 579.234 362.228 578.178C368.473 574.11 385.167 555.056 386.877 550.327C388.849 544.87 374.031 540.559 374.031 540.559Z" fill="#13375B"/>
<path d="M320.695 228.383C322.627 228.454 324.561 228.439 326.486 228.267C328.664 228.074 331.445 227.934 333.04 228.27C336.398 228.981 341.728 231.364 343.507 235.768C345.721 241.254 353.646 240.434 344.26 261.243C333.635 284.792 321.219 277.082 321.047 276.55C320.876 276.02 314.911 256.601 314.911 256.601C314.911 256.601 307.48 263.965 307.604 263.641C307.723 263.323 297.489 227.545 320.695 228.383Z" fill="#0E2E35"/>
<path d="M319.655 279.883L318.418 289.097C318.418 289.097 315.646 302.373 319.213 304.931C322.779 307.491 334.383 288.72 334.383 288.72L333.155 265.37L319.655 279.883Z" fill="#F7A491"/>
<path d="M333.551 272.939C330.604 280.901 323.586 285.795 318.605 287.695L319.655 279.883L333.156 265.37L333.551 272.939Z" fill="#F47458"/>
<path d="M329.118 238.964C322.477 235.155 313.989 238.447 311.494 245.593C310.409 248.699 309.211 252.636 308.289 257.016C306.071 267.547 309.553 278.874 314.338 279.783C319.122 280.696 333.657 276.375 337.012 261.464C339.086 252.256 336.09 242.964 329.118 238.964Z" fill="#F7A491"/>
<path d="M333.261 261.978C332.813 264.311 333.993 266.495 335.893 266.856C337.794 267.217 339.697 265.622 340.142 263.289C340.591 260.959 339.413 258.776 337.51 258.414C335.61 258.05 333.707 259.648 333.261 261.978Z" fill="#F7A491"/>
<path d="M337.51 258.414C337.51 258.414 331.576 257.713 330.878 253.461C330.181 249.209 325.823 238.958 315.487 238.628C305.152 238.294 326.411 234.074 327.143 234.348C327.875 234.625 336.688 237.883 336.688 237.883C336.688 237.883 341.36 246.013 341.373 246.717C341.385 247.421 340.821 254.835 340.821 254.835L337.51 258.414Z" fill="#0E2E35"/>
<path d="M322.085 269.23L311.495 267.392C311.495 267.392 311.033 271.466 315.665 272.41C321.315 273.563 322.085 269.23 322.085 269.23Z" fill="white"/>
<path d="M488.596 168.926L488.812 170.914L488.596 168.926C492.279 168.525 494.943 165.21 494.543 161.527L488.534 106.335L490.522 106.119L488.534 106.335C488.133 102.653 484.819 99.9904 481.135 100.391L165.604 134.737L165.604 134.737C161.919 135.138 159.257 138.45 159.658 142.136L157.671 142.352L159.658 142.136L165.665 197.325C165.665 197.325 165.665 197.325 165.665 197.325C166.067 201.011 169.379 203.672 173.064 203.272C173.064 203.272 173.064 203.272 173.064 203.272L488.596 168.926Z" stroke="#F7CC7F" stroke-width="4"/>
<path d="M183.644 193.103C186.195 191.014 188.747 188.925 191.298 186.834C192.656 181.58 194.012 176.324 195.37 171.069C192.481 171.898 189.591 172.725 186.703 173.554C185.683 180.07 184.664 186.586 183.644 193.103Z" fill="#F6CC7E"/>
<path d="M191.298 186.834C193.849 184.745 196.401 182.656 198.952 180.565C198.227 173.904 197.502 167.242 196.777 160.58C196.309 164.077 195.839 167.573 195.37 171.069C194.012 176.324 192.656 181.58 191.298 186.834Z" fill="#F6CC7E"/>
<path d="M186.703 173.554C189.592 172.725 192.481 171.898 195.37 171.07C195.051 170.442 194.73 169.814 194.409 169.186C190.919 170.05 187.428 170.915 183.935 171.779C184.859 172.371 185.781 172.962 186.703 173.554Z" fill="#F6CC7E"/>
<path d="M195.37 171.069C195.839 167.573 196.309 164.077 196.777 160.58C196.657 159.474 196.536 158.367 196.416 157.261C195.747 161.236 195.078 165.211 194.409 169.186C194.73 169.814 195.051 170.441 195.37 171.069Z" fill="#F6CC7E"/>
<path d="M183.935 171.779C187.428 170.915 190.919 170.05 194.409 169.186C192.803 166.036 191.194 162.886 189.587 159.737C183.074 160.78 176.561 161.825 170.049 162.868C174.678 165.839 179.307 168.808 183.935 171.779Z" fill="#F6CC7E"/>
<path d="M194.409 169.186C195.078 165.211 195.747 161.236 196.416 157.261C195.811 151.704 195.206 146.151 194.602 140.595C192.93 146.975 191.257 153.355 189.586 159.737C191.194 162.886 192.802 166.036 194.409 169.186Z" fill="#F6CC7E"/>
<path d="M198.952 180.565C201.894 182.057 204.836 183.549 207.777 185.04C205.321 180.202 202.864 175.36 200.408 170.521C199.198 167.207 197.988 163.894 196.777 160.58C197.502 167.242 198.227 173.904 198.952 180.565Z" fill="#F6CC7E"/>
<path d="M207.776 185.041C210.718 186.532 213.659 188.024 216.601 189.516C214.203 183.371 211.805 177.227 209.407 171.082C206.407 170.895 203.407 170.708 200.408 170.521C202.864 175.36 205.321 180.202 207.776 185.041Z" fill="#F6CC7E"/>
<path d="M196.778 160.58C197.988 163.894 199.198 167.207 200.408 170.521C200.586 169.839 200.764 169.157 200.941 168.475C199.432 164.737 197.924 160.998 196.416 157.261C196.536 158.367 196.658 159.474 196.778 160.58Z" fill="#F6CC7E"/>
<path d="M200.408 170.521C203.407 170.708 206.407 170.895 209.407 171.082C210.18 170.306 210.953 169.529 211.728 168.754C208.131 168.66 204.537 168.568 200.94 168.475C200.764 169.157 200.586 169.839 200.408 170.521Z" fill="#F6CC7E"/>
<path d="M196.416 157.261C197.924 160.998 199.432 164.737 200.941 168.475C201.834 165.053 202.725 161.631 203.618 158.208C200.613 152.337 197.607 146.466 194.602 140.595C195.206 146.151 195.811 151.704 196.416 157.261Z" fill="#F6CC7E"/>
<path d="M200.94 168.475C204.537 168.568 208.131 168.66 211.728 168.754C215.609 164.857 219.491 160.96 223.372 157.064C216.788 157.445 210.203 157.827 203.618 158.208C202.725 161.631 201.833 165.053 200.94 168.475Z" fill="#F6CC7E"/>
<path d="M197.645 168.564C199.636 165.112 201.627 161.66 203.618 158.208C200.995 153.085 198.371 147.96 195.748 142.835C195.366 142.089 194.983 141.342 194.601 140.596C195.616 149.918 196.631 159.241 197.645 168.564Z" fill="#E4B05C"/>
<path d="M197.646 168.565C201.567 169.404 205.488 170.243 209.408 171.082C210.186 168.143 210.964 165.204 211.742 162.263C207.851 164.002 203.961 165.742 200.07 167.481C199.262 167.842 198.455 168.204 197.646 168.565Z" fill="#E4B05C"/>
<path d="M209.408 171.082C212.228 168.252 215.047 165.421 217.867 162.591C219.703 160.749 221.538 158.906 223.374 157.065C219.496 158.797 215.619 160.53 211.742 162.263C210.964 165.204 210.186 168.143 209.408 171.082Z" fill="#E4B05C"/>
<path d="M172.649 163.406C180.981 165.125 189.313 166.845 197.646 168.565C194.96 165.622 192.273 162.679 189.586 159.737C183.074 160.781 176.561 161.825 170.049 162.869C170.915 163.048 171.782 163.227 172.649 163.406Z" fill="#E4B05C"/>
<path d="M183.644 193.103C185.251 190.288 186.857 187.473 188.464 184.657C191.524 179.293 194.586 173.929 197.647 168.565C193.998 170.228 190.351 171.891 186.703 173.554C185.683 180.07 184.664 186.587 183.644 193.103Z" fill="#E4B05C"/>
<path d="M204.281 183.2C208.388 185.305 212.495 187.411 216.602 189.516C215.218 187.987 213.835 186.458 212.451 184.928C207.948 183.44 203.445 181.951 198.942 180.463C200.722 181.375 202.501 182.287 204.281 183.2Z" fill="#E4B05C"/>
<path d="M198.942 180.463C203.445 181.952 207.948 183.44 212.451 184.928C209.691 181.878 206.93 178.827 204.171 175.776C201.997 173.372 199.822 170.969 197.647 168.565C198.079 172.531 198.511 176.497 198.942 180.463Z" fill="#E4B05C"/>
<path d="M248.51 186.04C251.062 183.951 253.614 181.861 256.164 179.772C257.521 174.517 258.878 169.262 260.236 164.005C257.349 164.834 254.459 165.662 251.57 166.491C250.55 173.006 249.53 179.524 248.51 186.04Z" fill="#F6CC7E"/>
<path d="M256.163 179.772C258.715 177.683 261.267 175.594 263.819 173.502C263.094 166.841 262.37 160.179 261.643 153.517C261.175 157.013 260.705 160.509 260.236 164.005C258.878 169.263 257.521 174.518 256.163 179.772Z" fill="#F6CC7E"/>
<path d="M251.57 166.491C254.459 165.663 257.349 164.834 260.236 164.005C259.917 163.38 259.596 162.752 259.277 162.124C255.786 162.988 252.294 163.852 248.803 164.716C249.724 165.309 250.647 165.899 251.57 166.491Z" fill="#F6CC7E"/>
<path d="M260.236 164.005C260.705 160.509 261.175 157.013 261.643 153.517C261.522 152.412 261.402 151.305 261.281 150.198C260.613 154.173 259.945 158.149 259.277 162.124C259.596 162.752 259.917 163.38 260.236 164.005Z" fill="#F6CC7E"/>
<path d="M248.803 164.716C252.294 163.852 255.786 162.988 259.277 162.124C257.667 158.975 256.06 155.823 254.452 152.674C247.939 153.718 241.428 154.761 234.915 155.807C239.544 158.777 244.174 161.746 248.803 164.716Z" fill="#F6CC7E"/>
<path d="M259.277 162.124C259.945 158.149 260.613 154.173 261.281 150.198C260.677 144.643 260.073 139.089 259.468 133.534C257.797 139.913 256.123 146.293 254.452 152.674C256.06 155.823 257.667 158.975 259.277 162.124Z" fill="#F6CC7E"/>
<path d="M263.819 173.502C266.761 174.994 269.702 176.486 272.643 177.978C270.186 173.139 267.731 168.297 265.273 163.458C264.065 160.146 262.854 156.831 261.643 153.517C262.37 160.179 263.094 166.841 263.819 173.502Z" fill="#F6CC7E"/>
<path d="M272.644 177.978C275.585 179.47 278.526 180.962 281.468 182.454C279.069 176.309 276.671 170.164 274.275 164.019C271.274 163.833 268.274 163.647 265.273 163.458C267.731 168.297 270.186 173.139 272.644 177.978Z" fill="#F6CC7E"/>
<path d="M261.642 153.517C262.854 156.831 264.065 160.146 265.273 163.458C265.453 162.776 265.63 162.096 265.807 161.413C264.298 157.674 262.79 153.937 261.281 150.198C261.402 151.305 261.522 152.412 261.642 153.517Z" fill="#F6CC7E"/>
<path d="M265.273 163.458C268.274 163.646 271.274 163.833 274.275 164.019C275.047 163.243 275.821 162.466 276.593 161.692C272.998 161.597 269.402 161.505 265.807 161.413C265.63 162.095 265.453 162.775 265.273 163.458Z" fill="#F6CC7E"/>
<path d="M261.281 150.198C262.79 153.937 264.298 157.674 265.807 161.413C266.701 157.99 267.591 154.567 268.484 151.147C265.478 145.276 262.473 139.405 259.468 133.534C260.072 139.089 260.677 144.643 261.281 150.198Z" fill="#F6CC7E"/>
<path d="M265.807 161.413C269.402 161.505 272.997 161.597 276.593 161.692C280.476 157.794 284.357 153.897 288.238 150.002C281.654 150.382 275.07 150.764 268.484 151.147C267.591 154.567 266.702 157.99 265.807 161.413Z" fill="#F6CC7E"/>
<path d="M262.512 161.503C266.433 162.34 270.355 163.18 274.274 164.019C275.052 161.081 275.831 158.141 276.607 155.2C272.717 156.94 268.827 158.679 264.936 160.419C264.128 160.779 263.32 161.14 262.512 161.503Z" fill="#E4B05C"/>
<path d="M274.274 164.02C277.094 161.189 279.912 158.36 282.733 155.529C284.568 153.686 286.403 151.844 288.24 150.003C284.361 151.735 280.484 153.469 276.607 155.2C275.831 158.141 275.052 161.081 274.274 164.02Z" fill="#E4B05C"/>
<path d="M237.516 156.343C245.85 158.062 254.183 159.784 262.515 161.503C259.828 158.56 257.141 155.617 254.455 152.676C247.943 153.718 241.43 154.762 234.917 155.807C235.783 155.986 236.65 156.165 237.516 156.343Z" fill="#E4B05C"/>
<path d="M248.513 186.042C250.119 183.227 251.727 180.411 253.333 177.595C256.394 172.231 259.456 166.867 262.517 161.503C258.868 163.165 255.22 164.828 251.571 166.493C250.553 173.008 249.534 179.525 248.513 186.042Z" fill="#E4B05C"/>
<path d="M269.147 176.137C273.253 178.242 277.361 180.349 281.467 182.454C280.084 180.924 278.701 179.395 277.317 177.867C272.814 176.377 268.31 174.889 263.809 173.4C265.588 174.314 267.368 175.225 269.147 176.137Z" fill="#E4B05C"/>
<path d="M263.809 173.4C268.31 174.888 272.814 176.377 277.317 177.867C274.556 174.815 271.798 171.764 269.037 168.714C266.862 166.31 264.688 163.907 262.513 161.504C262.945 165.469 263.377 169.435 263.809 173.4Z" fill="#E4B05C"/>
<path d="M313.379 178.982C315.931 176.893 318.483 174.804 321.035 172.712C322.391 167.459 323.75 162.202 325.105 156.949C322.218 157.776 319.327 158.602 316.439 159.432C315.419 165.948 314.399 172.466 313.379 178.982Z" fill="#F6CC7E"/>
<path d="M321.035 172.712C323.584 170.623 326.136 168.534 328.688 166.445C327.962 159.781 327.239 153.121 326.513 146.46C326.046 149.957 325.576 153.453 325.105 156.949C323.75 162.202 322.391 167.459 321.035 172.712Z" fill="#F6CC7E"/>
<path d="M316.439 159.432C319.327 158.602 322.218 157.776 325.105 156.949C324.787 156.32 324.466 155.694 324.147 155.064C320.655 155.929 317.162 156.793 313.673 157.658C314.596 158.249 315.516 158.841 316.439 159.432Z" fill="#F6CC7E"/>
<path d="M325.105 156.949C325.576 153.453 326.046 149.957 326.513 146.461C326.392 145.354 326.271 144.247 326.153 143.141C325.482 147.114 324.815 151.091 324.147 155.065C324.465 155.694 324.787 156.32 325.105 156.949Z" fill="#F6CC7E"/>
<path d="M313.673 157.658C317.162 156.794 320.655 155.929 324.147 155.065C322.539 151.914 320.928 148.764 319.323 145.613C312.808 146.658 306.296 147.702 299.784 148.746C304.415 151.717 309.042 154.688 313.673 157.658Z" fill="#F6CC7E"/>
<path d="M324.147 155.064C324.815 151.091 325.482 147.114 326.153 143.141C325.548 137.583 324.943 132.029 324.338 126.475C322.667 132.852 320.994 139.233 319.323 145.613C320.928 148.764 322.539 151.914 324.147 155.064Z" fill="#F6CC7E"/>
<path d="M328.688 166.445C331.631 167.936 334.571 169.427 337.514 170.92C335.058 166.079 332.599 161.237 330.144 156.399C328.934 153.086 327.723 149.773 326.513 146.46C327.239 153.121 327.962 159.781 328.688 166.445Z" fill="#F6CC7E"/>
<path d="M337.514 170.92C340.453 172.411 343.396 173.901 346.335 175.395C343.939 169.25 341.542 163.105 339.142 156.96C336.144 156.773 333.142 156.586 330.144 156.399C332.599 161.237 335.058 166.079 337.514 170.92Z" fill="#F6CC7E"/>
<path d="M326.513 146.461C327.723 149.774 328.934 153.087 330.144 156.4C330.32 155.718 330.5 155.037 330.677 154.356C329.169 150.614 327.661 146.879 326.153 143.141C326.271 144.247 326.392 145.354 326.513 146.461Z" fill="#F6CC7E"/>
<path d="M330.144 156.399C333.142 156.586 336.144 156.772 339.142 156.959C339.917 156.185 340.688 155.406 341.463 154.632C337.87 154.538 334.273 154.445 330.677 154.355C330.5 155.036 330.32 155.718 330.144 156.399Z" fill="#F6CC7E"/>
<path d="M326.153 143.14C327.661 146.879 329.169 150.614 330.677 154.355C331.569 150.932 332.461 147.508 333.353 144.088C330.348 138.216 327.343 132.344 324.338 126.475C324.943 132.029 325.548 137.583 326.153 143.14Z" fill="#F6CC7E"/>
<path d="M330.677 154.356C334.273 154.446 337.87 154.539 341.463 154.632C345.343 150.735 349.227 146.838 353.11 142.944C346.522 143.324 339.938 143.704 333.354 144.088C332.461 147.508 331.569 150.932 330.677 154.356Z" fill="#F6CC7E"/>
<path d="M327.382 154.441C329.371 150.991 331.363 147.54 333.355 144.087C330.728 138.964 328.108 133.84 325.485 128.713C325.1 127.968 324.718 127.22 324.336 126.475C325.353 135.797 326.366 145.119 327.382 154.441Z" fill="#E4B05C"/>
<path d="M327.381 154.444C331.303 155.281 335.222 156.122 339.144 156.962C339.92 154.021 340.699 151.08 341.478 148.143C337.585 149.881 333.695 151.619 329.805 153.36C328.997 153.72 328.189 154.082 327.381 154.444Z" fill="#E4B05C"/>
<path d="M339.144 156.962C341.963 154.13 344.782 151.298 347.604 148.47C349.438 146.626 351.272 144.785 353.11 142.944C349.233 144.676 345.356 146.408 341.478 148.142C340.699 151.08 339.92 154.021 339.144 156.962Z" fill="#E4B05C"/>
<path d="M302.385 149.281C310.717 151 319.049 152.72 327.381 154.44C324.696 151.497 322.008 148.554 319.32 145.614C312.808 146.657 306.296 147.7 299.783 148.745C300.651 148.923 301.517 149.103 302.385 149.281Z" fill="#E4B05C"/>
<path d="M313.379 178.978C314.986 176.163 316.593 173.349 318.2 170.534C321.261 165.169 324.322 159.804 327.381 154.442C323.734 156.104 320.087 157.767 316.437 159.429C315.418 165.947 314.4 172.463 313.379 178.978Z" fill="#E4B05C"/>
<path d="M334.016 169.077C338.122 171.182 342.23 173.288 346.338 175.393C344.953 173.864 343.571 172.333 342.186 170.805C337.683 169.317 333.179 167.827 328.678 166.339C330.456 167.25 332.236 168.163 334.016 169.077Z" fill="#E4B05C"/>
<path d="M328.678 166.339C333.179 167.826 337.683 169.317 342.186 170.804C339.425 167.753 336.666 164.702 333.905 161.651C331.732 159.247 329.557 156.843 327.381 154.442C327.815 158.406 328.245 162.371 328.678 166.339Z" fill="#E4B05C"/>
<path d="M378.249 171.92C380.8 169.828 383.351 167.742 385.903 165.651C387.26 160.393 388.618 155.14 389.976 149.883C387.087 150.712 384.198 151.541 381.306 152.37C380.29 158.885 379.269 165.405 378.249 171.92Z" fill="#F6CC7E"/>
<path d="M385.903 165.651C388.454 163.56 391.005 161.473 393.556 159.382C392.832 152.721 392.107 146.056 391.383 139.395C390.914 142.894 390.445 146.389 389.975 149.883C388.618 155.14 387.26 160.393 385.903 165.651Z" fill="#F6CC7E"/>
<path d="M381.305 152.37C384.198 151.541 387.087 150.712 389.975 149.883C389.656 149.259 389.333 148.63 389.014 148.001C385.524 148.867 382.03 149.733 378.54 150.594C379.46 151.186 380.385 151.778 381.305 152.37Z" fill="#F6CC7E"/>
<path d="M389.975 149.883C390.445 146.388 390.914 142.894 391.383 139.395C391.26 138.288 391.142 137.181 391.019 136.074C390.353 140.051 389.684 144.029 389.014 148.001C389.333 148.63 389.657 149.259 389.975 149.883Z" fill="#F6CC7E"/>
<path d="M378.54 150.594C382.03 149.733 385.524 148.867 389.014 148.001C387.406 144.853 385.797 141.701 384.189 138.553C377.679 139.596 371.164 140.639 364.654 141.683C369.283 144.653 373.912 147.623 378.54 150.594Z" fill="#F6CC7E"/>
<path d="M389.014 148.002C389.683 144.029 390.353 140.052 391.018 136.074C390.417 130.521 389.811 124.967 389.205 119.414C387.533 125.792 385.861 132.17 384.189 138.553C385.797 141.701 387.405 144.853 389.014 148.002Z" fill="#F6CC7E"/>
<path d="M393.556 159.382C396.499 160.872 399.438 162.366 402.381 163.856C399.925 159.017 397.47 154.179 395.014 149.336C393.802 146.024 392.59 142.712 391.383 139.395C392.107 146.056 392.832 152.721 393.556 159.382Z" fill="#F6CC7E"/>
<path d="M402.381 163.856C405.324 165.35 408.263 166.84 411.206 168.33C408.809 162.188 406.408 156.042 404.012 149.897C401.01 149.71 398.012 149.523 395.014 149.336C397.47 154.179 399.925 159.017 402.381 163.856Z" fill="#F6CC7E"/>
<path d="M391.383 139.395C392.59 142.712 393.802 146.024 395.014 149.336C395.192 148.653 395.37 147.974 395.547 147.29C394.039 143.555 392.531 139.814 391.019 136.074C391.142 137.181 391.26 138.288 391.383 139.395Z" fill="#F6CC7E"/>
<path d="M395.014 149.336C398.012 149.523 401.01 149.71 404.012 149.896C404.786 149.122 405.556 148.347 406.331 147.568C402.736 147.477 399.142 147.386 395.547 147.291C395.37 147.974 395.192 148.653 395.014 149.336Z" fill="#F6CC7E"/>
<path d="M391.018 136.074C392.531 139.815 394.039 143.555 395.547 147.291C396.44 143.869 397.333 140.448 398.221 137.026C395.219 131.154 392.212 125.282 389.205 119.414C389.811 124.967 390.417 130.521 391.018 136.074Z" fill="#F6CC7E"/>
<path d="M395.547 147.291C399.142 147.386 402.736 147.477 406.331 147.568C410.212 143.673 414.094 139.778 417.976 135.878C411.392 136.261 404.809 136.644 398.221 137.026C397.333 140.448 396.44 143.869 395.547 147.291Z" fill="#F6CC7E"/>
<path d="M392.251 147.382C394.243 143.927 396.234 140.477 398.22 137.027C395.6 131.9 392.975 126.778 390.354 121.652C389.971 120.907 389.588 120.158 389.206 119.414C390.222 128.735 391.235 138.056 392.251 147.382Z" fill="#E4B05C"/>
<path d="M392.252 147.38C396.173 148.219 400.09 149.059 404.012 149.898C404.791 146.958 405.57 144.018 406.345 141.078C402.458 142.817 398.567 144.556 394.675 146.295C393.866 146.657 393.061 147.018 392.252 147.38Z" fill="#E4B05C"/>
<path d="M404.012 149.898C406.831 147.07 409.651 144.238 412.47 141.405C414.308 139.563 416.142 137.721 417.976 135.883C414.102 137.613 410.223 139.348 406.345 141.078C405.57 144.018 404.791 146.958 404.012 149.898Z" fill="#E4B05C"/>
<path d="M367.253 142.218C375.583 143.937 383.918 145.66 392.249 147.379C389.563 144.436 386.876 141.494 384.189 138.552C377.678 139.594 371.167 140.639 364.651 141.684C365.519 141.862 366.385 142.04 367.253 142.218Z" fill="#E4B05C"/>
<path d="M378.249 171.92C379.856 169.103 381.462 166.289 383.069 163.472C386.129 158.11 389.189 152.745 392.253 147.383C388.603 149.046 384.956 150.708 381.309 152.371C380.289 158.887 379.269 165.404 378.249 171.92Z" fill="#E4B05C"/>
<path d="M398.882 162.016C402.989 164.122 407.095 166.227 411.201 168.333C409.82 166.803 408.435 165.273 407.05 163.743C402.55 162.258 398.045 160.769 393.544 159.279C395.324 160.193 397.103 161.103 398.882 162.016Z" fill="#E4B05C"/>
<path d="M393.544 159.279C398.045 160.768 402.55 162.258 407.05 163.743C404.293 160.692 401.531 157.644 398.773 154.593C396.6 152.19 394.422 149.786 392.248 147.383C392.683 151.348 393.114 155.313 393.544 159.279Z" fill="#E4B05C"/>
<path d="M443.115 164.855C445.664 162.769 448.22 160.677 450.769 158.591C452.126 153.333 453.483 148.075 454.84 142.823C451.951 143.649 449.062 144.48 446.173 145.305C445.156 151.824 444.132 158.342 443.115 164.855Z" fill="#F6CC7E"/>
<path d="M450.769 158.591C453.319 156.499 455.875 154.407 458.424 152.321C457.701 145.656 456.971 138.996 456.248 132.337C455.778 135.83 455.309 139.324 454.84 142.824C453.483 148.076 452.126 153.333 450.769 158.591Z" fill="#F6CC7E"/>
<path d="M446.173 145.306C449.062 144.48 451.951 143.649 454.84 142.824C454.523 142.196 454.201 141.569 453.879 140.941C450.391 141.806 446.897 142.671 443.409 143.53C444.33 144.124 445.252 144.718 446.173 145.306Z" fill="#F6CC7E"/>
<path d="M454.84 142.824C455.309 139.324 455.778 135.83 456.248 132.336C456.129 131.228 456.01 130.12 455.886 129.012C455.219 132.992 454.552 136.966 453.879 140.941C454.201 141.568 454.523 142.196 454.84 142.824Z" fill="#F6CC7E"/>
<path d="M443.409 143.53C446.897 142.671 450.391 141.806 453.879 140.941C452.273 137.792 450.662 134.638 449.057 131.489C442.544 132.534 436.031 133.58 429.518 134.62C434.149 137.594 438.779 140.562 443.409 143.53Z" fill="#F6CC7E"/>
<path d="M453.879 140.941C454.552 136.967 455.219 132.992 455.886 129.012C455.281 123.461 454.676 117.903 454.071 112.352C452.403 118.729 450.73 125.112 449.057 131.489C450.662 134.638 452.273 137.792 453.879 140.941Z" fill="#F6CC7E"/>
<path d="M458.424 152.321C461.364 153.814 464.304 155.301 467.249 156.793C464.79 151.954 462.336 147.115 459.877 142.275C458.667 138.962 457.457 135.649 456.248 132.337C456.971 138.996 457.701 145.656 458.424 152.321Z" fill="#F6CC7E"/>
<path d="M467.249 156.793C470.189 158.285 473.128 159.778 476.074 161.27C473.671 155.125 471.274 148.98 468.877 142.835C465.881 142.648 462.879 142.462 459.877 142.275C462.336 147.114 464.79 151.954 467.249 156.793Z" fill="#F6CC7E"/>
<path d="M456.248 132.336C457.457 135.649 458.667 138.962 459.877 142.275C460.058 141.591 460.233 140.913 460.414 140.229C458.904 136.492 457.395 132.755 455.886 129.012C456.01 130.12 456.129 131.228 456.248 132.336Z" fill="#F6CC7E"/>
<path d="M459.877 142.275C462.879 142.462 465.881 142.648 468.877 142.835C469.652 142.06 470.426 141.286 471.201 140.506C467.605 140.415 464.01 140.325 460.414 140.229C460.233 140.913 460.058 141.591 459.877 142.275Z" fill="#F6CC7E"/>
<path d="M455.886 129.012C457.395 132.755 458.904 136.492 460.414 140.229C461.301 136.808 462.195 133.382 463.088 129.962C460.086 124.094 457.079 118.22 454.071 112.352C454.676 117.903 455.281 123.461 455.886 129.012Z" fill="#F6CC7E"/>
<path d="M460.414 140.229C464.009 140.325 467.605 140.415 471.201 140.506C475.079 136.61 478.963 132.715 482.841 128.82C476.26 129.199 469.674 129.583 463.088 129.962C462.195 133.382 461.301 136.808 460.414 140.229Z" fill="#F6CC7E"/>
<path d="M454.077 112.352L457.12 140.321L463.091 129.964L454.077 112.352Z" fill="#E5B05C"/>
<path d="M457.116 140.316C461.038 141.159 464.96 141.997 468.877 142.834C469.655 139.895 470.433 136.956 471.211 134.018C467.321 135.757 463.432 137.497 459.542 139.236C458.732 139.598 457.927 139.954 457.116 140.316Z" fill="#E4B05C"/>
<path d="M468.877 142.834C471.697 140.003 474.517 137.178 477.337 134.347C479.173 132.505 481.01 130.657 482.847 128.821C478.968 130.549 475.089 132.284 471.211 134.018C470.433 136.956 469.655 139.895 468.877 142.834Z" fill="#E4B05C"/>
<path d="M432.117 135.161C440.45 136.88 448.782 138.599 457.115 140.318C454.432 137.377 451.744 134.435 449.056 131.494C442.547 132.537 436.033 133.58 429.519 134.624C430.388 134.803 431.253 134.982 432.117 135.161Z" fill="#E4B05C"/>
<path d="M443.116 164.859C444.721 162.041 446.33 159.227 447.935 156.414C450.995 151.048 454.055 145.682 457.115 140.321C453.47 141.979 449.82 143.647 446.176 145.31C445.156 151.826 444.136 158.343 443.116 164.859Z" fill="#E4B05C"/>
<path d="M463.753 154.953C467.857 157.059 471.966 159.165 476.075 161.27C474.686 159.739 473.303 158.212 471.92 156.685C467.416 155.194 462.918 153.703 458.415 152.218C460.193 153.13 461.97 154.042 463.753 154.953Z" fill="#E4B05C"/>
<path d="M458.415 152.218C462.918 153.703 467.416 155.194 471.92 156.685C469.163 153.632 466.402 150.583 463.641 147.53C461.468 145.127 459.291 142.724 457.119 140.321C457.549 144.287 457.979 148.252 458.415 152.218Z" fill="#E4B05C"/>
<path d="M385.251 188.243C382.911 188.37 380.709 185.533 380.077 183.807C379.444 182.081 379.136 177.561 379.036 176.434C378.933 175.303 382.394 175.284 383.64 180.044C384.836 183.006 387.506 182.287 388.431 184.648C389.356 187.012 385.251 188.243 385.251 188.243Z" fill="#F8A492"/>
<path d="M277.877 196.921C281.083 196.535 282.096 194.102 282.109 194.049C282.481 191.84 282.337 187.909 282.263 186.676C282.19 185.445 278.724 187.293 278.339 190.143C277.954 192.993 274.102 195.535 273.871 196.921C273.64 198.307 277.877 196.921 277.877 196.921Z" fill="#F8A492"/>
<path d="M259.471 133.534L268.487 151.149L262.516 161.503L259.471 133.534Z" fill="#E5B05C"/>
<path d="M562.803 157.625L565.89 151.722L572.503 150.916C573.257 150.825 573.577 149.909 573.045 149.367L568.385 144.608L569.662 138.069C569.808 137.325 569.036 136.736 568.357 137.076L562.391 140.038L556.566 136.802C555.903 136.434 555.105 136.985 555.218 137.736L556.193 144.324L551.314 148.863C550.76 149.38 551.037 150.311 551.785 150.436L558.354 151.548L561.164 157.588C561.482 158.276 562.454 158.298 562.803 157.625Z" fill="#466EB6"/>
<path d="M381.746 60.5899L384.833 54.6839L391.446 53.8802C392.2 53.7867 392.521 52.8709 391.988 52.3289L387.328 47.5723L388.606 41.034C388.752 40.2895 387.979 39.7007 387.3 40.0372L381.335 42.9995L375.51 39.7661C374.847 39.3954 374.049 39.9468 374.161 40.6975L375.133 47.2888L370.258 51.8274C369.701 52.3445 369.981 53.2728 370.729 53.4005L377.298 54.5094L380.105 60.5494C380.426 61.2378 381.397 61.2596 381.746 60.5899Z" fill="#F7CC7F"/>
<path d="M291.379 86.8992L288.68 80.8094L292.168 75.1339C292.565 74.4859 292.048 73.6667 291.294 73.7446L284.667 74.4299L280.347 69.3586C279.855 68.7793 278.914 69.016 278.755 69.7605L277.358 76.2739L271.2 78.8158C270.499 79.1055 270.434 80.0743 271.09 80.4543L276.854 83.7936L277.368 90.4347C277.427 91.1917 278.328 91.553 278.892 91.0453L283.851 86.5971L290.327 88.1608C291.064 88.3383 291.686 87.5938 291.379 86.8992Z" fill="#F48C7F"/>
<path d="M198.185 72.4332L195.486 66.3433L198.974 60.6678C199.371 60.0199 198.854 59.2006 198.1 59.2785L191.473 59.9607L187.153 54.8894C186.661 54.3132 185.72 54.5499 185.561 55.2944L184.164 61.8047L178.006 64.3466C177.305 64.6394 177.24 65.6051 177.897 65.9851L183.66 69.3275L184.174 75.9687C184.233 76.7256 185.134 77.087 185.699 76.5792L190.657 72.131L197.133 73.6947C197.87 73.8723 198.492 73.1278 198.185 72.4332Z" fill="#F7CC7F"/>
<path d="M122.727 237.182L125.169 230.984L131.66 229.482C132.399 229.311 132.621 228.364 132.036 227.881L126.895 223.645L127.472 217.01C127.538 216.253 126.709 215.748 126.068 216.156L120.45 219.735L114.316 217.137C113.617 216.841 112.883 217.474 113.073 218.209L114.74 224.657L110.373 229.688C109.875 230.261 110.251 231.155 111.008 231.202L117.657 231.61L121.091 237.316C121.483 237.967 122.449 237.886 122.727 237.182Z" fill="#F48C7F"/>
<path d="M459.528 69.4491L458.042 66.1004L459.961 62.9761C460.179 62.6209 459.895 62.1693 459.478 62.2129L455.834 62.5898L453.457 59.7988C453.189 59.481 452.672 59.6119 452.581 60.02L451.815 63.6022L448.426 65.0008C448.043 65.1597 448.006 65.6923 448.367 65.9042L451.538 67.742L451.818 71.3928C451.853 71.8102 452.348 72.0096 452.659 71.7292L455.385 69.2839L458.949 70.1437C459.353 70.2403 459.696 69.8322 459.528 69.4491Z" fill="#F48C7F"/>
<path d="M141.802 116.059L140.318 112.71L142.236 109.589C142.455 109.231 142.171 108.779 141.756 108.823L138.111 109.199L135.734 106.412C135.463 106.094 134.946 106.225 134.859 106.63L134.09 110.215L130.703 111.614C130.318 111.772 130.282 112.305 130.643 112.514L133.813 114.352L134.096 118.006C134.128 118.42 134.624 118.619 134.934 118.342L137.662 115.894L141.224 116.753C141.63 116.85 141.972 116.442 141.802 116.059Z" fill="#466EB6"/>
<path d="M78.8876 191.401L78.4263 187.766L81.1588 185.324C81.4703 185.047 81.3276 184.533 80.9177 184.455L77.3174 183.77L75.8406 180.418C75.6723 180.035 75.1391 180.013 74.9381 180.377L73.1751 183.589L69.5293 183.96C69.114 184 68.9271 184.502 69.2131 184.804L71.7232 187.473L70.9472 191.056C70.8591 191.464 71.2765 191.797 71.6537 191.616L74.9687 190.056L78.1344 191.9C78.4955 192.111 78.9403 191.816 78.8876 191.401Z" fill="#50BFA5"/>
<path d="M547.153 66.8792L541.272 66.0257L538.854 75.3395L530.098 75.1526L527.148 81.825L523.772 80.3298L527.715 71.4053L536.013 71.5828L538.527 61.8952L547.38 63.1785L547.153 66.8792Z" fill="#50BFA5"/>
<path d="M83.6103 102.583L82.16 108.346L91.1766 111.704L90.0951 120.395L96.432 124.011L94.6013 127.22L86.126 122.382L87.1508 114.146L77.7709 110.654L79.9536 101.979L83.6103 102.583Z" fill="#50BFA5"/>
<path d="M532.587 217.558L529.248 212.11L523.937 214.265L527.276 219.714L532.587 217.558ZM540.2 226.436L539.546 226.701C538.967 226.934 538.3 226.716 537.973 226.183L534.011 219.751L528.7 221.903L532.434 227.971C532.849 228.647 532.559 229.532 531.824 229.831L531.17 230.096C530.59 230.333 529.924 230.115 529.597 229.582L525.634 223.146L521.971 224.632C521.314 224.897 520.566 224.582 520.301 223.925C520.034 223.271 520.351 222.52 521.005 222.255L524.211 220.956L520.921 215.486L517.464 216.888C516.806 217.156 516.059 216.838 515.791 216.184C515.526 215.527 515.844 214.779 516.498 214.511L519.498 213.297L515.891 207.409C515.476 206.733 515.769 205.849 516.504 205.55L517.115 205.304C517.691 205.067 518.355 205.285 518.685 205.814L522.563 212.054L527.874 209.898L524.267 204.011C523.853 203.335 524.145 202.45 524.881 202.154L525.438 201.927C526.018 201.69 526.681 201.908 527.011 202.438L530.889 208.677L534.553 207.191C535.21 206.926 535.958 207.241 536.222 207.898C536.49 208.556 536.172 209.303 535.515 209.568L532.313 210.867L535.652 216.315L539.11 214.913C539.767 214.649 540.515 214.963 540.783 215.62C541.047 216.278 540.733 217.025 540.076 217.29L537.076 218.508L540.811 224.573C541.228 225.249 540.935 226.137 540.2 226.436Z" fill="#50BFA5"/>
</svg>
