<svg width="298" height="199" viewBox="0 0 298 199" fill="none" xmlns="http://www.w3.org/2000/svg">
<path d="M125.877 172.797C110.976 172.342 95.9651 171.873 81.4267 168.57C66.8875 165.267 52.68 158.909 42.2997 148.19C29.3265 134.794 25.1738 117.022 26.4233 98.9102C27.7993 78.9632 28.3274 61.2128 40.015 43.8676C50.4164 28.4311 66.907 17.0221 85.195 13.6689C103.483 10.3154 123.322 15.3437 137.223 27.71C146.159 35.6596 152.392 46.127 159.655 55.6348C166.919 65.1423 175.932 74.1677 187.5 77.177C198.278 79.9809 209.64 77.167 220.353 74.1275C231.067 71.0876 242.177 67.7794 253.158 69.6285C273.752 73.0963 279.163 94.1545 277.073 112.076C274.851 131.124 265.463 149.783 249.358 160.694C228.851 174.588 202.108 171.006 178.718 171.556C161.104 171.969 143.491 172.383 125.877 172.797Z" fill="#FDE2D4"/>
<path d="M250.674 125.057C252.977 125.057 254.845 123.187 254.845 120.879V120.212C254.845 118.048 256.595 116.295 258.755 116.295C260.914 116.295 262.664 118.048 262.664 120.212V125.953C262.664 128.261 260.797 130.131 258.494 130.131H250.674V125.057Z" fill="#869F7D"/>
<path d="M239.84 138.03C238.193 138.03 236.857 136.692 236.857 135.042V134.565C236.857 133.018 235.605 131.763 234.061 131.763C232.516 131.763 231.265 133.018 231.265 134.565V138.671C231.265 140.321 232.6 141.659 234.247 141.659H239.84V138.03Z" fill="#869F7D"/>
<path d="M240.334 155.081C238.168 140.89 237.504 126.469 238.356 112.138C238.472 110.184 238.626 108.187 239.404 106.391C240.182 104.595 241.705 103.006 243.632 102.674C245.954 102.274 248.269 103.812 249.489 105.831C250.709 107.85 251.059 110.263 251.334 112.608C252.97 126.6 252.8 140.733 252.629 154.82L240.334 155.081Z" fill="#9FB794"/>
<path d="M237.742 176.378L234.354 150.708H259.638L257.292 176.378H237.742Z" fill="#F49E74"/>
<path d="M242.695 110.911C242.588 110.911 242.502 110.825 242.502 110.718V108.607C242.502 108.5 242.588 108.414 242.695 108.414C242.801 108.414 242.887 108.5 242.887 108.607V110.718C242.887 110.825 242.801 110.911 242.695 110.911Z" fill="white"/>
<path d="M245.128 115.85C245.021 115.85 244.935 115.763 244.935 115.657V114.177C244.935 114.07 245.021 113.984 245.128 113.984C245.234 113.984 245.32 114.07 245.32 114.177V115.657C245.32 115.763 245.234 115.85 245.128 115.85Z" fill="white"/>
<path d="M248.951 120.724C248.851 120.724 248.767 120.647 248.759 120.545L248.606 118.542C248.598 118.436 248.677 118.343 248.783 118.335C248.88 118.317 248.982 118.406 248.989 118.513L249.144 120.516C249.152 120.622 249.072 120.715 248.966 120.723C248.962 120.724 248.956 120.724 248.951 120.724Z" fill="white"/>
<path d="M242 125.076C241.893 125.076 241.807 124.989 241.807 124.882V123.142C241.807 123.035 241.893 122.949 242 122.949C242.106 122.949 242.193 123.035 242.193 123.142V124.882C242.193 124.989 242.106 125.076 242 125.076Z" fill="white"/>
<path d="M241.913 118.809C241.806 118.809 241.72 118.723 241.72 118.616V116.353C241.72 116.247 241.806 116.16 241.913 116.16C242.019 116.16 242.106 116.247 242.106 116.353V118.616C242.106 118.723 242.019 118.809 241.913 118.809Z" fill="white"/>
<path d="M247.213 111.15C247.106 111.15 247.02 111.064 247.02 110.957V109.739C247.02 109.632 247.106 109.546 247.213 109.546C247.319 109.546 247.406 109.632 247.406 109.739V110.957C247.406 111.064 247.319 111.15 247.213 111.15Z" fill="white"/>
<path d="M245.649 128.209C245.546 128.209 245.46 128.128 245.456 128.023L245.37 125.76C245.366 125.654 245.449 125.564 245.555 125.56C245.659 125.562 245.751 125.639 245.755 125.746L245.841 128.008C245.845 128.115 245.762 128.205 245.656 128.209C245.654 128.209 245.651 128.209 245.649 128.209Z" fill="white"/>
<path d="M248.516 131.777C248.413 131.777 248.328 131.696 248.324 131.593L248.237 129.59C248.232 129.484 248.314 129.394 248.421 129.389C248.524 129.388 248.617 129.468 248.622 129.574L248.709 131.576C248.713 131.682 248.631 131.773 248.524 131.777C248.522 131.777 248.519 131.777 248.516 131.777Z" fill="white"/>
<path d="M242.521 142.308C242.414 142.308 242.328 142.222 242.328 142.115V140.201C242.328 140.094 242.414 140.008 242.521 140.008C242.628 140.008 242.713 140.094 242.713 140.201V142.115C242.713 142.222 242.628 142.308 242.521 142.308Z" fill="white"/>
<path d="M245.823 145.18C245.721 145.18 245.635 145.1 245.63 144.997L245.543 143.257C245.538 143.15 245.62 143.059 245.726 143.054C245.849 143.042 245.924 143.131 245.928 143.237L246.015 144.978C246.02 145.085 245.939 145.175 245.833 145.18C245.829 145.18 245.825 145.18 245.823 145.18Z" fill="white"/>
<path d="M243.65 133.692C243.544 133.692 243.458 133.605 243.458 133.499V132.368C243.458 132.261 243.544 132.175 243.65 132.175C243.757 132.175 243.843 132.261 243.843 132.368V133.499C243.843 133.605 243.757 133.692 243.65 133.692Z" fill="white"/>
<path d="M247.56 140.22C247.46 140.22 247.375 140.141 247.368 140.039L247.281 138.734C247.274 138.628 247.355 138.536 247.461 138.528C247.568 138.521 247.659 138.601 247.666 138.709L247.753 140.014C247.76 140.12 247.679 140.212 247.574 140.219C247.569 140.22 247.564 140.22 247.56 140.22Z" fill="white"/>
<path d="M249.974 144.568C249.964 144.568 249.954 144.568 249.945 144.566C249.84 144.551 249.767 144.453 249.782 144.347L249.96 143.13C249.975 143.023 250.074 142.952 250.178 142.966C250.284 142.981 250.357 143.08 250.341 143.185L250.163 144.403C250.15 144.499 250.067 144.568 249.974 144.568Z" fill="white"/>
<path d="M255.467 127.861C255.361 127.861 255.275 127.774 255.275 127.668V126.101C255.275 125.994 255.361 125.908 255.467 125.908C255.574 125.908 255.66 125.994 255.66 126.101V127.668C255.66 127.774 255.574 127.861 255.467 127.861Z" fill="white"/>
<path d="M257.987 124.568C257.985 124.568 257.983 124.568 257.981 124.568C257.874 124.564 257.791 124.475 257.794 124.368C257.809 123.932 257.824 123.666 257.838 123.4C257.853 123.136 257.867 122.873 257.881 122.44C257.885 122.333 257.962 122.255 258.08 122.253C258.187 122.257 258.27 122.346 258.267 122.452C258.252 122.889 258.238 123.155 258.223 123.421C258.208 123.685 258.194 123.948 258.18 124.381C258.176 124.486 258.091 124.568 257.987 124.568Z" fill="white"/>
<path d="M259.812 126.178C259.705 126.178 259.619 126.092 259.619 125.985V123.403C259.619 123.296 259.705 123.21 259.812 123.21C259.918 123.21 260.004 123.296 260.004 123.403V125.985C260.004 126.092 259.918 126.178 259.812 126.178Z" fill="white"/>
<path d="M258.074 119.679C257.967 119.679 257.881 119.593 257.881 119.487V118.877C257.881 118.771 257.967 118.684 258.074 118.684C258.18 118.684 258.267 118.771 258.267 118.877V119.487C258.267 119.593 258.18 119.679 258.074 119.679Z" fill="white"/>
<path d="M233.572 136.042C233.465 136.042 233.378 135.956 233.378 135.849V134.717C233.378 134.611 233.465 134.524 233.572 134.524C233.678 134.524 233.764 134.611 233.764 134.717V135.849C233.764 135.956 233.678 136.042 233.572 136.042Z" fill="white"/>
<path d="M235.324 137.869C235.222 137.869 235.136 137.788 235.131 137.685L235.045 135.945C235.039 135.839 235.121 135.748 235.227 135.743C235.342 135.732 235.424 135.819 235.429 135.925L235.516 137.666C235.521 137.772 235.439 137.863 235.333 137.868C235.33 137.869 235.327 137.869 235.324 137.869Z" fill="white"/>
<path d="M233.311 139.697C233.204 139.697 233.118 139.611 233.118 139.504V138.46C233.118 138.353 233.204 138.267 233.311 138.267C233.417 138.267 233.504 138.353 233.504 138.46V139.504C233.504 139.611 233.417 139.697 233.311 139.697Z" fill="white"/>
<path d="M252.245 167.441C252.201 167.441 252.156 167.425 252.12 167.394L248.754 164.502C246.543 165.405 244.857 166.368 243.74 167.367C243.669 167.43 243.562 167.433 243.489 167.371L240.71 165.051L236.61 167.263C236.517 167.313 236.4 167.279 236.349 167.185C236.299 167.091 236.333 166.973 236.427 166.923L240.642 164.649C240.712 164.612 240.797 164.619 240.858 164.67L243.609 166.969C244.776 165.964 246.494 164.999 248.718 164.1C248.785 164.072 248.861 164.085 248.916 164.132L252.231 166.981C253.095 166.076 254.385 165.196 256.066 164.363C256.144 164.324 256.239 164.343 256.297 164.409L258.384 166.8C258.455 166.881 258.446 167.002 258.366 167.072C258.287 167.142 258.165 167.134 258.094 167.054L256.105 164.776C254.447 165.609 253.197 166.484 252.388 167.377C252.35 167.419 252.298 167.441 252.245 167.441Z" fill="white"/>
<path d="M252.245 169.878C252.201 169.878 252.156 169.863 252.12 169.832L248.754 166.939C246.543 167.842 244.857 168.805 243.74 169.804C243.669 169.867 243.562 169.87 243.489 169.808L240.71 167.488L236.61 169.7C236.517 169.75 236.4 169.716 236.349 169.622C236.299 169.528 236.333 169.411 236.427 169.36L240.642 167.085C240.712 167.049 240.797 167.057 240.858 167.108L243.609 169.406C244.776 168.4 246.494 167.436 248.718 166.537C248.785 166.51 248.861 166.522 248.916 166.57L252.231 169.418C253.095 168.513 254.384 167.634 256.066 166.8C256.144 166.761 256.239 166.78 256.297 166.846L258.384 169.237C258.455 169.318 258.446 169.439 258.366 169.509C258.287 169.579 258.165 169.572 258.094 169.491L256.105 167.213C254.447 168.047 253.197 168.922 252.388 169.815C252.35 169.856 252.298 169.878 252.245 169.878Z" fill="white"/>
<path d="M252.541 158.244C252.499 158.244 252.456 158.229 252.421 158.201L248.774 155.3C246.377 156.205 244.548 157.171 243.337 158.174C243.269 158.232 243.168 158.233 243.097 158.178L240.084 155.848L235.638 158.068C235.544 158.116 235.427 158.077 235.38 157.981C235.333 157.886 235.371 157.77 235.466 157.723L240.02 155.448C240.085 155.415 240.164 155.423 240.224 155.468L243.212 157.779C244.472 156.77 246.331 155.803 248.741 154.9C248.805 154.877 248.875 154.888 248.929 154.93L252.526 157.793C253.46 156.884 254.856 156 256.681 155.163C256.755 155.128 256.844 155.146 256.9 155.206L259.156 157.597C259.229 157.674 259.225 157.797 259.148 157.869C259.07 157.944 258.949 157.939 258.875 157.862L256.715 155.572C254.914 156.409 253.556 157.288 252.678 158.185C252.641 158.224 252.591 158.244 252.541 158.244Z" fill="white"/>
<path d="M252.541 160.681C252.499 160.681 252.456 160.667 252.421 160.638L248.774 157.737C246.376 158.642 244.548 159.609 243.337 160.611C243.269 160.669 243.168 160.671 243.097 160.615L240.084 158.285L235.638 160.505C235.544 160.553 235.427 160.514 235.38 160.418C235.333 160.323 235.371 160.207 235.466 160.16L240.02 157.886C240.085 157.853 240.164 157.86 240.224 157.906L243.212 160.216C244.472 159.208 246.331 158.24 248.741 157.337C248.805 157.315 248.875 157.325 248.929 157.367L252.526 160.23C253.46 159.321 254.856 158.437 256.681 157.6C256.755 157.565 256.844 157.583 256.9 157.643L259.156 160.034C259.229 160.111 259.225 160.234 259.148 160.307C259.07 160.381 258.949 160.376 258.875 160.299L256.715 158.009C254.914 158.847 253.556 159.726 252.678 160.623C252.641 160.661 252.591 160.681 252.541 160.681Z" fill="white"/>
<path d="M236.25 171.565H234.323V169.45C234.323 168.309 233.396 167.381 232.257 167.381H214.728C213.589 167.381 212.662 168.309 212.662 169.45V171.565H210.736V169.45C210.736 167.245 212.527 165.451 214.728 165.451H232.257C234.458 165.451 236.25 167.245 236.25 169.45V171.565Z" fill="#C0935C"/>
<path d="M211.903 177.994C210.544 177.994 209.443 176.89 209.443 175.529V172.321C209.443 170.96 210.544 169.856 211.903 169.856C213.262 169.856 214.364 170.96 214.364 172.321V175.529C214.364 176.89 213.262 177.994 211.903 177.994Z" fill="#806240"/>
<path d="M235.286 177.994C233.927 177.994 232.825 176.89 232.825 175.529V172.321C232.825 170.96 233.927 169.856 235.286 169.856C236.645 169.856 237.747 170.96 237.747 172.321V175.529C237.747 176.89 236.645 177.994 235.286 177.994Z" fill="#806240"/>
<path d="M87.3601 171.565H85.4334V169.45C85.4334 168.309 84.5064 167.381 83.3673 167.381H65.8389C64.6994 167.381 63.7728 168.309 63.7728 169.45V171.565H61.8461V169.45C61.8461 167.245 63.6373 165.451 65.8389 165.451H83.3673C85.5689 165.451 87.3601 167.245 87.3601 169.45V171.565Z" fill="#C0935C"/>
<path d="M63.0139 177.994C61.655 177.994 60.5532 176.89 60.5532 175.529V172.321C60.5532 170.96 61.655 169.856 63.0139 169.856C64.3728 169.856 65.4746 170.96 65.4746 172.321V175.529C65.4746 176.89 64.3728 177.994 63.0139 177.994Z" fill="#806240"/>
<path d="M86.3965 177.994C85.0377 177.994 83.9362 176.89 83.9362 175.529V172.321C83.9362 170.96 85.0377 169.856 86.3965 169.856C87.7554 169.856 88.8572 170.96 88.8572 172.321V175.529C88.8572 176.89 87.7554 177.994 86.3965 177.994Z" fill="#806240"/>
<path d="M224.456 166.716H222.529V57.8676C222.529 56.1451 221.13 54.7437 219.411 54.7437H78.7872C77.068 54.7437 75.6686 56.1451 75.6686 57.8676V166.716H73.7419V57.8676C73.7419 55.0808 76.0055 52.8138 78.7872 52.8138H219.411C222.193 52.8138 224.456 55.0808 224.456 57.8676V166.716Z" fill="#C0935C"/>
<path d="M59.1232 104.119C59.2523 104.511 62.1457 130.127 63.3477 140.802C63.6604 143.582 62.2657 146.272 59.8177 147.617L33.8238 161.892L32.576 158.341L50.0243 138.921L44.8641 101.986L57.402 101.017L59.1232 104.119Z" fill="#77326B"/>
<path d="M34.308 155.559L37.4229 160.348L33.8553 166.664C33.8553 166.664 34.7395 172.435 34.7395 172.436C35.1795 175.307 33.3608 176.55 31.4359 174.422C30.0879 172.933 29.3581 170.998 28.2651 169.336C27.1132 167.584 25.9614 165.833 24.8093 164.081C24.059 162.94 24.4147 161.403 25.5895 160.709L34.308 155.559Z" fill="#953649"/>
<path d="M37.1364 101.657C37.1364 101.657 34.1258 106.898 37.1364 114.755C40.1469 122.612 48.4997 140.115 48.4997 140.115L46.1447 174.139L52.268 173.229L60.1356 140.221L52.4468 101.017L37.1364 101.657Z" fill="#8B4381"/>
<path d="M53.305 66.7075C52.1571 66.7211 42.3374 65.2306 42.2107 65.6154C43.2231 62.5353 44.2351 59.4548 45.2471 56.3743C47.1325 50.6363 50.6735 46.041 56.5636 43.9455C55.5106 45.8575 55.9374 48.2392 56.6704 50.2956C57.4039 52.3521 58.4267 54.3688 58.5018 56.551C58.5709 58.5653 57.8076 60.453 56.7535 62.1313C55.848 63.5737 53.7497 65.1231 53.3293 66.7068C53.3217 66.7072 53.3138 66.7072 53.305 66.7075Z" fill="#F14C36"/>
<path d="M52.3912 36.302C48.6745 34.6495 45.2304 35.6974 42.4157 38.4583C40.9508 39.8955 39.8346 41.0867 39.5294 43.0922C39.218 45.1388 38.7602 47.2748 37.1181 48.6937C35.9511 49.7018 34.3979 50.1376 33.1281 51.012C30.9445 52.5161 29.7859 55.3777 30.3068 57.9798C30.5121 59.0059 30.9544 59.9989 30.9338 61.0452C30.8989 62.8418 29.5211 64.3227 28.064 65.3711C26.6071 66.419 24.9488 67.2628 23.847 68.6808C22.3306 70.6322 22.1577 73.386 22.8752 75.7525C23.7543 78.6515 25.7877 81.4507 28.1113 83.3726C31.1034 85.847 35.1449 86.762 39.0226 86.6295C45.1184 86.4209 51.4487 83.3654 54.0163 77.8241C55.3243 75.0007 55.8718 73.1504 54.2145 70.3911C53.0949 68.5268 51.3915 67.0415 50.2988 65.2326C49.023 63.1208 48.9276 59.9264 49.3361 57.5719C49.6746 55.6229 50.4617 53.7566 51.6045 52.1447C52.6963 50.6049 54.3957 49.7707 55.2512 48.0688C56.6204 45.3441 57.5358 42.2047 56.111 39.3502C55.2905 38.0205 53.9487 36.9945 52.3912 36.302Z" fill="#F35F39"/>
<path d="M80.9122 57.6853L83.1972 51.9704L90.7362 50.8875L93.3213 53.3471L87.1165 56.8396L82.1832 60.7479L80.9122 57.6853Z" fill="#FABA85"/>
<path d="M55.0986 61.1789L56.1233 61.9602L69.6263 72.2485L81.0055 57.271L84.9205 59.3024L73.9612 79.592C72.4835 81.9259 69.4698 82.7402 67.0214 81.467L55.0986 75.2693C50.6846 71.632 48.7544 65.6373 49.884 60.0251C49.9929 59.4835 50.2074 58.8614 50.7355 58.701C51.1873 58.5637 51.6517 58.8355 52.0459 59.0954C53.2566 59.8942 53.8879 60.3802 55.0986 61.1789Z" fill="#869F7D"/>
<path d="M35.8221 101.232C35.3027 102.69 36.3034 104.246 37.8437 104.374L58.2753 106.079C59.5503 106.233 60.6426 105.171 60.5282 103.89L59.2869 90.0029C59.1613 88.5972 59.1963 87.1823 59.3918 85.7849L60.5588 77.4253C60.7296 76.2015 60.8806 74.818 60.6935 73.5874C60.5111 72.387 59.8352 71.6237 59.1403 70.6171C57.8045 68.6808 56.5648 66.1428 54.9075 64.4827C53.9499 63.0949 52.9919 61.7071 52.0344 60.3189C51.5218 59.5758 50.9767 58.227 49.8773 58.2238C49.8435 58.2234 43.9006 58.2047 43.9006 58.2047C40.232 58.1927 36.9214 60.4096 35.5275 63.8089L35.4906 63.8989C34.8458 65.4714 34.6436 67.1645 34.897 68.8209C35.9248 75.5384 38.6351 93.335 38.6351 93.335L35.8221 101.232Z" fill="#9FB794"/>
<path d="M56.8985 44.3738C57.1663 46.4172 56.9458 48.8028 56.9458 50.1038C56.9458 50.7462 56.8051 51.3806 56.5342 51.9629L55.2543 54.7115C54.8081 55.6699 53.8053 56.2398 52.7555 56.1316L50.7879 55.9294C49.7684 55.8247 51.4709 62.7813 48.9046 62.8784C48.392 62.8979 47.8957 62.7077 47.4328 62.4872C46.1606 61.8811 43.0709 60.151 43.6463 58.4105C43.8731 57.7239 44.7453 56.9502 45.089 56.247C45.5594 55.283 46.0096 54.2586 45.9095 53.1585C45.7291 51.1832 44.222 50.2013 43.1718 48.7837C42.7312 48.1887 42.6883 47.3871 43.0634 46.7483C44.4823 44.3305 45.029 46.96 45.7521 47.8074C46.2297 48.3662 47.1392 48.6277 47.709 48.164C47.9605 47.9594 48.1047 47.6545 48.2414 47.3604C49.1453 45.4082 49.8041 42.9769 51.6692 41.7064C52.7074 40.9821 54.077 40.37 55.1932 40.9666C56.2282 41.5198 56.699 42.8519 56.8985 44.3738Z" fill="#FABA85"/>
<path d="M45.5141 181.429L46.3859 168.99L53.1298 169.413L54.8161 177.421C54.8161 177.421 60.306 180.321 60.3068 180.321C63.1251 181.81 61.1543 183.651 59.0024 183.906C57.0376 184.138 55.0676 183.66 53.1083 183.615C51.1988 183.57 49.2892 183.525 47.3796 183.481C46.2873 183.455 45.4374 182.521 45.5141 181.429Z" fill="#953649"/>
<path d="M51.1368 41.9563C52.4591 42.7853 53.8971 42.7726 55.0783 43.8703C56.2525 44.9608 57.0014 46.5329 57.0245 48.1444C58.5669 46.6623 59.4105 44.4796 59.2662 42.3436C59.0386 38.9697 57.09 37.4864 54.3727 36.177C51.3311 34.7115 48.6527 34.4576 46.0573 36.9228C45.828 37.1401 45.5988 37.4 45.5837 37.7152C45.5578 38.2593 46.157 38.6067 46.6859 38.7353C48.6304 39.2065 49.4863 40.9215 51.1368 41.9563Z" fill="#F35F39"/>
<path d="M73.2881 94.4729L77.0219 97.4937C77.0219 97.4937 79.8942 104.686 83.0534 104.974L84.9205 103.679V98.5006L82.0481 95.3361C82.0481 95.3361 84.6328 95.3361 84.2021 94.4729C83.7714 93.6096 80.9122 93.6096 80.9122 93.6096L74.5806 92.3153L73.2881 94.4729Z" fill="#FABA85"/>
<path d="M44.5001 65.3623L55.5877 79.7994L76.3981 92.2779L73.993 96.2686L52.9431 87.999L38.2051 70.4332C37.0651 69.0745 36.9419 67.1302 37.9017 65.6381C39.4144 63.286 42.7968 63.1443 44.5001 65.3623Z" fill="#9FB794"/>
<path d="M59.2488 90.3364C58.176 89.9985 57.1036 89.6582 56.0292 89.3259C55.4916 89.1599 54.9544 88.9936 54.4172 88.8276C53.9372 88.6792 53.4183 88.4654 52.9093 88.4591C52.9006 88.4312 52.8863 88.4037 52.8636 88.3779C48.6515 83.5119 44.5832 78.5286 40.7108 73.386C39.6326 71.954 38.5777 70.5025 37.4724 69.0912C37.3906 68.9865 37.2156 69.1226 37.2887 69.2333C39.0554 71.9031 41.0346 74.4431 42.9923 76.974C44.9658 79.526 46.9847 82.0429 49.0444 84.5252C50.2031 85.9218 51.374 87.3077 52.5652 88.6764C52.6435 88.7663 52.7424 88.7568 52.8163 88.7038C53.2403 89.0015 53.8053 89.1253 54.292 89.2825C54.8272 89.4557 55.3624 89.6288 55.898 89.8019C56.9685 90.1478 58.0417 90.4861 59.1137 90.8268C59.426 90.9259 59.5599 90.4347 59.2488 90.3364Z" fill="#869F7D"/>
<path d="M59.4291 82.1118C58.6913 81.5518 57.9312 81.0348 57.162 80.5202C56.7849 80.2678 56.4082 80.0155 56.0315 79.7632C55.8428 79.637 55.6549 79.5104 55.4673 79.3831C55.2917 79.2637 55.1169 79.1108 54.9111 79.0511C54.78 78.6511 54.5861 78.2667 54.4144 77.8838C54.2388 77.4926 54.0564 77.1049 53.8693 76.7189C53.4886 75.9332 53.0937 75.1539 52.6848 74.3822C52.276 73.6109 51.85 72.8487 51.4106 72.0945C50.9656 71.3299 50.5325 70.5367 50.0052 69.8259C49.882 69.6607 49.6214 69.8012 49.7231 69.9911C50.1423 70.7731 50.6461 71.513 51.0955 72.2788C51.529 73.0175 51.9486 73.7641 52.3578 74.5167C52.7671 75.2685 53.1628 76.0279 53.545 76.7945C53.7362 77.1778 53.9233 77.5622 54.112 77.9467C54.3067 78.3431 54.4788 78.7614 54.7013 79.1435C54.6826 79.1841 54.6766 79.2286 54.7092 79.272C54.8392 79.4432 55.0255 79.5391 55.2043 79.6541C55.4077 79.7847 55.6104 79.916 55.8126 80.0481C56.1917 80.2965 56.5711 80.5444 56.9506 80.7924C57.7357 81.3058 58.5185 81.8113 59.333 82.2769C59.4427 82.3398 59.5249 82.1842 59.4291 82.1118Z" fill="#869F7D"/>
<path d="M118.5 62.5703L110.291 67.3603C109.949 67.5593 109.9 67.8984 109.967 68.1491C110.035 68.3998 110.248 68.6677 110.643 68.6677H137.07C137.454 68.6677 137.668 68.4102 137.741 68.1694C137.814 67.9286 137.777 67.5951 137.459 67.3822L130.023 62.4191L127.808 61.6215C125.522 60.798 123.004 60.798 120.719 61.6215L118.5 62.5703ZM137.07 69.4398H110.643C109.97 69.4398 109.399 69.002 109.223 68.3501C109.048 67.6986 109.321 67.0327 109.903 66.6928L118.132 61.891C118.146 61.883 118.161 61.8758 118.175 61.8695L120.437 60.9027C122.912 60.0108 125.615 60.0108 128.069 60.8948L130.328 61.7087C130.358 61.719 130.385 61.7333 130.412 61.7505L137.886 66.7398C138.438 67.1083 138.67 67.7571 138.478 68.3931C138.286 69.0287 137.734 69.4398 137.07 69.4398Z" fill="#665645"/>
<path d="M109.679 123.799C108.332 121.429 109.676 115.877 109.778 113.498C109.981 108.776 110.185 104.053 110.388 99.3304L112.253 68.7167C112.302 67.5836 113.233 66.6904 114.365 66.6904H132.714C134.095 66.6904 135.237 67.7686 135.317 69.1497L135.931 79.6465C136.355 86.8885 136.929 94.1206 137.548 101.348C138.129 108.119 139.364 114.917 139.443 121.671C139.492 125.936 137.181 124.917 134.519 123.427C130.661 121.268 129.903 123.953 126.807 125.415C125.385 126.086 123.703 125.895 122.416 124.993C119.84 123.188 117.832 122.061 115.343 123.241C113.809 123.968 113.244 125.288 111.089 124.854C110.444 124.724 109.99 124.346 109.679 123.799Z" fill="#F35F39"/>
<path d="M124.263 61.0023C124.051 61.0023 123.878 60.8295 123.878 60.6162V56.284C123.878 56.071 124.051 55.8983 124.263 55.8983C124.476 55.8983 124.649 56.071 124.649 56.284V60.6162C124.649 60.8295 124.476 61.0023 124.263 61.0023Z" fill="#665645"/>
<path d="M124.263 56.67C122.804 56.67 121.616 55.4804 121.616 54.0185C121.616 52.5562 122.804 51.367 124.263 51.367C125.276 51.367 126.185 51.9314 126.635 52.84C126.73 53.0311 126.652 53.2627 126.462 53.3574C126.271 53.4529 126.04 53.3741 125.945 53.1835C125.625 52.5391 124.981 52.1387 124.263 52.1387C123.229 52.1387 122.387 52.9821 122.387 54.0185C122.387 55.0549 123.229 55.8983 124.263 55.8983C124.476 55.8983 124.649 56.071 124.649 56.2839C124.649 56.4972 124.476 56.67 124.263 56.67Z" fill="#665645"/>
<path d="M117.101 122.124H116.716V77.6426H117.101V122.124Z" fill="#F14C36"/>
<path d="M132.395 122.128L131.552 77.6462L131.937 77.639L132.781 122.12L132.395 122.128Z" fill="#F14C36"/>
<path d="M126.614 125.418L126.097 90.8427L126.483 90.8371L126.999 125.412L126.614 125.418Z" fill="#F14C36"/>
<path d="M111.202 121.389C110.989 121.389 110.781 121.362 110.578 121.301C109.906 121.101 109.378 120.555 109.008 119.678C108.967 119.58 109.012 119.467 109.11 119.425C109.208 119.385 109.322 119.429 109.363 119.528C109.691 120.304 110.124 120.763 110.688 120.931C111.898 121.292 113.48 120.221 114.636 119.441C116.087 118.46 117.929 118.014 119.71 118.203C120.767 118.316 121.629 118.773 122.462 119.214C123.181 119.595 123.923 119.989 124.783 120.151C126.307 120.436 127.44 119.81 128.638 119.148C129.414 118.719 130.217 118.276 131.167 118.052C132.552 117.726 133.953 117.87 135.71 118.519C136.003 118.627 136.303 118.772 136.621 118.926C137.504 119.354 138.417 119.796 139.232 119.468C139.289 119.445 139.352 119.451 139.404 119.482C139.456 119.514 139.49 119.567 139.496 119.628L139.538 120.059C139.549 120.165 139.472 120.259 139.365 120.27C139.259 120.276 139.165 120.203 139.155 120.096L139.136 119.905C138.233 120.137 137.292 119.679 136.453 119.274C136.144 119.125 135.852 118.983 135.577 118.881C133.895 118.26 132.562 118.121 131.255 118.428C130.357 118.64 129.578 119.07 128.825 119.486C127.619 120.153 126.373 120.842 124.712 120.53C123.794 120.358 123.026 119.95 122.282 119.556C121.444 119.111 120.653 118.692 119.669 118.587C117.978 118.407 116.228 118.83 114.869 119.748C113.813 120.462 112.441 121.389 111.202 121.389Z" fill="white"/>
<path d="M178.264 111.682C177.062 112.731 175.643 113.559 174.487 113.941C172.616 114.561 172.852 113.441 172.412 115.503C171.848 118.146 172.412 121.543 172.412 124.241C172.412 129.363 172.412 134.484 172.412 139.606C172.412 142.357 169.889 143.916 167.354 143.65C166.101 143.519 164.958 142.843 163.802 142.268V133.817C162.684 133.255 161.554 132.79 160.288 132.997C158.508 133.285 157.083 134.992 155.281 134.894C153.885 134.818 152.763 133.665 151.442 133.242V141.694C151.257 141.634 151.067 141.592 150.873 141.566C149.852 141.435 148.852 141.854 147.928 142.306C147.009 142.754 146.064 143.252 145.039 143.295C143.102 143.375 142.04 141.33 142.04 139.606V113.911C142.04 114.455 132.562 111.68 132.092 108.445C131.851 106.783 133.098 103.793 133.438 102.115C134.494 96.8978 135.549 91.6809 136.606 86.4639C138.019 79.4829 139.432 72.5016 140.846 65.5203C141.761 63.0654 144.098 61.4341 146.718 61.4341H167.797C170.543 61.4341 172.969 63.2258 173.779 65.8499C175.756 72.2549 176.099 79.6712 177.207 86.2708C178.073 91.4281 178.939 96.5854 179.804 101.743C180.097 103.484 181.039 106.029 180.802 107.78C180.617 109.151 179.568 110.546 178.264 111.682Z" fill="#9FB794"/>
<path d="M142.231 113.82L141.846 113.804L143.786 69.6253L144.171 69.6421L142.231 113.82Z" fill="#869F7D"/>
<path d="M172.219 113.825L169.312 69.6464L169.697 69.6209L172.604 113.8L172.219 113.825Z" fill="#869F7D"/>
<path d="M163.802 61.421V133.719C162.684 133.157 161.554 132.692 160.288 132.899C158.508 133.187 157.083 134.894 155.281 134.797C153.885 134.72 152.763 133.567 151.442 133.144V61.421H163.802Z" fill="#A1733F"/>
<path d="M163.802 61.421V133.719C162.684 133.157 161.554 132.692 160.288 132.899C158.508 133.187 157.083 134.894 155.281 134.797C153.885 134.72 152.763 133.567 151.442 133.144V61.421H163.802Z" fill="#869F7D"/>
<path d="M151.686 62.1675C151.536 62.1675 151.393 62.0796 151.331 61.9331C151.247 61.7369 151.338 61.51 151.534 61.4265L153.796 60.4597C156.271 59.5678 158.974 59.5674 161.428 60.4518L163.687 61.2657C163.888 61.3377 163.991 61.5586 163.92 61.7592C163.847 61.9598 163.627 62.0641 163.426 61.992L161.167 61.1781C158.882 60.3547 156.363 60.3551 154.077 61.1781L151.837 62.1365C151.787 62.1576 151.736 62.1675 151.686 62.1675Z" fill="#665645"/>
<path d="M157.622 60.5593C157.41 60.5593 157.237 60.3865 157.237 60.1732V55.841C157.237 55.628 157.41 55.4549 157.622 55.4549C157.835 55.4549 158.008 55.628 158.008 55.841V60.1732C158.008 60.3865 157.835 60.5593 157.622 60.5593Z" fill="#665645"/>
<path d="M157.623 56.2271C156.162 56.2271 154.975 55.0374 154.975 53.5756C154.975 52.1133 156.162 50.9237 157.623 50.9237C158.635 50.9237 159.544 51.4885 159.994 52.3971C160.089 52.5877 160.011 52.8194 159.821 52.9145C159.629 53.0096 159.399 52.9312 159.304 52.7406C158.985 52.0962 158.34 51.6958 157.623 51.6958C156.588 51.6958 155.746 52.5388 155.746 53.5756C155.746 54.612 156.588 55.4549 157.623 55.4549C157.836 55.4549 158.008 55.6281 158.008 55.841C158.008 56.0543 157.836 56.2271 157.623 56.2271Z" fill="#665645"/>
<path d="M212.459 92.8187H204.672V110.063C204.672 112.298 202.866 114.107 200.635 114.107H178.34C176.109 114.107 174.299 112.298 174.299 110.063V92.8187H165.014C164.036 92.8187 163.356 91.8385 163.694 90.9175L173.105 65.5557C174.021 63.1009 176.358 61.4699 178.977 61.4699H200.057C202.803 61.4699 205.229 63.2613 206.038 65.8857L213.8 90.9931C214.083 91.8974 213.408 92.8187 212.459 92.8187Z" fill="#C0935C"/>
<path d="M174.492 92.8335L174.108 92.8009L176.047 69.7511L176.431 69.7833L174.492 92.8335Z" fill="#A1733F"/>
<path d="M204.482 92.8415L201.574 69.7913L201.956 69.7432L204.864 92.7929L204.482 92.8415Z" fill="#A1733F"/>
<path d="M197.117 61.998C197.117 66.1687 193.741 69.5489 189.578 69.5489C185.419 69.5489 182.044 66.1687 182.044 61.998C182.044 61.8205 182.048 61.643 182.065 61.4699H197.095C197.112 61.643 197.117 61.8205 197.117 61.998Z" fill="#A1733F"/>
<path d="M193.649 103.761C187.082 103.761 180.517 102.759 174.252 100.774C174.15 100.742 174.094 100.634 174.126 100.532C174.158 100.43 174.267 100.375 174.368 100.406C184.056 103.475 194.468 104.182 204.48 102.448C204.583 102.431 204.685 102.5 204.703 102.606C204.721 102.711 204.651 102.811 204.546 102.829C200.949 103.452 197.298 103.761 193.649 103.761Z" fill="white"/>
<path d="M192.285 107.012C186.035 107.012 179.769 105.757 174.093 103.289C173.995 103.246 173.951 103.132 173.993 103.034C174.036 102.936 174.149 102.893 174.247 102.934C183.665 107.033 194.729 107.756 204.6 104.92C204.703 104.889 204.809 104.949 204.838 105.052C204.867 105.155 204.809 105.261 204.706 105.291C200.699 106.442 196.495 107.012 192.285 107.012Z" fill="white"/>
<path d="M182.065 62.7013C181.907 62.7013 181.759 62.603 181.703 62.4454C181.631 62.2452 181.735 62.0239 181.935 61.9519L185.774 60.5688C188.23 59.6841 190.932 59.6845 193.386 60.5688L197.226 61.9519C197.426 62.0235 197.53 62.2452 197.458 62.4454C197.386 62.646 197.165 62.7511 196.965 62.6782L193.125 61.2952C190.839 60.4717 188.321 60.4717 186.036 61.2952L182.196 62.6782C182.153 62.6934 182.109 62.7013 182.065 62.7013Z" fill="#665645"/>
<path d="M189.58 60.6763C189.367 60.6763 189.195 60.5031 189.195 60.2898V55.958C189.195 55.7446 189.367 55.5719 189.58 55.5719C189.793 55.5719 189.966 55.7446 189.966 55.958V60.2898C189.966 60.5031 189.793 60.6763 189.58 60.6763Z" fill="#665645"/>
<path d="M189.58 56.3437C188.121 56.3437 186.933 55.1545 186.933 53.6922C186.933 52.2304 188.121 51.0411 189.58 51.0411C190.593 51.0411 191.502 51.6055 191.952 52.5137C192.047 52.7048 191.969 52.9364 191.778 53.0315C191.587 53.1267 191.357 53.0483 191.262 52.8572C190.942 52.2129 190.298 51.8129 189.58 51.8129C188.546 51.8129 187.704 52.6562 187.704 53.6922C187.704 54.7286 188.546 55.572 189.58 55.572C189.793 55.572 189.966 55.7447 189.966 55.958C189.966 56.171 189.793 56.3437 189.58 56.3437Z" fill="#665645"/>
<path d="M211.223 157.441C211.223 164.526 205.49 170.269 198.417 170.269C191.345 170.269 185.611 164.526 185.611 157.441C185.611 150.357 191.345 144.614 198.417 144.614C205.49 144.614 211.223 150.357 211.223 157.441Z" fill="#9FB794"/>
<path d="M185.262 161.352C185.262 166.88 180.788 171.362 175.27 171.362C169.751 171.362 165.278 166.88 165.278 161.352C165.278 155.825 169.751 151.343 175.27 151.343C180.788 151.343 185.262 155.825 185.262 161.352Z" fill="#8B4381"/>
<path d="M203.9 156.046H158.303V179.45H203.9V156.046Z" fill="#953649"/>
<path d="M216.555 156.046H170.958V179.45H216.555V156.046Z" fill="#AA3C54"/>
<path d="M170.958 156.046L177.465 161.352H221.992L216.555 156.046H170.958Z" fill="#953649"/>
<path d="M158.303 156.046L153.129 161.428H167.422L170.958 156.046H158.303Z" fill="#AA3C54"/>
<path d="M89.7715 179.45H79.9657L84.5855 146.734H93.3213L89.7715 179.45Z" fill="#869F7D"/>
<path d="M99.2777 137.734C95.1081 137.734 91.7156 141.771 91.7156 146.734C91.7156 151.696 95.1081 155.733 99.2777 155.733C103.447 155.733 106.84 151.696 106.84 146.734C106.84 141.771 103.447 137.734 99.2777 137.734ZM99.2777 156.119C94.8955 156.119 91.3302 151.909 91.3302 146.734C91.3302 141.559 94.8955 137.348 99.2777 137.348C103.66 137.348 107.225 141.559 107.225 146.734C107.225 151.909 103.66 156.119 99.2777 156.119Z" fill="#869F7D"/>
<path d="M95.0083 137.734C90.8387 137.734 87.4463 141.771 87.4463 146.734C87.4463 151.696 90.8387 155.733 95.0083 155.733C99.1783 155.733 102.57 151.696 102.57 146.734C102.57 141.771 99.1783 137.734 95.0083 137.734ZM95.0083 156.119C90.6262 156.119 87.0613 151.909 87.0613 146.734C87.0613 141.559 90.6262 137.348 95.0083 137.348C99.3909 137.348 102.956 141.559 102.956 146.734C102.956 151.909 99.3909 156.119 95.0083 156.119Z" fill="#869F7D"/>
<path d="M111.044 146.734H90.615L89.7715 179.45H115.262L111.044 146.734Z" fill="#9FB794"/>
<path d="M114.188 168.766C108.622 168.766 103.162 166.246 99.5499 162.001C95.9 157.711 94.2848 151.833 95.2297 146.277C95.2475 146.172 95.3469 146.101 95.4518 146.119C95.5567 146.137 95.627 146.237 95.6091 146.341C94.6837 151.786 96.2663 157.547 99.8431 161.75C103.42 165.954 108.841 168.423 114.36 168.379C114.361 168.379 114.362 168.379 114.362 168.379C114.468 168.379 114.554 168.464 114.555 168.571C114.556 168.677 114.471 168.764 114.364 168.765C114.306 168.766 114.246 168.766 114.188 168.766Z" fill="white"/>
<path d="M128.568 159.851H103.67C100.703 159.851 98.2983 162.26 98.2983 165.232V174.07C98.2983 177.041 100.703 179.45 103.67 179.45H128.568C131.534 179.45 133.939 177.041 133.939 174.07V165.232C133.939 162.26 131.534 159.851 128.568 159.851Z" fill="#77326B"/>
<path d="M119.494 151.458C115.324 151.458 111.932 155.495 111.932 160.458C111.932 165.42 115.324 169.458 119.494 169.458C123.663 169.458 127.056 165.42 127.056 160.458C127.056 155.495 123.663 151.458 119.494 151.458ZM119.494 169.844C115.111 169.844 111.546 165.633 111.546 160.458C111.546 155.283 115.111 151.072 119.494 151.072C123.876 151.072 127.441 155.283 127.441 160.458C127.441 165.633 123.876 169.844 119.494 169.844Z" fill="#77326B"/>
<path d="M132.786 159.851H107.888C104.921 159.851 102.517 162.26 102.517 165.232V174.07C102.517 177.041 104.921 179.45 107.888 179.45H132.786C135.753 179.45 138.158 177.041 138.158 174.07V165.232C138.158 162.26 135.753 159.851 132.786 159.851Z" fill="#8B4381"/>
<path d="M138.158 169.844H102.517V169.458H138.158V169.844Z" fill="#77326B"/>
<path d="M121.552 168.567H119.122C118.496 168.567 117.987 168.059 117.987 167.431C117.987 166.803 118.496 166.294 119.122 166.294H121.552C122.179 166.294 122.687 166.803 122.687 167.431C122.687 168.059 122.179 168.567 121.552 168.567Z" fill="white"/>
<path d="M50.7879 55.9293L47.7853 53.5756C47.7853 53.5756 47.0995 57.6662 50.7355 58.701L50.7879 55.9293Z" fill="#F49E74"/>
<path d="M257.11 164.234C255.291 162.922 253.903 161.019 253.208 158.885C252.908 157.962 252.806 156.782 253.564 156.177C254.199 155.671 255.178 155.848 255.809 156.359C256.44 156.87 256.806 157.632 257.152 158.367C255.49 155.823 255.281 152.393 256.623 149.665C257.017 148.864 257.663 148.046 258.554 148C259.659 147.945 260.433 149.089 260.754 150.149C261.074 151.21 261.227 152.411 262.039 153.162C261.789 151.486 261.55 149.706 262.216 148.148C262.883 146.589 264.822 145.449 266.312 146.254C267.536 146.915 267.901 148.511 267.855 149.904C267.808 151.296 267.486 152.72 267.865 154.061C268.063 152.703 268.296 151.267 269.184 150.223C270.072 149.178 271.856 148.776 272.796 149.773C273.29 150.298 273.433 151.058 273.478 151.777C273.607 153.846 273.09 155.951 272.016 157.723C272.501 157.075 273.009 156.407 273.718 156.017C274.427 155.627 275.4 155.593 275.979 156.159C276.636 156.802 276.531 157.878 276.297 158.767C275.662 161.172 274.421 163.414 272.722 165.226L257.11 164.234Z" fill="#869F7D"/>
<path d="M254.016 179.467L251.431 162.674H276.849L274.695 180.032L254.016 179.467Z" fill="#F35F39"/>
<path d="M276.322 166.409H251.646C251.539 166.409 251.453 166.323 251.453 166.216C251.453 166.109 251.539 166.023 251.646 166.023H276.322C276.428 166.023 276.515 166.109 276.515 166.216C276.515 166.323 276.428 166.409 276.322 166.409Z" fill="white"/>
<path d="M275.462 175.364H253.477C253.371 175.364 253.284 175.277 253.284 175.171C253.284 175.064 253.371 174.978 253.477 174.978H275.462C275.568 174.978 275.654 175.064 275.654 175.171C275.654 175.277 275.568 175.364 275.462 175.364Z" fill="white"/>
<path d="M216.753 173.853H198.638C198.534 173.853 198.449 173.771 198.445 173.667L198.224 167.41C198.223 167.357 198.242 167.306 198.278 167.269C198.315 167.231 198.365 167.21 198.417 167.21H216.517C216.623 167.21 216.71 167.296 216.71 167.403C216.71 167.51 216.623 167.596 216.517 167.596H198.617L198.824 173.467H216.753C216.859 173.467 216.946 173.553 216.946 173.66C216.946 173.767 216.859 173.853 216.753 173.853Z" fill="white"/>
<path d="M59.6119 102.573C51.6986 102.573 43.8064 101.573 36.1409 99.5987C36.0377 99.572 35.9756 99.4669 36.0021 99.3634C36.029 99.2604 36.1336 99.1987 36.2366 99.2245C44.1127 101.253 52.2247 102.247 60.3617 102.183C60.3621 102.183 60.3625 102.183 60.3629 102.183C60.469 102.183 60.5548 102.269 60.5556 102.375C60.5564 102.481 60.471 102.569 60.3645 102.569C60.1137 102.571 59.8626 102.573 59.6119 102.573Z" fill="white"/>
<path d="M70.8811 94.8502C70.8374 94.8502 70.7937 94.8354 70.7579 94.8056C70.6761 94.7375 70.6649 94.6157 70.7333 94.5338L73.9624 90.6489C74.0308 90.5669 74.1523 90.5557 74.2342 90.6238C74.316 90.6923 74.3268 90.814 74.2588 90.8956L71.0293 94.7809C70.9912 94.8267 70.9363 94.8502 70.8811 94.8502Z" fill="white"/>
<path d="M84.481 62.9615C84.4469 62.9615 84.4123 62.9524 84.3809 62.9337L79.1734 59.7588C79.0824 59.7035 79.0534 59.5849 79.1091 59.4938C79.1643 59.4026 79.2827 59.3736 79.3737 59.4293L84.5812 62.6037C84.6721 62.6591 84.7008 62.7777 84.6455 62.8688C84.6094 62.9285 84.5458 62.9615 84.481 62.9615Z" fill="white"/>
<path d="M48.599 65.3027C48.3563 65.3027 48.1032 65.278 47.8417 65.2274C44.8426 64.6448 42.1841 62.0243 41.2265 58.7074C41.1971 58.6051 41.2559 58.4981 41.3584 58.4686C41.4609 58.4395 41.5674 58.4977 41.5968 58.6003C42.5151 61.7816 45.0544 64.2926 47.9152 64.8486C49.5435 65.1638 50.7685 64.3821 51.1094 62.8052C51.3927 61.4938 51.0855 60.2596 50.7601 58.9534L50.664 58.5653C50.6389 58.4618 50.7021 58.3576 50.8054 58.3321C50.9067 58.3066 51.0132 58.3703 51.0387 58.4738L51.134 58.8598C51.4555 60.1517 51.788 61.4874 51.4861 62.8868C51.1567 64.4104 50.0588 65.3027 48.599 65.3027Z" fill="white"/>
<path d="M53.7421 166.774C53.7227 166.774 53.7028 166.771 53.6829 166.765C51.5826 166.087 49.4036 165.637 47.2064 165.428C47.1007 165.418 47.0228 165.324 47.0331 165.218C47.0427 165.112 47.1369 165.036 47.2429 165.044C49.468 165.255 51.6744 165.71 53.8013 166.398C53.9026 166.431 53.9583 166.539 53.9257 166.641C53.8991 166.722 53.8236 166.774 53.7421 166.774Z" fill="white"/>
<path d="M40.356 158.289C40.3107 158.289 40.265 158.273 40.2284 158.241C38.6773 156.864 37.3386 155.27 36.2497 153.504C36.1938 153.414 36.2219 153.294 36.3124 153.238C36.4026 153.183 36.5221 153.211 36.5775 153.301C37.6469 155.035 38.9612 156.6 40.4839 157.952C40.5634 158.022 40.5705 158.144 40.5002 158.224C40.462 158.267 40.4092 158.289 40.356 158.289Z" fill="white"/>
</svg>
