<svg width="101" height="37" viewBox="0 0 101 37" fill="none" xmlns="http://www.w3.org/2000/svg">
<path d="M0.484643 -1.90735e-06H6.96464V22.72H21.0046V28H0.484643V-1.90735e-06ZM34.269 28.32C32.0024 28.32 29.9624 27.8533 28.149 26.92C26.3624 25.96 24.9624 24.64 23.949 22.96C22.9357 21.28 22.429 19.3733 22.429 17.24C22.429 15.1067 22.9357 13.2 23.949 11.52C24.9624 9.84 26.3624 8.53333 28.149 7.6C29.9624 6.64 32.0024 6.16 34.269 6.16C36.5357 6.16 38.5624 6.64 40.349 7.6C42.1357 8.53333 43.5357 9.84 44.549 11.52C45.5624 13.2 46.069 15.1067 46.069 17.24C46.069 19.3733 45.5624 21.28 44.549 22.96C43.5357 24.64 42.1357 25.96 40.349 26.92C38.5624 27.8533 36.5357 28.32 34.269 28.32ZM34.269 23.2C35.869 23.2 37.1757 22.6667 38.189 21.6C39.229 20.5067 39.749 19.0533 39.749 17.24C39.749 15.4267 39.229 13.9867 38.189 12.92C37.1757 11.8267 35.869 11.28 34.269 11.28C32.669 11.28 31.349 11.8267 30.309 12.92C29.269 13.9867 28.749 15.4267 28.749 17.24C28.749 19.0533 29.269 20.5067 30.309 21.6C31.349 22.6667 32.669 23.2 34.269 23.2ZM72.44 6.48V24.4C72.44 28.3467 71.4133 31.28 69.36 33.2C67.3066 35.12 64.3066 36.08 60.36 36.08C58.28 36.08 56.3066 35.8267 54.44 35.32C52.5733 34.8133 51.0266 34.08 49.8 33.12L52.28 28.64C53.1866 29.3867 54.3333 29.9733 55.72 30.4C57.1066 30.8533 58.4933 31.08 59.88 31.08C62.04 31.08 63.6266 30.5867 64.64 29.6C65.68 28.64 66.2 27.1733 66.2 25.2V24.28C64.5733 26.0667 62.3066 26.96 59.4 26.96C57.4266 26.96 55.6133 26.5333 53.96 25.68C52.3333 24.8 51.04 23.5733 50.08 22C49.12 20.4267 48.64 18.6133 48.64 16.56C48.64 14.5067 49.12 12.6933 50.08 11.12C51.04 9.54667 52.3333 8.33333 53.96 7.48C55.6133 6.6 57.4266 6.16 59.4 6.16C62.52 6.16 64.8933 7.18667 66.52 9.24V6.48H72.44ZM60.64 21.84C62.2933 21.84 63.64 21.36 64.68 20.4C65.7466 19.4133 66.28 18.1333 66.28 16.56C66.28 14.9867 65.7466 13.72 64.68 12.76C63.64 11.7733 62.2933 11.28 60.64 11.28C58.9866 11.28 57.6266 11.7733 56.56 12.76C55.4933 13.72 54.96 14.9867 54.96 16.56C54.96 18.1333 55.4933 19.4133 56.56 20.4C57.6266 21.36 58.9866 21.84 60.64 21.84ZM88.4878 28.32C86.2211 28.32 84.1811 27.8533 82.3678 26.92C80.5811 25.96 79.1811 24.64 78.1678 22.96C77.1544 21.28 76.6478 19.3733 76.6478 17.24C76.6478 15.1067 77.1544 13.2 78.1678 11.52C79.1811 9.84 80.5811 8.53333 82.3678 7.6C84.1811 6.64 86.2211 6.16 88.4878 6.16C90.7544 6.16 92.7811 6.64 94.5678 7.6C96.3544 8.53333 97.7544 9.84 98.7678 11.52C99.7811 13.2 100.288 15.1067 100.288 17.24C100.288 19.3733 99.7811 21.28 98.7678 22.96C97.7544 24.64 96.3544 25.96 94.5678 26.92C92.7811 27.8533 90.7544 28.32 88.4878 28.32ZM88.4878 23.2C90.0878 23.2 91.3944 22.6667 92.4078 21.6C93.4478 20.5067 93.9678 19.0533 93.9678 17.24C93.9678 15.4267 93.4478 13.9867 92.4078 12.92C91.3944 11.8267 90.0878 11.28 88.4878 11.28C86.8878 11.28 85.5678 11.8267 84.5278 12.92C83.4878 13.9867 82.9678 15.4267 82.9678 17.24C82.9678 19.0533 83.4878 20.5067 84.5278 21.6C85.5678 22.6667 86.8878 23.2 88.4878 23.2Z" fill="white"/>
</svg>
